{
.appVersion = "3507";
.formatVersion = 3;
axes = (
{
name = Weight;
tag = wght;
}
);
classes = (
{
automatic = 1;
code = "A Aacute Abreve Acaron Acircumflex Adieresis Agrave Amacron Aogonek Aring Atilde AE B C Cacute Ccaron Ccedilla Ccircumflex Cdotaccent D Dcaron Dcroat Eth E Eacute Ebreve Ecaron Ecircumflex Edieresis Edotaccent Egrave Emacron Eogonek Etilde Schwa Ezh Ezhcaron F G Gbreve Gcaron Gcircumflex Gcommaaccent Gdotaccent Gmacron Gstroke H Hbar Hcaron Hcircumflex I IJ Iacute Ibreve Icircumflex Idieresis Idotaccent Igrave Imacron Iogonek Itilde J Jacute Jcircumflex K Kcaron Kcommaaccent L Lacute Lcaron Lcommaaccent Ldot Lslash M N Nacute Ncaron Ncommaaccent Ntilde Eng O Oacute Obreve Ocircumflex Odieresis Ograve Ohungarumlaut Omacron Oslash Oslashacute Otilde OE P Thorn Q R Racute Rcaron Rcommaaccent S Sacute Scaron Scedilla Scircumflex Scommaaccent Germandbls T Tbar Tcaron Tcedilla Tcommaaccent U Uacute Ubreve Ucaron Ucircumflex Udieresis Ugrave Uhungarumlaut Umacron Uogonek Uring Utilde V W Wacute Wcircumflex Wdieresis Wgrave X Y Yacute Ycircumflex Ydieresis Ygrave Ytilde Z Zacute Zcaron Zdotaccent Saltillo Lcommaaccent.loclMAH Ncommaaccent.loclMAH Delta Omega";
name = Uppercase;
},
{
automatic = 1;

glyphs = (
{
glyphname = A;
kernLeft = A;
kernRight = A;
lastChange = "2026-01-31 10:58:02 +0000";
layers = (
{
anchors = (
{
name = bottom;
pos = (524,0);
},
{
name = ogonek;
pos = (574,10);
},
{
name = top;
pos = (423,720);
}
);
hints = (
{
horizontal = 1;
origin = (0,7);
target = up;
type = BottomGhost;
},
{
horizontal = 1;
origin = (1,3);
target = (0,1);
type = Stem;
},
{
horizontal = 1;
origin = (0,6);
target = down;
type = TopGhost;
},
{
horizontal = 1;
origin = (0,6);
target = (1,0);
type = Stem;
}
);
layerId = "05246BF3-0764-4143-87C4-5D2B296D3790";
shapes = (
{
closed = 1;
nodes = (
(68,0,l),
(183,210,l),
(483,210,l),
(524,0,l),
(618,0,l),
(470,720,l),
(376,720,l),
(-26,0,l)
);
},
{
closed = 1;
nodes = (
(402,612,l),
(406,612,l),
(468,290,l),
(226,290,l)
);
}
);
width = 684;
},
{
anchors = (
{
name = bottom;
pos = (517,0);
},
{
name = ogonek;
pos = (563,10);
},
{
name = top;
pos = (442,720);
}
);
hints = (
{
horizontal = 1;
origin = (0,7);
target = up;
type = BottomGhost;
},
{
horizontal = 1;
origin = (1,3);
target = (0,1);
type = Stem;
},
{
horizontal = 1;
origin = (0,6);
target = (1,0);
type = Stem;
},
{
horizontal = 1;
origin = (0,6);
target = down;
type = TopGhost;
}
);
layerId = "B51EB05F-9FBB-4087-814F-400611B2D4B0";
shapes = (
{
closed = 1;
nodes = (
(113,0,l),
(217,195,l),
(481,195,l),
(517,0,l),
(667,0,l),
(519,720,l),
(365,720,l),
(-37,0,l)
);
},
{
closed = 1;
nodes = (
(407,548,l),
(417,548,l),
(460,315,l),
(282,315,l)
);
}
);
width = 724;
}
);
subCategory = Uppercase;
unicode = 65;
},
{
glyphname = Aogonek;
kernLeft = A;
kernRight = A;
lastChange = "2026-01-31 10:59:13 +0000";
layers = (
{
anchors = (
{
name = top;
pos = (422,720);
}
);
hints = (
{
horizontal = 1;
origin = (0,6);
target = up;
type = BottomGhost;
},
{
horizontal = 1;
origin = (1,3);
target = (0,8);
type = Stem;
},
{
horizontal = 1;
origin = (0,5);
target = down;
type = TopGhost;
},
{
horizontal = 1;
origin = (0,5);
target = (1,0);
type = Stem;
},
{
horizontal = 1;
place = (-276,-10);
type = Stem;
},
{
place = (432,5);
type = Stem;
}
);
layerId = "05246BF3-0764-4143-87C4-5D2B296D3790";
shapes = (
{
closed = 1;
nodes = (
(576,-121,l),
(464,-143,o),
(496,-67,o),
(618,0,c),
(469,720,l),
(375,720,l),
(-26,0,l),
(68,0,l),
(183,210,l),
(483,210,l),
(524,0,l),
(361,-80,o),
(390,-224,o),
(564,-191,c)
);
},
{
closed = 1;
nodes = (
(401,612,l),
(405,612,l),
(468,290,l),
(226,290,l)
);
}
);
width = 684;
},
{
anchors = (
{
name = top;
pos = (442,720);
}
);
hints = (
{
horizontal = 1;
origin = (0,6);
target = up;
type = BottomGhost;
},
{
horizontal = 1;
origin = (1,3);
target = (0,8);
type = Stem;
},
{
horizontal = 1;
origin = (0,5);
target = (1,0);
type = Stem;
},
{
horizontal = 1;
place = (-198,88);
type = Stem;
},
{
place = (516,146);
type = Stem;
}
);
layerId = "B51EB05F-9FBB-4087-814F-400611B2D4B0";
shapes = (
{
closed = 1;
nodes = (
(642,-105,l),
(530,-127,o),
(545,-67,o),
(667,0,c),
(519,720,l),
(365,720,l),
(-37,0,l),
(113,0,l),
(217,195,l),
(481,195,l),
(517,0,l),
(343,-86,o),
(404,-233,o),
(627,-190,c)
);
},
{
closed = 1;
nodes = (
(406,548,l),
(416,548,l),
(459,315,l),
(281,315,l)
);
}
);
width = 724;
}
);
subCategory = Uppercase;
unicode = 260;
},
{
glyphname = AE;
kernLeft = A;
kernRight = E;
lastChange = "2026-01-31 11:05:44 +0000";
layers = (
{
hints = (
{
horizontal = 1;
origin = (0,15);
target = (0,6);
type = Stem;
},
{
horizontal = 1;
origin = (0,1);
target = (1,3);
type = Stem;
},
{
horizontal = 1;
origin = (0,7);
target = (0,10);
type = Stem;
},
{
horizontal = 1;
origin = (0,14);
target = (1,0);
type = Stem;
},
{
origin = (0,3);
target = (0,5);
type = Stem;
}
);
layerId = "05246BF3-0764-4143-87C4-5D2B296D3790";
shapes = (
{
closed = 1;
nodes = (
(68,0,l),
(185,210,l),
(475,210,l),
(438,0,l),
(883,0,l),
(897,80,l),
(542,80,l),
(586,330,l),
(891,330,l),
(905,410,l),
(600,410,l),
(641,640,l),
(996,640,l),
(1010,720,l),
(376,720,l),
(-26,0,l)
);
},
{
closed = 1;
nodes = (
(425,640,l),
(551,640,l),
(489,290,l),
(230,290,l)
);
}
);
width = 999;
},
{
hints = (
{
horizontal = 1;
place = (0,120);
type = Stem;
},
{
horizontal = 1;
place = (310,120);
type = Stem;
},
{
horizontal = 1;
place = (720,120);
type = Stem;
},
{
horizontal = 1;
place = (195,120);
type = Stem;
},
{
place = (470,150);
type = Stem;
}
);
layerId = "B51EB05F-9FBB-4087-814F-400611B2D4B0";
shapes = (
{
closed = 1;
nodes = (
(113,0,l),
(221,195,l),
(466,195,l),
(432,0,l),
(892,0,l),
(913,120,l),
(603,120,l),
(637,310,l),
(897,310,l),
(918,430,l),
(658,430,l),
(688,600,l),
(998,600,l),
(1019,720,l),
(365,720,l),
(-37,0,l)
);
},
{
closed = 1;
nodes = (
(448,600,l),
(538,600,l),
(488,315,l),
(289,315,l)
);
}
);
width = 989;
}
);
subCategory = Uppercase;
unicode = 198;
},
{
glyphname = B;
kernLeft = I;
kernRight = B;
lastChange = "2026-01-31 11:03:43 +0000";
layers = (
{
anchors = (
{
name = bottom;
pos = (274,0);
},
{
name = top;
pos = (397,700);
}
);
hints = (
{
horizontal = 1;
origin = (0,15);
target = (1,8);
type = Stem;
},
{
horizontal = 1;
origin = (1,0);
target = (2,8);
type = Stem;
},
{
horizontal = 1;
origin = (0,14);
target = (2,0);
type = Stem;
},
{
origin = (0,15);
target = (1,8);
type = Stem;
},
{
origin = (1,4);
target = (0,3);
type = Stem;
},
{
origin = (2,4);
target = (0,10);
type = Stem;
}
);
layerId = "05246BF3-0764-4143-87C4-5D2B296D3790";
shapes = (
{
closed = 1;
nodes = (
(309,0,ls),
(479,0,o),
(573,78,o),
(596,208,cs),
(612,298,o),
(570,363,o),
(475,380,c),
(477,390,l),
(542,410,o),
(588,450,o),
(603,532,cs),
(624,652,o),
(556,720,o),
(406,720,cs),
(171,720,l),
(44,0,l)
);
},
{
closed = 1;
nodes = (
(194,340,l),
(369,340,ls),
(459,340,o),
(523,308,o),
(506,208,cs),
(488,108,o),
(413,80,o),
(323,80,cs),
(148,80,l)
);
},
{
closed = 1;
nodes = (
(247,640,l),
(392,640,ls),
(472,640,o),
(529,622,o),
(513,532,cs),
(497,442,o),
(443,420,o),
(353,420,cs),
(208,420,l)
);
}
);
width = 645;
},
{
anchors = (
{
name = bottom;
pos = (273,0);
},
{
name = top;
pos = (396,700);
}
);
hints = (
{
horizontal = 1;
origin = (0,15);
target = (1,8);
type = Stem;
},
{
horizontal = 1;
origin = (1,0);
target = (2,8);
type = Stem;
},
{
horizontal = 1;
origin = (0,14);
target = (2,0);
type = Stem;
},
{
origin = (0,15);
target = (1,8);
type = Stem;
},
{
origin = (1,4);
target = (0,3);
type = Stem;
},
{
origin = (2,4);
target = (0,10);
type = Stem;
}
);
layerId = "B51EB05F-9FBB-4087-814F-400611B2D4B0";
shapes = (
{
closed = 1;
nodes = (
(298,0,ls),
(503,0,o),
(592,78,o),
(616,218,cs),
(633,313,o),
(565,368,o),
(474,380,c),
(476,390,l),
(540,405,o),
(606,440,o),
(620,522,cs),
(645,662,o),
(565,720,o),
(395,720,cs),
(150,720,l),
(23,0,l)
);
},
{
closed = 1;
nodes = (
(209,320,l),
(354,320,ls),
(419,320,o),
(481,303,o),
(466,218,cs),
(451,133,o),
(394,120,o),
(319,120,cs),
(174,120,l)
);
},
{
closed = 1;
nodes = (
(259,600,l),
(374,600,ls),
(429,600,o),
(485,607,o),
(470,522,cs),
(459,457,o),
(421,440,o),
(346,440,cs),
(231,440,l)
);
}
);
width = 664;
}
);
subCategory = Uppercase;
unicode = 66;
},
{
glyphname = C;
kernLeft = C;
kernRight = C;
lastChange = "2026-01-31 11:03:49 +0000";
layers = (
{
anchors = (
{
name = bottom;
pos = (330,0);
},
{
name = top;
pos = (458,730);
}
);
hints = (
{
horizontal = 1;
origin = (0,6);
target = (0,25);
type = Stem;
},
{
horizontal = 1;
origin = (0,19);
target = (0,12);
type = Stem;
},
{
origin = (0,22);
target = (0,9);
type = Stem;
}
);
layerId = "05246BF3-0764-4143-87C4-5D2B296D3790";
shapes = (
{
closed = 1;
nodes = (
(488,-10,o),
(593,79,o),
(651,205,c),
(559,205,l),
(515,120,o),
(443,70,o),
(342,70,cs),
(182,70,o),
(140,200,o),
(168,360,cs),
(196,520,o),
(284,650,o),
(444,650,cs),
(545,650,o),
(600,600,o),
(614,515,c),
(706,515,l),
(692,641,o),
(618,730,o),
(458,730,cs),
(238,730,o),
(114,560,o),
(78,360,cs),
(43,160,o),
(108,-10,o),
(328,-10,cs)
);
}
);
width = 711;
},
{
anchors = (
{
name = bottom;
pos = (319,0);
},
{
name = top;
pos = (447,730);
}
);
hints = (
{
horizontal = 1;
origin = (0,6);
target = (0,25);
type = Stem;
},
{
horizontal = 1;
origin = (0,19);
target = (0,12);
type = Stem;
},
{
origin = (0,22);
target = (0,9);
type = Stem;
}
);
layerId = "B51EB05F-9FBB-4087-814F-400611B2D4B0";
shapes = (
{
closed = 1;
nodes = (
(491,-10,o),
(598,83,o),
(658,225,c),
(506,225,l),
(473,153,o),
(427,110,o),
(338,110,cs),
(198,110,o),
(184,230,o),
(207,360,cs),
(230,490,o),
(286,610,o),
(426,610,cs),
(515,610,o),
(546,567,o),
(554,495,c),
(706,495,l),
(696,637,o),
(621,730,o),
(447,730,cs),
(222,730,o),
(95,575,o),
(57,360,cs),
(19,145,o),
(92,-10,o),
(317,-10,cs)
);
}
);
width = 695;
}
);
subCategory = Uppercase;
unicode = 67;
},
{
glyphname = D;
kernLeft = I;
kernRight = O;
lastChange = "2026-01-31 11:04:07 +0000";
layers = (
{
anchors = (
{
name = bottom;
pos = (272,0);
},
{
name = center;
pos = (370,350);
},
{
name = top;
pos = (399,720);
}
);
hints = (
{
horizontal = 1;
origin = (0,8);
target = (1,8);
type = Stem;
},
{
horizontal = 1;
origin = (0,7);
target = (1,0);
type = Stem;
},
{
origin = (0,8);
target = (1,8);
type = Stem;
},
{
origin = (1,4);
target = (0,3);
type = Stem;
}
);
layerId = "05246BF3-0764-4143-87C4-5D2B296D3790";
shapes = (
{
closed = 1;
nodes = (
(272,0,ls),
(505,0,o),
(636,167,o),
(670,360,cs),
(705,553,o),
(632,720,o),
(399,720,cs),
(171,720,l),
(44,0,l)
);
},
{
closed = 1;
nodes = (
(247,640,l),
(385,640,ls),
(567,640,o),
(607,512,o),
(580,360,cs),
(554,208,o),
(468,80,o),
(286,80,cs),
(148,80,l)
);
}
);
width = 712;
},
{
anchors = (
{
name = bottom;
pos = (271,0);
},
{
name = center;
pos = (379,350);
},
{
name = top;
pos = (398,720);
}
);
hints = (
{
horizontal = 1;
origin = (0,8);
target = (1,8);
type = Stem;
},
{
horizontal = 1;
origin = (0,7);
target = (1,0);
type = Stem;
},
{
origin = (0,8);
target = (1,8);
type = Stem;
},
{
origin = (1,4);
target = (0,3);
type = Stem;
}
);
layerId = "B51EB05F-9FBB-4087-814F-400611B2D4B0";
shapes = (
{
closed = 1;
nodes = (
(271,0,ls),
(524,0,o),
(650,137,o),
(689,360,cs),
(729,583,o),
(651,720,o),
(398,720,cs),
(150,720,l),
(23,0,l)
);
},
{
closed = 1;
nodes = (
(279,600,l),
(377,600,ls),
(529,600,o),
(563,492,o),
(539,360,cs),
(516,228,o),
(444,120,o),
(292,120,cs),
(194,120,l)
);
}
);
width = 712;
}
);
subCategory = Uppercase;
unicode = 68;
},
{
glyphname = Eth;
kernLeft = B;
kernRight = D;
lastChange = "2026-01-31 11:05:06 +0000";
layers = (
{
hints = (
{
horizontal = 1;
origin = (0,3);
target = (0,2);
type = Stem;
}
);
layerId = "05246BF3-0764-4143-87C4-5D2B296D3790";
shapes = (
{
closed = 1;
nodes = (
(376,335,l),
(376,405,l),
(56,405,l),
(56,335,l)
);
},
{
pos = (33,0);
ref = D;
}
);
width = 745;
},
{
hints = (
{
horizontal = 1;
origin = (0,3);
target = (0,2);
type = Stem;
},
{
origin = (0,3);
target = (0,0);
type = Stem;
}
);
layerId = "B51EB05F-9FBB-4087-814F-400611B2D4B0";
shapes = (
{
closed = 1;
nodes = (
(423,315,l),
(423,425,l),
(43,425,l),
(43,315,l)
);
},
{
pos = (40,0);
ref = D;
}
);
width = 762;
}
);
subCategory = Uppercase;
unicode = 208;
},
{
glyphname = E;
kernLeft = I;
kernRight = E;
lastChange = "2026-01-31 11:05:38 +0000";
layers = (
{
anchors = (
{
name = bottom;
pos = (257,0);
},
{
name = ogonek;
pos = (501,10);
},
{
name = top;
pos = (384,720);
},
{
name = topleft;
pos = (101,720);
}
);
hints = (
{
horizontal = 1;
origin = (0,11);
target = (0,2);
type = Stem;
},
{
horizontal = 1;
origin = (0,3);
target = (0,6);
type = Stem;
},
{
horizontal = 1;
origin = (0,10);
target = (0,7);
type = Stem;
},
{
origin = (0,11);
target = (0,2);
type = Stem;
}
);
layerId = "05246BF3-0764-4143-87C4-5D2B296D3790";
shapes = (
{
closed = 1;
nodes = (
(489,0,l),
(503,80,l),
(148,80,l),
(194,340,l),
(499,340,l),
(513,420,l),
(208,420,l),
(247,640,l),
(602,640,l),
(616,720,l),
(171,720,l),
(44,0,l)
);
}
);
width = 605;
},
{
anchors = (
{
name = bottom;
pos = (251,0);
},
{
name = ogonek;
pos = (491,10);
},
{
name = top;
pos = (378,720);
},
{
name = topleft;
pos = (100,720);
}
);
hints = (
{
horizontal = 1;
origin = (0,11);
target = (0,2);
type = Stem;
},
{
horizontal = 1;
origin = (0,3);
target = (0,6);
type = Stem;
},
{
horizontal = 1;
origin = (0,10);
target = (0,7);
type = Stem;
},
{
origin = (0,11);
target = (0,2);
type = Stem;
}
);
layerId = "B51EB05F-9FBB-4087-814F-400611B2D4B0";
shapes = (
{
closed = 1;
nodes = (
(498,0,l),
(519,120,l),
(194,120,l),
(229,320,l),
(504,320,l),
(526,440,l),
(251,440,l),
(279,600,l),
(604,600,l),
(625,720,l),
(150,720,l),
(23,0,l)
);
}
);
width = 595;
}
);
subCategory = Uppercase;
unicode = 69;
},
{
glyphname = Eogonek;
kernLeft = B;
kernRight = E;
lastChange = "2026-01-31 11:06:24 +0000";
layers = (
{
anchors = (
{
name = top;
pos = (393,720);
}
);
hints = (
{
horizontal = 1;
origin = (0,14);
target = (0,5);
type = Stem;
},
{
horizontal = 1;
origin = (0,6);
target = (0,9);
type = Stem;
},
{
horizontal = 1;
origin = (0,13);
target = (0,10);
type = Stem;
},
{
origin = (0,14);
target = (0,5);
type = Stem;
},
{
horizontal = 1;
place = (-275,-9);
type = Stem;
},
{
place = (314,6);
type = Stem;
}
);
layerId = "05246BF3-0764-4143-87C4-5D2B296D3790";
shapes = (
{
closed = 1;
nodes = (
(452,-121,l),
(340,-143,o),
(368,-67,o),
(490,0,c),
(504,80,l),
(149,80,l),
(194,340,l),
(499,340,l),
(514,420,l),
(209,420,l),
(247,640,l),
(602,640,l),
(616,720,l),
(171,720,l),
(45,0,l),
(400,0,l),
(237,-80,o),
(266,-224,o),
(440,-191,c)
);
}
);
width = 606;
},
{
anchors = (
{
name = top;
pos = (387,720);
}
);
hints = (
{
horizontal = 1;
origin = (0,14);
target = (0,5);
type = Stem;
},
{
horizontal = 1;
origin = (0,6);
target = (0,9);
type = Stem;
},
{
horizontal = 1;
origin = (0,13);
target = (0,10);
type = Stem;
},
{
origin = (0,14);
target = (0,5);
type = Stem;
},
{
horizontal = 1;
place = (-198,88);
type = Stem;
},
{
place = (349,146);
type = Stem;
}
);
layerId = "B51EB05F-9FBB-4087-814F-400611B2D4B0";
shapes = (
{
closed = 1;
nodes = (
(473,-105,l),
(361,-127,o),
(376,-67,o),
(498,0,c),
(519,120,l),
(194,120,l),
(229,320,l),
(504,320,l),
(525,440,l),
(250,440,l),
(279,600,l),
(604,600,l),
(625,720,l),
(150,720,l),
(23,0,l),
(348,0,l),
(174,-86,o),
(235,-233,o),
(458,-190,c)
);
}
);
width = 595;
}
);
subCategory = Uppercase;
unicode = 280;
},
{
glyphname = Schwa;
lastChange = "2026-01-31 11:06:31 +0000";
layers = (
{
layerId = "05246BF3-0764-4143-87C4-5D2B296D3790";
shapes = (
{
closed = 1;
nodes = (
(537,-10,o),
(660,151,o),
(697,360,cs),
(736,579,o),
(657,730,o),
(451,730,cs),
(310,730,o),
(203,679,o),
(123,531,c),
(205,531,l),
(262,609,o),
(305,650,o),
(437,650,cs),
(600,650,o),
(625,526,o),
(614,398,c),
(86,398,l),
(76,350,ls),
(31,121,o),
(105,-10,o),
(321,-10,cs)
);
},
{
closed = 1;
nodes = (
(182,70,o),
(144,170,o),
(161,318,c),
(600,318,l),
(560,170,o),
(498,70,o),
(335,70,cs)
);
}
);
width = 739;
},
{
layerId = "B51EB05F-9FBB-4087-814F-400611B2D4B0";
shapes = (
{
closed = 1;
nodes = (
(535,-10,o),
(657,141,o),
(695,360,cs),
(734,579,o),
(655,730,o),
(449,730,cs),
(298,730,o),
(186,688,o),
(101,531,c),
(253,531,l),
(294,586,o),
(318,620,o),
(430,620,cs),
(573,620,o),
(561,506,o),
(552,398,c),
(64,398,l),
(55,350,ls),
(15,121,o),
(103,-10,o),
(319,-10,cs)
);
},
{
closed = 1;
nodes = (
(205,100,o),
(183,180,o),
(199,318,c),
(538,318,l),
(506,200,o),
(471,100,o),
(338,100,cs)
);
}
);
width = 718;
}
);
subCategory = Uppercase;
unicode = 399;
},
{
glyphname = Ezh;
lastChange = "2026-01-31 11:06:40 +0000";
layers = (
{
anchors = (
{
name = bottom;
pos = (269,0);
},
{
name = top;
pos = (396,720);
}
);
hints = (
{
horizontal = 1;
origin = (0,28);
target = (0,21);
type = Stem;
},
{
horizontal = 1;
origin = (0,15);
target = (0,5);
type = Stem;
},
{
horizontal = 1;
origin = (0,9);
target = (0,11);
type = Stem;
},
{
origin = (0,25);
target = (0,24);
type = Stem;
},
{
origin = (0,14);
target = (0,6);
type = Stem;
},
{
origin = (0,18);
target = (0,2);
type = Stem;
},
{
origin = (0,8);
target = (0,12);
type = Stem;
}
);
layerId = "05246BF3-0764-4143-87C4-5D2B296D3790";
shapes = (
{
closed = 1;
nodes = (
(417,-10,o),
(537,75,o),
(560,205,cs),
(589,371,o),
(496,415,o),
(376,415,c),
(378,425,l),
(609,655,l),
(621,720,l),
(201,720,l),
(187,640,l),
(482,640,l),
(480,630,l),
(274,425,l),
(260,345,l),
(330,345,ls),
(429,345,o),
(489,315,o),
(470,205,cs),
(456,125,o),
(391,70,o),
(281,70,cs),
(171,70,o),
(126,125,o),
(140,205,c),
(50,205,l),
(27,75,o),
(117,-10,o),
(267,-10,cs)
);
}
);
width = 630;
},
{
anchors = (
{
name = bottom;
pos = (288,0);
},
{
name = top;
pos = (415,720);
}
);
hints = (
{
horizontal = 1;
origin = (0,28);
target = (0,21);
type = Stem;
},
{
horizontal = 1;
origin = (0,15);
target = (0,5);
type = Stem;
},
{
horizontal = 1;
origin = (0,9);
target = (0,11);
type = Stem;
},
{
origin = (0,25);
target = (0,24);
type = Stem;
},
{
origin = (0,14);
target = (0,6);
type = Stem;
},
{
origin = (0,18);
target = (0,2);
type = Stem;
},
{
origin = (0,8);
target = (0,12);
type = Stem;
}
);
layerId = "B51EB05F-9FBB-4087-814F-400611B2D4B0";
shapes = (
{
closed = 1;
nodes = (
(446,-10,o),
(584,65,o),
(609,205,cs),
(636,361,o),
(567,427,o),
(437,427,c),
(439,437,l),
(634,620,l),
(652,720,l),
(200,720,l),
(180,610,l),
(445,610,l),
(444,600,l),
(265,440,l),
(246,330,l),
(346,330,ls),
(456,330,o),
(471,275,o),
(459,205,cs),
(448,145,o),
(405,100,o),
(305,100,cs),
(205,100,o),
(177,140,o),
(192,220,c),
(42,220,l),
(17,80,o),
(126,-10,o),
(286,-10,cs)
);
}
);
width = 670;
}
);
subCategory = Uppercase;
unicode = 439;
},
{
glyphname = F;
kernLeft = I;
kernRight = F;
lastChange = "2026-01-31 11:07:18 +0000";
layers = (
{
anchors = (
{
name = bottom;
pos = (224,0);
},
{
name = top;
pos = (347,700);
}
);
hints = (
{
horizontal = 1;
origin = (0,9);
target = up;
type = BottomGhost;
},
{
horizontal = 1;
origin = (0,1);
target = (0,4);
type = Stem;
},
{
horizontal = 1;
origin = (0,8);
target = (0,5);
type = Stem;
},
{
origin = (0,9);
target = (0,0);
type = Stem;
}
);
layerId = "05246BF3-0764-4143-87C4-5D2B296D3790";
shapes = (
{
closed = 1;
nodes = (
(134,0,l),
(194,340,l),
(499,340,l),
(513,420,l),
(208,420,l),
(247,640,l),
(602,640,l),
(616,720,l),
(171,720,l),
(44,0,l)
);
}
);
width = 595;
},
{
anchors = (
{
name = bottom;
pos = (233,0);
},
{
name = top;
pos = (356,700);
}
);
hints = (
{
horizontal = 1;
origin = (0,9);
target = up;
type = BottomGhost;
},
{
horizontal = 1;
origin = (0,1);
target = (0,4);
type = Stem;
},
{
horizontal = 1;
origin = (0,8);
target = (0,5);
type = Stem;
},
{
origin = (0,9);
target = (0,0);
type = Stem;
}
);
layerId = "B51EB05F-9FBB-4087-814F-400611B2D4B0";
shapes = (
{
closed = 1;
nodes = (
(173,0,l),
(229,320,l),
(504,320,l),
(526,440,l),
(251,440,l),
(279,600,l),
(604,600,l),
(625,720,l),
(150,720,l),
(23,0,l)
);
}
);
width = 585;
}
);
subCategory = Uppercase;
unicode = 70;
},
{
glyphname = G;
kernLeft = C;
kernRight = G;
lastChange = "2026-01-31 11:07:24 +0000";
layers = (
{
anchors = (
{
name = bottom;
pos = (330,0);
},
{
name = top;
pos = (458,730);
}
);
hints = (
{
horizontal = 1;
origin = (0,9);
target = (0,28);
type = Stem;
},
{
horizontal = 1;
origin = (0,4);
target = (0,5);
type = Stem;
},
{
horizontal = 1;
origin = (0,22);
target = (0,15);
type = Stem;
},
{
origin = (0,25);
target = (0,12);
type = Stem;
},
{
origin = (0,6);
target = (0,2);
type = Stem;
}
);
layerId = "05246BF3-0764-4143-87C4-5D2B296D3790";
shapes = (
{
closed = 1;
nodes = (
(538,-10,o),
(639,105,o),
(673,275,cs),
(687,355,l),
(417,355,l),
(403,275,l),
(583,275,l),
(553,125,o),
(492,70,o),
(342,70,cs),
(182,70,o),
(140,200,o),
(168,360,cs),
(196,520,o),
(284,650,o),
(444,650,cs),
(545,650,o),
(600,600,o),
(614,515,c),
(706,515,l),
(692,641,o),
(618,730,o),
(458,730,cs),
(238,730,o),
(114,560,o),
(78,360,cs),
(43,160,o),
(108,-10,o),
(328,-10,cs)
);
}
);
width = 730;
},
{
anchors = (
{
name = bottom;
pos = (319,0);
},
{
name = top;
pos = (447,730);
}
);
hints = (
{
horizontal = 1;
origin = (0,9);
target = (0,28);
type = Stem;
},
{
horizontal = 1;
origin = (0,4);
target = (0,5);
type = Stem;
},
{
horizontal = 1;
origin = (0,22);
target = (0,15);
type = Stem;
},
{
origin = (0,25);
target = (0,12);
type = Stem;
},
{
origin = (0,6);
target = (0,2);
type = Stem;
}
);
layerId = "B51EB05F-9FBB-4087-814F-400611B2D4B0";
shapes = (
{
closed = 1;
nodes = (
(527,-10,o),
(637,75,o),
(670,265,cs),
(690,375,l),
(380,375,l),
(360,265,l),
(520,265,l),
(499,145,o),
(458,110,o),
(338,110,cs),
(198,110,o),
(184,230,o),
(207,360,cs),
(230,490,o),
(286,610,o),
(426,610,cs),
(515,610,o),
(546,567,o),
(554,495,c),
(706,495,l),
(696,637,o),
(621,730,o),
(447,730,cs),
(222,730,o),
(95,575,o),
(57,360,cs),
(19,145,o),
(92,-10,o),
(317,-10,cs)
);
}
);
width = 711;
}
);
subCategory = Uppercase;
unicode = 71;
},
{
glyphname = Gstroke;
lastChange = "2026-01-31 11:09:03 +0000";
layers = (
{
hints = (
{
horizontal = 1;
origin = (0,3);
target = (0,2);
type = Stem;
},
{
origin = (0,3);
target = (0,1);
type = Stem;
}
);
layerId = "05246BF3-0764-4143-87C4-5D2B296D3790";
shapes = (
{
closed = 1;
nodes = (
(710,165,l),
(721,225,l),
(481,225,l),
(470,165,l)
);
},
{
ref = G;
}
);
width = 747;
},
{
hints = (
{
horizontal = 1;
origin = (0,3);
target = (0,2);
type = Stem;
},
{
origin = (0,3);
target = (0,1);
type = Stem;
}
);
layerId = "B51EB05F-9FBB-4087-814F-400611B2D4B0";
shapes = (
{
closed = 1;
nodes = (
(720,155,l),
(734,235,l),
(434,235,l),
(420,155,l)
);
},
{
ref = G;
}
);
width = 739;
}
);
subCategory = Uppercase;
unicode = 484;
},
{
glyphname = H;
kernLeft = I;
kernRight = I;
lastChange = "2026-01-31 11:09:13 +0000";
layers = (
{
anchors = (
{
name = bottom;
pos = (312,0);
},
{
name = center;
pos = (377,368);
},
{
name = top;
pos = (439,720);
},
{
name = topleft;
pos = (117,700);
}
);
hints = (
{
horizontal = 1;
origin = (0,11);
target = up;
type = BottomGhost;
},
{
horizontal = 1;
origin = (0,1);
target = (0,8);
type = Stem;
},
{
horizontal = 1;
origin = (0,10);
target = down;
type = TopGhost;
},
{
origin = (0,11);
target = (0,0);
type = Stem;
},
{
origin = (0,3);
target = (0,4);
type = Stem;
}
);
layerId = "05246BF3-0764-4143-87C4-5D2B296D3790";
shapes = (
{
closed = 1;
nodes = (
(134,0,l),
(192,330,l),
(547,330,l),
(489,0,l),
(579,0,l),
(706,720,l),
(616,720,l),
(561,410,l),
(206,410,l),
(261,720,l),
(171,720,l),
(44,0,l)
);
}
);
width = 715;
},
{
anchors = (
{
name = bottom;
pos = (321,0);
},
{
name = center;
pos = (386,367);
},
{
name = top;
pos = (448,720);
},
{
name = topleft;
pos = (126,700);
}
);
hints = (
{
horizontal = 1;
origin = (0,11);
target = up;
type = BottomGhost;
},
{
horizontal = 1;
origin = (0,1);
target = (0,8);
type = Stem;
},
{
horizontal = 1;
origin = (0,10);
target = down;
type = TopGhost;
},
{
origin = (0,11);
target = (0,0);
type = Stem;
},
{
origin = (0,3);
target = (0,4);
type = Stem;
}
);
layerId = "B51EB05F-9FBB-4087-814F-400611B2D4B0";
shapes = (
{
closed = 1;
nodes = (
(173,0,l),
(228,310,l),
(523,310,l),
(468,0,l),
(618,0,l),
(745,720,l),
(595,720,l),
(544,430,l),
(249,430,l),
(300,720,l),
(150,720,l),
(23,0,l)
);
}
);
width = 735;
}
);
subCategory = Uppercase;
unicode = 72;
},
{
glyphname = Hbar;
kernLeft = I;
kernRight = I;
lastChange = "2026-01-31 11:09:19 +0000";
layers = (
{
hints = (
{
horizontal = 1;
origin = (0,19);
target = up;
type = BottomGhost;
},
{
horizontal = 1;
origin = (0,1);
target = (1,3);
type = Stem;
},
{
horizontal = 1;
origin = (0,17);
target = (0,16);
type = Stem;
},
{
horizontal = 1;
origin = (0,17);
target = (0,14);
type = Stem;
},
{
origin = (0,19);
target = (0,0);
type = Stem;
},
{
origin = (0,3);
target = (0,4);
type = Stem;
}
);
layerId = "05246BF3-0764-4143-87C4-5D2B296D3790";
shapes = (
{
closed = 1;
nodes = (
(134,0,l),
(192,330,l),
(547,330,l),
(489,0,l),
(579,0,l),
(671,520,l),
(741,520,l),
(755,600,l),
(685,600,l),
(706,720,l),
(616,720,l),
(595,600,l),
(240,600,l),
(261,720,l),
(171,720,l),
(150,600,l),
(80,600,l),
(66,520,l),
(136,520,l),
(44,0,l)
);
},
{
closed = 1;
nodes = (
(226,520,l),
(581,520,l),
(561,410,l),
(206,410,l)
);
}
);
width = 715;
},
{
hints = (
{
horizontal = 1;
origin = (0,19);
target = up;
type = BottomGhost;
},
{
horizontal = 1;
origin = (0,1);
target = (1,3);
type = Stem;
},
{
horizontal = 1;
origin = (0,17);
target = (0,16);
type = Stem;
},
{
horizontal = 1;
origin = (0,14);
target = (0,17);
type = Stem;
},
{
origin = (0,19);
target = (0,0);
type = Stem;
},
{
origin = (0,3);
target = (0,4);
type = Stem;
}
);
layerId = "B51EB05F-9FBB-4087-814F-400611B2D4B0";
shapes = (
{
closed = 1;
nodes = (
(174,0,l),
(229,310,l),
(524,310,l),
(469,0,l),
(619,0,l),
(708,505,l),
(778,505,l),
(797,615,l),
(727,615,l),
(746,720,l),
(596,720,l),
(577,615,l),
(282,615,l),
(301,720,l),
(151,720,l),
(132,615,l),
(62,615,l),
(43,505,l),
(113,505,l),
(24,0,l)
);
},
{
closed = 1;
nodes = (
(263,505,l),
(558,505,l),
(545,430,l),
(250,430,l)
);
}
);
width = 736;
}
);
subCategory = Uppercase;
unicode = 294;
},
{
glyphname = I;
kernLeft = I;
kernRight = I;
lastChange = "2026-01-31 11:09:32 +0000";
layers = (
{
anchors = (
{
name = bottom;
pos = (89,0);
},
{
name = ogonek;
pos = (134,0);
},
{
name = top;
pos = (216,720);
},
{
name = topleft;
pos = (171,720);
}
);
hints = (
{
horizontal = 1;
origin = (0,3);
target = up;
type = BottomGhost;
},
{
horizontal = 1;
origin = (0,2);
target = down;
type = TopGhost;
},
{
origin = (0,3);
target = (0,0);
type = Stem;
}
);
layerId = "05246BF3-0764-4143-87C4-5D2B296D3790";
shapes = (
{
closed = 1;
nodes = (
(134,0,l),
(261,720,l),
(171,720,l),
(44,0,l)
);
}
);
width = 270;
},
{
anchors = (
{
name = bottom;
pos = (98,0);
},
{
name = ogonek;
pos = (173,0);
},
{
name = top;
pos = (225,720);
},
{
name = topleft;
pos = (150,720);
}
);
hints = (
{
horizontal = 1;
origin = (0,3);
target = up;
type = BottomGhost;
},
{
horizontal = 1;
origin = (0,2);
target = down;
type = TopGhost;
},
{
origin = (0,3);
target = (0,0);
type = Stem;
}
);
layerId = "B51EB05F-9FBB-4087-814F-400611B2D4B0";
shapes = (
{
closed = 1;
nodes = (
(173,0,l),
(300,720,l),
(150,720,l),
(23,0,l)
);
}
);
width = 290;
}
);
subCategory = Uppercase;
unicode = 73;
},
{
glyphname = Iogonek;
lastChange = "2026-01-31 11:11:21 +0000";
layers = (
{
anchors = (
{
name = top;
pos = (217,720);
}
);
hints = (
{
horizontal = 1;
origin = (0,6);
target = up;
type = BottomGhost;
},
{
horizontal = 1;
origin = (0,5);
target = down;
type = TopGhost;
},
{
origin = (0,6);
target = (0,3);
type = Stem;
},
{
horizontal = 1;
place = (-275,-9);
type = Stem;
},
{
place = (-41,6);
type = Stem;
}
);
layerId = "05246BF3-0764-4143-87C4-5D2B296D3790";
shapes = (
{
closed = 1;
nodes = (
(103,-121,l),
(-9,-143,o),
(19,-67,o),
(141,0,c),
(267,720,l),
(177,720,l),
(51,0,l),
(-112,-80,o),
(-83,-224,o),
(91,-191,c)
);
}
);
width = 277;
},
{
anchors = (
{
name = top;
pos = (227,720);
}
);
hints = (
{
horizontal = 1;
origin = (0,6);
target = up;
type = BottomGhost;
},
{
horizontal = 1;
origin = (0,5);
target = down;
type = TopGhost;
},
{
origin = (0,6);
target = (0,3);
type = Stem;
},
{
horizontal = 1;
place = (-198,88);
type = Stem;
},
{
place = (24,146);
type = Stem;
}
);
layerId = "B51EB05F-9FBB-4087-814F-400611B2D4B0";
shapes = (
{
closed = 1;
nodes = (
(150,-105,l),
(38,-127,o),
(53,-67,o),
(175,0,c),
(302,720,l),
(152,720,l),
(25,0,l),
(-149,-86,o),
(-88,-233,o),
(135,-190,c)
);
}
);
width = 292;
}
);
subCategory = Uppercase;
unicode = 302;
},
{
glyphname = J;
kernLeft = J;
kernRight = J;
lastChange = "2026-01-31 11:09:46 +0000";
layers = (
{
anchors = (
{
name = bottom;
pos = (199,-10);
},
{
name = top;
pos = (499,720);
}
);
hints = (
{
horizontal = 1;
origin = (0,15);
target = (0,8);
type = Stem;
},
{
horizontal = 1;
origin = (0,4);
target = down;
type = TopGhost;
},
{
origin = (0,12);
target = (0,11);
type = Stem;
},
{
origin = (0,5);
target = (0,2);
type = Stem;
}
);
layerId = "05246BF3-0764-4143-87C4-5D2B296D3790";
shapes = (
{
closed = 1;
nodes = (
(319,-10,o),
(427,60,o),
(452,200,cs),
(544,720,l),
(454,720,l),
(362,200,ls),
(346,110,o),
(293,70,o),
(213,70,cs),
(133,70,o),
(93,110,o),
(109,200,c),
(19,200,l),
(-6,60,o),
(79,-10,o),
(199,-10,cs)
);
}
);
width = 543;
},
{
anchors = (
{
name = bottom;
pos = (214,-10);
},
{
name = top;
pos = (511,720);
}
);
hints = (
{
horizontal = 1;
origin = (0,15);
target = (0,8);
type = Stem;
},
{
horizontal = 1;
origin = (0,4);
target = down;
type = TopGhost;
},
{
origin = (0,12);
target = (0,11);
type = Stem;
},
{
origin = (0,5);
target = (0,2);
type = Stem;
}
);
layerId = "B51EB05F-9FBB-4087-814F-400611B2D4B0";
shapes = (
{
closed = 1;
nodes = (
(354,-10,o),
(469,40,o),
(497,200,cs),
(589,720,l),
(439,720,l),
(347,200,ls),
(336,135,o),
(290,110,o),
(235,110,cs),
(170,110,o),
(143,140,o),
(158,225,c),
(8,225,l),
(-22,55,o),
(64,-10,o),
(214,-10,cs)
);
}
);
width = 569;
}
);
subCategory = Uppercase;
unicode = 74;
},
{
glyphname = K;
kernLeft = I;
kernRight = K;
lastChange = "2026-01-31 11:11:43 +0000";
layers = (
{
anchors = (
{
name = bottom;
pos = (274,0);
},
{
name = top;
pos = (397,700);
}
);
hints = (
{
horizontal = 1;
origin = (0,11);
target = up;
type = BottomGhost;
},
{
horizontal = 1;
origin = (0,10);
target = down;
type = TopGhost;
},
{
origin = (0,11);
target = (0,0);
type = Stem;
}
);
layerId = "05246BF3-0764-4143-87C4-5D2B296D3790";
shapes = (
{
closed = 1;
nodes = (
(134,0,l),
(179,253,l),
(260,332,l),
(469,0,l),
(574,0,l),
(325,395,l),
(661,720,l),
(556,720,l),
(202,385,l),
(261,720,l),
(171,720,l),
(44,0,l)
);
}
);
width = 650;
},
{
anchors = (
{
name = bottom;
pos = (288,0);
},
{
name = top;
pos = (411,700);
}
);
hints = (
{
horizontal = 1;
origin = (0,11);
target = up;
type = BottomGhost;
},
{
horizontal = 1;
origin = (0,10);
target = down;
type = TopGhost;
},
{
origin = (0,11);
target = (0,0);
type = Stem;
}
);
layerId = "B51EB05F-9FBB-4087-814F-400611B2D4B0";
shapes = (
{
closed = 1;
nodes = (
(178,0,l),
(219,234,l),
(285,297,l),
(473,0,l),
(648,0,l),
(396,400,l),
(735,720,l),
(560,720,l),
(254,430,l),
(305,720,l),
(155,720,l),
(28,0,l)
);
}
);
width = 710;
}
);
subCategory = Uppercase;
unicode = 75;
},
{
glyphname = L;
kernLeft = I;
kernRight = L;
lastChange = "2026-01-31 11:11:55 +0000";
layers = (
{
anchors = (
{
name = bottom;
pos = (217,0);
},
{
name = center;
pos = (340,360);
},
{
name = top;
pos = (216,720);
},
{
name = topright;
pos = (586,720);
}
);
hints = (
{
horizontal = 1;
origin = (0,5);
target = (0,2);
type = Stem;
},
{
horizontal = 1;
origin = (0,4);
target = down;
type = TopGhost;
},
{
origin = (0,5);
target = (0,1);
type = Stem;
}
);
layerId = "05246BF3-0764-4143-87C4-5D2B296D3790";
shapes = (
{
closed = 1;
nodes = (
(449,0,l),
(463,80,l),
(148,80,l),
(261,720,l),
(171,720,l),
(44,0,l)
);
}
);
width = 525;
},
{
anchors = (
{
name = bottom;
pos = (231,0);
},
{
name = center;
pos = (384,360);
},
{
name = top;
pos = (358,720);
},
{
name = topright;
pos = (615,720);
}
);
hints = (
{
horizontal = 1;
origin = (0,5);
target = (0,2);
type = Stem;
},
{
horizontal = 1;
origin = (0,4);
target = down;
type = TopGhost;
},
{
origin = (0,5);
target = (0,2);
type = Stem;
}
);
layerId = "B51EB05F-9FBB-4087-814F-400611B2D4B0";
shapes = (
{
closed = 1;
nodes = (
(498,0,l),
(519,120,l),
(204,120,l),
(310,720,l),
(150,720,l),
(23,0,l)
);
}
);
width = 555;
}
);
subCategory = Uppercase;
unicode = 76;
},
{
glyphname = Lslash;
kernLeft = B;
kernRight = L;
lastChange = "2026-01-31 11:12:45 +0000";
layers = (
{
hints = (
{
horizontal = 1;
origin = (0,1);
target = down;
type = TopGhost;
}
);
layerId = "05246BF3-0764-4143-87C4-5D2B296D3790";
shapes = (
{
closed = 1;
nodes = (
(374,450,l),
(386,520,l),
(51,381,l),
(39,311,l)
);
},
{
pos = (16,0);
ref = L;
}
);
width = 541;
},
{
hints = (
{
horizontal = 1;
origin = (0,1);
target = down;
type = TopGhost;
},
{
origin = (0,3);
target = (0,0);
type = Stem;
}
);
layerId = "B51EB05F-9FBB-4087-814F-400611B2D4B0";
shapes = (
{
closed = 1;
nodes = (
(437,420,l),
(457,530,l),
(50,381,l),
(31,271,l)
);
},
{
pos = (28,0);
ref = L;
}
);
width = 603;
}
);
subCategory = Uppercase;
unicode = 321;
},
{
glyphname = M;
kernLeft = I;
kernRight = I;
lastChange = "2026-01-31 11:13:30 +0000";
layers = (
{
anchors = (
{
name = bottom;
pos = (409,0);
},
{
name = top;
pos = (532,700);
}
);
hints = (
{
horizontal = 1;
origin = (0,15);
target = up;
type = BottomGhost;
},
{
horizontal = 1;
origin = (0,14);
target = (0,1);
type = Stem;
},
{
horizontal = 1;
origin = (0,15);
target = (0,12);
type = Stem;
},
{
origin = (0,15);
target = (0,0);
type = Stem;
},
{
origin = (0,7);
target = (0,8);
type = Stem;
}
);
layerId = "05246BF3-0764-4143-87C4-5D2B296D3790";
shapes = (
{
closed = 1;
nodes = (
(134,0,l),
(234,568,l),
(244,568,l),
(359,0,l),
(459,0,l),
(774,568,l),
(784,568,l),
(684,0,l),
(774,0,l),
(901,720,l),
(771,720,l),
(434,131,l),
(430,131,l),
(301,720,l),
(171,720,l),
(44,0,l)
);
}
);
width = 910;
},
{
anchors = (
{
name = bottom;
pos = (408,0);
},
{
name = top;
pos = (531,700);
}
);
hints = (
{
horizontal = 1;
origin = (0,15);
target = up;
type = BottomGhost;
},
{
horizontal = 1;
origin = (0,14);
target = down;
type = TopGhost;
},
{
horizontal = 1;
origin = (0,14);
target = (0,1);
type = Stem;
},
{
origin = (0,15);
target = (0,0);
type = Stem;
},
{
origin = (0,7);
target = (0,8);
type = Stem;
}
);
layerId = "B51EB05F-9FBB-4087-814F-400611B2D4B0";
shapes = (
{
closed = 1;
nodes = (
(173,0,l),
(254,462,l),
(264,462,l),
(363,0,l),
(453,0,l),
(714,462,l),
(724,462,l),
(643,0,l),
(793,0,l),
(920,720,l),
(730,720,l),
(453,227,l),
(443,227,l),
(340,720,l),
(150,720,l),
(23,0,l)
);
}
);
width = 910;
}
);
subCategory = Uppercase;
unicode = 77;
},
{
glyphname = N;
kernLeft = I;
kernRight = I;
lastChange = "2026-01-31 11:13:40 +0000";
layers = (
{
anchors = (
{
name = bottom;
pos = (334,0);
},
{
name = top;
pos = (461,720);
}
);
hints = (
{
horizontal = 1;
origin = (0,11);
target = (0,8);
type = Stem;
},
{
horizontal = 1;
origin = (0,10);
target = (0,1);
type = Stem;
},
{
origin = (0,11);
target = (0,0);
type = Stem;
},
{
origin = (0,7);
target = (0,4);
type = Stem;
}
);
layerId = "05246BF3-0764-4143-87C4-5D2B296D3790";
shapes = (
{
closed = 1;
nodes = (
(134,0,l),
(240,599,l),
(250,599,l),
(514,0,l),
(634,0,l),
(761,720,l),
(671,720,l),
(565,121,l),
(555,121,l),
(291,720,l),
(171,720,l),
(44,0,l)
);
}
);
width = 770;
},
{
anchors = (
{
name = bottom;
pos = (333,0);
},
{
name = top;
pos = (460,720);
}
);
hints = (
{
horizontal = 1;
origin = (0,11);
target = up;
type = BottomGhost;
},
{
horizontal = 1;
origin = (0,10);
target = down;
type = TopGhost;
},
{
origin = (0,11);
target = (0,0);
type = Stem;
},
{
origin = (0,7);
target = (0,4);
type = Stem;
}
);
layerId = "B51EB05F-9FBB-4087-814F-400611B2D4B0";
shapes = (
{
closed = 1;
nodes = (
(173,0,l),
(259,486,l),
(269,486,l),
(483,0,l),
(643,0,l),
(770,720,l),
(620,720,l),
(534,234,l),
(524,234,l),
(310,720,l),
(150,720,l),
(23,0,l)
);
}
);
width = 760;
}
);
subCategory = Uppercase;
unicode = 78;
},
{
glyphname = Eng;
lastChange = "2026-01-31 11:14:13 +0000";
layers = (
{
anchors = (
{
name = bottom;
pos = (334,0);
},
{
name = top;
pos = (461,720);
}
);
hints = (
{
horizontal = 1;
origin = (0,21);
target = (0,20);
type = Stem;
},
{
origin = (0,16);
target = (0,3);
type = Stem;
},
{
horizontal = 1;
origin = (0,10);
target = (0,7);
type = Stem;
},
{
horizontal = 1;
origin = (0,9);
target = (0,12);
type = Stem;
},
{
origin = (0,10);
target = (0,11);
type = Stem;
},
{
place = (544,4);
type = Stem;
}
);
layerId = "05246BF3-0764-4143-87C4-5D2B296D3790";
shapes = (
{
closed = 1;
nodes = (
(494,-200,ls),
(544,-200,o),
(606,-160,o),
(618,-90,cs),
(761,720,l),
(671,720,l),
(566,121,l),
(556,121,l),
(291,720,l),
(171,720,l),
(44,0,l),
(134,0,l),
(240,599,l),
(250,599,l),
(514,0,l),
(544,0,l),
(528,-90,ls),
(523,-120,o),
(497,-130,o),
(477,-130,cs),
(421,-130,l),
(409,-200,l)
);
}
);
width = 770;
},
{
anchors = (
{
name = bottom;
pos = (333,0);
},
{
name = top;
pos = (460,720);
}
);
hints = (
{
horizontal = 1;
place = (-200,110);
type = Stem;
},
{
place = (575,150);
type = Stem;
},
{
horizontal = 1;
origin = (0,10);
target = up;
type = BottomGhost;
},
{
horizontal = 1;
origin = (0,9);
target = down;
type = TopGhost;
},
{
origin = (0,10);
target = (0,11);
type = Stem;
},
{
origin = (0,15);
target = (0,4);
type = Stem;
}
);
layerId = "B51EB05F-9FBB-4087-814F-400611B2D4B0";
shapes = (
{
closed = 1;
nodes = (
(503,-200,ls),
(553,-200,o),
(615,-160,o),
(627,-90,cs),
(770,720,l),
(620,720,l),
(535,234,l),
(525,234,l),
(310,720,l),
(150,720,l),
(23,0,l),
(173,0,l),
(259,486,l),
(269,486,l),
(483,0,l),
(493,0,l),
(483,-60,ls),
(477,-90,o),
(452,-100,o),
(432,-100,cs),
(406,-100,l),
(388,-200,l)
);
}
);
width = 760;
}
);
subCategory = Uppercase;
unicode = 330;
},
{
glyphname = O;
kernLeft = C;
kernRight = O;
lastChange = "2026-01-31 11:14:20 +0000";
layers = (
{
anchors = (
{
name = bottom;
pos = (330,0);
},
{
name = center;
pos = (391,350);
},
{
name = ogonek;
pos = (604,10);
},
{
name = top;
pos = (458,730);
},
{
name = topleft;
pos = (133,700);
},
{
name = topright;
pos = (773,700);
}
);
hints = (
{
horizontal = 1;
origin = (0,11);
target = (1,11);
type = Stem;
},
{
horizontal = 1;
origin = (0,5);
target = (1,5);
type = Stem;
},
{
origin = (0,8);
target = (1,2);
type = Stem;
},
{
origin = (1,8);
target = (0,2);
type = Stem;
}
);
layerId = "05246BF3-0764-4143-87C4-5D2B296D3790";
shapes = (
{
closed = 1;
nodes = (
(548,-10,o),
(673,160,o),
(708,360,cs),
(744,560,o),
(678,730,o),
(458,730,cs),
(238,730,o),
(114,560,o),
(78,360,cs),
(43,160,o),
(108,-10,o),
(328,-10,cs)
);
},
{
closed = 1;
nodes = (
(182,70,o),
(140,200,o),
(168,360,cs),
(196,520,o),
(284,650,o),
(444,650,cs),
(604,650,o),
(646,520,o),
(618,360,cs),
(590,200,o),
(502,70,o),
(342,70,cs)
);
}
);
width = 750;
},
{
anchors = (
{
name = bottom;
pos = (319,0);
},
{
name = center;
pos = (380,350);
},
{
name = ogonek;
pos = (593,10);
},
{
name = top;
pos = (447,730);
},
{
name = topleft;
pos = (122,700);
},
{
name = topright;
pos = (762,700);
}
);
hints = (
{
horizontal = 1;
origin = (0,11);
target = (1,11);
type = Stem;
},
{
horizontal = 1;
origin = (0,5);
target = (1,5);
type = Stem;
},
{
origin = (0,8);
target = (1,2);
type = Stem;
},
{
origin = (1,8);
target = (0,2);
type = Stem;
}
);
layerId = "B51EB05F-9FBB-4087-814F-400611B2D4B0";
shapes = (
{
closed = 1;
nodes = (
(542,-10,o),
(669,145,o),
(707,360,cs),
(745,575,o),
(672,730,o),
(447,730,cs),
(222,730,o),
(95,575,o),
(57,360,cs),
(19,145,o),
(92,-10,o),
(317,-10,cs)
);
},
{
closed = 1;
nodes = (
(198,110,o),
(184,230,o),
(207,360,cs),
(230,490,o),
(286,610,o),
(426,610,cs),
(566,610,o),
(580,490,o),
(557,360,cs),
(534,230,o),
(478,110,o),
(338,110,cs)
);
}
);
width = 730;
}
);
subCategory = Uppercase;
unicode = 79;
},
{
glyphname = Oslash;
kernLeft = C;
kernRight = O;
lastChange = "2026-01-31 11:15:46 +0000";
layers = (
{
hints = (
{
horizontal = 1;
origin = (0,3);
target = up;
type = BottomGhost;
},
{
horizontal = 1;
origin = (0,2);
target = down;
type = TopGhost;
}
);
layerId = "05246BF3-0764-4143-87C4-5D2B296D3790";
shapes = (
{
closed = 1;
nodes = (
(62,-10,l),
(772,730,l),
(702,730,l),
(-8,-10,l)
);
},
{
pos = (-11,0);
ref = O;
}
);
width = 729;
},
{
hints = (
{
horizontal = 1;
origin = (0,3);
target = up;
type = BottomGhost;
},
{
horizontal = 1;
origin = (0,2);
target = down;
type = TopGhost;
}
);
layerId = "B51EB05F-9FBB-4087-814F-400611B2D4B0";
shapes = (
{
closed = 1;
nodes = (
(52,-10,l),
(782,730,l),
(672,730,l),
(-58,-10,l)
);
},
{
pos = (-20,0);
ref = O;
}
);
width = 690;
}
);
subCategory = Uppercase;
unicode = 216;
},
{
glyphname = OE;
kernLeft = C;
kernRight = E;
lastChange = "2026-01-31 11:16:19 +0000";
layers = (
{
hints = (
{
horizontal = 1;
origin = (0,3);
target = (0,6);
type = Stem;
},
{
horizontal = 1;
origin = (0,7);
target = (0,10);
type = Stem;
},
{
horizontal = 1;
origin = (0,14);
target = (0,11);
type = Stem;
},
{
horizontal = 1;
origin = (0,24);
target = (1,11);
type = Stem;
},
{
horizontal = 1;
origin = (0,18);
target = (1,5);
type = Stem;
},
{
origin = (0,21);
target = (1,2);
type = Stem;
},
{
origin = (0,3);
target = (0,5);
type = Stem;
}
);
layerId = "05246BF3-0764-4143-87C4-5D2B296D3790";
shapes = (
{
closed = 1;
nodes = (
(428,-10,o),
(507,24,o),
(569,82,c),
(555,0,l),
(1000,0,l),
(1014,80,l),
(659,80,l),
(703,330,l),
(1008,330,l),
(1022,410,l),
(717,410,l),
(758,640,l),
(1113,640,l),
(1127,720,l),
(682,720,l),
(667,638,l),
(625,696,o),
(558,730,o),
(458,730,cs),
(238,730,o),
(114,560,o),
(78,360,cs),
(43,160,o),
(108,-10,o),
(328,-10,cs)
);
},
{
closed = 1;
nodes = (
(182,70,o),
(140,200,o),
(168,360,cs),
(196,520,o),
(284,650,o),
(444,650,cs),
(604,650,o),
(646,520,o),
(618,360,cs),
(590,200,o),
(502,70,o),
(342,70,cs)
);
}
);
width = 1116;
},
{
hints = (
{
horizontal = 1;
origin = (0,3);
target = (0,6);
type = Stem;
},
{
horizontal = 1;
origin = (0,7);
target = (0,10);
type = Stem;
},
{
horizontal = 1;
origin = (0,14);
target = (0,11);
type = Stem;
},
{
horizontal = 1;
origin = (0,24);
target = (1,11);
type = Stem;
},
{
horizontal = 1;
origin = (0,18);
target = (1,5);
type = Stem;
},
{
origin = (0,21);
target = (1,2);
type = Stem;
},
{
origin = (0,3);
target = (0,5);
type = Stem;
}
);
layerId = "B51EB05F-9FBB-4087-814F-400611B2D4B0";
shapes = (
{
closed = 1;
nodes = (
(461,-10,o),
(519,5,o),
(566,32,c),
(566,0,l),
(1041,0,l),
(1041,120,l),
(716,120,l),
(716,310,l),
(991,310,l),
(991,430,l),
(716,430,l),
(716,600,l),
(1041,600,l),
(1041,720,l),
(566,720,l),
(566,688,l),
(519,715,o),
(461,730,o),
(391,730,cs),
(166,730,o),
(66,575,o),
(66,360,cs),
(66,145,o),
(166,-10,o),
(391,-10,cs)
);
},
{
closed = 1;
nodes = (
(251,110,o),
(216,230,o),
(216,360,cs),
(216,490,o),
(251,610,o),
(391,610,cs),
(531,610,o),
(566,490,o),
(566,360,cs),
(566,230,o),
(531,110,o),
(391,110,cs)
);
}
);
width = 1138;
}
);
subCategory = Uppercase;
unicode = 338;
},
{
glyphname = P;
kernLeft = I;
kernRight = P;
lastChange = "2026-01-31 11:16:26 +0000";
layers = (
{
anchors = (
{
name = bottom;
pos = (267,0);
},
{
name = top;
pos = (390,700);
}
);
hints = (
{
horizontal = 1;
origin = (0,10);
target = up;
type = BottomGhost;
},
{
horizontal = 1;
origin = (0,1);
target = (1,8);
type = Stem;
},
{
horizontal = 1;
origin = (0,9);
target = (1,0);
type = Stem;
},
{
origin = (0,10);
target = (0,0);
type = Stem;
},
{
origin = (1,4);
target = (0,5);
type = Stem;
}
);
layerId = "05246BF3-0764-4143-87C4-5D2B296D3790";
shapes = (
{
closed = 1;
nodes = (
(134,0,l),
(180,260,l),
(320,260,ls),
(500,260,o),
(587,360,o),
(610,490,cs),
(633,620,o),
(581,720,o),
(401,720,cs),
(171,720,l),
(44,0,l)
);
},
{
closed = 1;
nodes = (
(247,640,l),
(387,640,ls),
(497,640,o),
(540,600,o),
(520,490,cs),
(501,380,o),
(444,340,o),
(334,340,cs),
(194,340,l)
);
}
);
width = 619;
},
{
anchors = (
{
name = bottom;
pos = (276,0);
},
{
name = top;
pos = (399,700);
}
);
hints = (
{
horizontal = 1;
origin = (0,10);
target = up;
type = BottomGhost;
},
{
horizontal = 1;
origin = (0,1);
target = (1,8);
type = Stem;
},
{
horizontal = 1;
origin = (0,9);
target = (1,0);
type = Stem;
},
{
origin = (0,10);
target = (0,0);
type = Stem;
},
{
origin = (1,4);
target = (0,5);
type = Stem;
}
);
layerId = "B51EB05F-9FBB-4087-814F-400611B2D4B0";
shapes = (
{
closed = 1;
nodes = (
(173,0,l),
(215,240,l),
(325,240,ls),
(525,240,o),
(622,335,o),
(648,480,cs),
(673,625,o),
(610,720,o),
(410,720,cs),
(150,720,l),
(23,0,l)
);
},
{
closed = 1;
nodes = (
(279,600,l),
(389,600,ls),
(474,600,o),
(513,565,o),
(498,480,cs),
(483,395,o),
(431,360,o),
(346,360,cs),
(236,360,l)
);
}
);
width = 640;
}
);
subCategory = Uppercase;
unicode = 80;
},
{
glyphname = Thorn;
kernLeft = B;
kernRight = Thorn;
lastChange = "2026-01-31 11:16:32 +0000";
layers = (
{
hints = (
{
horizontal = 1;
origin = (0,12);
target = up;
type = BottomGhost;
},
{
horizontal = 1;
origin = (0,1);
target = (1,8);
type = Stem;
},
{
horizontal = 1;
origin = (1,0);
target = (0,9);
type = Stem;
},
{
horizontal = 1;
origin = (0,11);
target = down;
type = TopGhost;
},
{
origin = (0,12);
target = (0,0);
type = Stem;
},
{
origin = (1,4);
target = (0,5);
type = Stem;
}
);
layerId = "05246BF3-0764-4143-87C4-5D2B296D3790";
shapes = (
{
closed = 1;
nodes = (
(124,0,l),
(154,170,l),
(314,170,ls),
(474,170,o),
(560,260,o),
(579,370,cs),
(599,480,o),
(545,570,o),
(385,570,cs),
(225,570,l),
(251,720,l),
(171,720,l),
(44,0,l)
);
},
{
closed = 1;
nodes = (
(212,500,l),
(372,500,ls),
(462,500,o),
(515,460,o),
(499,370,cs),
(483,280,o),
(416,240,o),
(326,240,cs),
(166,240,l)
);
}
);
width = 600;
},
{
hints = (
{
horizontal = 1;
origin = (0,12);
target = up;
type = BottomGhost;
},
{
horizontal = 1;
origin = (0,1);
target = (1,8);
type = Stem;
},
{
horizontal = 1;
origin = (1,0);
target = (0,9);
type = Stem;
},
{
horizontal = 1;
origin = (0,11);
target = down;
type = TopGhost;
},
{
origin = (0,12);
target = (0,0);
type = Stem;
},
{
origin = (1,4);
target = (0,5);
type = Stem;
}
);
layerId = "B51EB05F-9FBB-4087-814F-400611B2D4B0";
shapes = (
{
closed = 1;
nodes = (
(153,0,l),
(183,170,l),
(313,170,ls),
(488,170,o),
(586,245,o),
(608,370,cs),
(630,495,o),
(559,570,o),
(384,570,cs),
(254,570,l),
(280,720,l),
(150,720,l),
(23,0,l)
);
},
{
closed = 1;
nodes = (
(234,460,l),
(364,460,ls),
(434,460,o),
(471,440,o),
(458,370,cs),
(446,300,o),
(402,280,o),
(332,280,cs),
(202,280,l)
);
}
);
width = 609;
}
);
subCategory = Uppercase;
unicode = 222;
},
{
glyphname = Q;
kernLeft = C;
kernRight = O;
lastChange = "2026-01-31 11:17:21 +0000";
layers = (
{
anchors = (
{
name = bottom;
pos = (363,0);
},
{
name = top;
pos = (360,700);
}
);
hints = (
{
horizontal = 1;
origin = (0,11);
target = (0,2);
type = Stem;
},
{
origin = (0,7);
target = (0,0);
type = Stem;
}
);
layerId = "05246BF3-0764-4143-87C4-5D2B296D3790";
shapes = (
{
closed = 1;
nodes = (
(544,-160,l),
(558,-80,l),
(502,-80,ls),
(486,-80,o),
(469,-72,o),
(465,-54,cs),
(448,40,l),
(348,40,l),
(373,-92,ls),
(381,-135,o),
(420,-160,o),
(459,-160,cs)
);
},
{
ref = O;
}
);
width = 750;
},
{
anchors = (
{
name = bottom;
pos = (375,0);
},
{
name = top;
pos = (486,700);
}
);
hints = (
{
horizontal = 1;
origin = (0,11);
target = (0,2);
type = Stem;
},
{
origin = (0,7);
target = (0,0);
type = Stem;
}
);
layerId = "B51EB05F-9FBB-4087-814F-400611B2D4B0";
shapes = (
{
closed = 1;
nodes = (
(558,-160,l),
(596,-50,l),
(540,-50,ls),
(514,-50,o),
(501,-46,o),
(500,-24,cs),
(497,40,l),
(337,40,l),
(339,-92,ls),
(339,-135,o),
(374,-160,o),
(413,-160,cs)
);
},
{
ref = O;
}
);
width = 730;
}
);
subCategory = Uppercase;
unicode = 81;
},
{
glyphname = R;
kernLeft = I;
kernRight = R;
lastChange = "2026-01-31 11:16:44 +0000";
layers = (
{
anchors = (
{
name = bottom;
pos = (287,0);
},
{
name = top;
pos = (414,720);
}
);
hints = (
{
horizontal = 1;
origin = (0,16);
target = up;
type = BottomGhost;
},
{
horizontal = 1;
origin = (0,1);
target = (1,8);
type = Stem;
},
{
horizontal = 1;
origin = (0,15);
target = (1,0);
type = Stem;
},
{
origin = (0,16);
target = (0,0);
type = Stem;
},
{
origin = (1,4);
target = (0,11);
type = Stem;
}
);
layerId = "05246BF3-0764-4143-87C4-5D2B296D3790";
shapes = (
{
closed = 1;
nodes = (
(134,0,l),
(180,260,l),
(340,260,ls),
(351,260,o),
(361,260,o),
(371,261,c),
(469,0,l),
(569,0,l),
(464,280,l),
(563,316,o),
(614,395,o),
(630,490,cs),
(653,620,o),
(601,720,o),
(421,720,cs),
(171,720,l),
(44,0,l)
);
},
{
closed = 1;
nodes = (
(247,640,l),
(407,640,ls),
(517,640,o),
(560,600,o),
(540,490,cs),
(521,380,o),
(464,340,o),
(354,340,cs),
(194,340,l)
);
}
);
width = 665;
},
{
anchors = (
{
name = bottom;
pos = (286,0);
},
{
name = top;
pos = (413,720);
}
);
hints = (
{
horizontal = 1;
origin = (0,16);
target = up;
type = BottomGhost;
},
{
horizontal = 1;
origin = (0,1);
target = (1,8);
type = Stem;
},
{
horizontal = 1;
origin = (0,15);
target = (1,0);
type = Stem;
},
{
origin = (0,16);
target = (0,0);
type = Stem;
},
{
origin = (1,4);
target = (0,11);
type = Stem;
}
);
layerId = "B51EB05F-9FBB-4087-814F-400611B2D4B0";
shapes = (
{
closed = 1;
nodes = (
(173,0,l),
(215,240,l),
(323,240,ls),
(328,240,o),
(333,240,o),
(338,240,c),
(428,0,l),
(588,0,l),
(488,268,l),
(580,306,o),
(630,382,o),
(648,480,cs),
(673,625,o),
(610,720,o),
(410,720,cs),
(150,720,l),
(23,0,l)
);
},
{
closed = 1;
nodes = (
(279,600,l),
(389,600,ls),
(474,600,o),
(513,565,o),
(498,480,cs),
(483,395,o),
(431,360,o),
(346,360,cs),
(236,360,l)
);
}
);
width = 665;
}
);
subCategory = Uppercase;
unicode = 82;
},
{
glyphname = S;
kernLeft = S;
kernRight = S;
lastChange = "2026-01-31 11:17:37 +0000";
layers = (
{
anchors = (
{
name = bottom;
pos = (263,0);
},
{
name = top;
pos = (391,729);
}
);
hints = (
{
horizontal = 1;
origin = (0,30);
target = (0,37);
type = Stem;
},
{
horizontal = 1;
origin = (0,18);
target = (0,11);
type = Stem;
},
{
origin = (0,21);
target = (0,8);
type = Stem;
},
{
origin = (0,27);
target = (0,2);
type = Stem;
}
);
layerId = "05246BF3-0764-4143-87C4-5D2B296D3790";
shapes = (
{
closed = 1;
nodes = (
(431,-10,o),
(546,63,o),
(571,203,cs),
(588,303,o),
(564,380,o),
(345,412,cs),
(262,424,o),
(196,463,o),
(207,523,cs),
(219,593,o),
(287,649,o),
(377,649,cs),
(466,649,o),
(514,611,o),
(521,540,c),
(615,540,l),
(607,652,o),
(540,729,o),
(391,729,cs),
(261,729,o),
(138,643,o),
(117,523,cs),
(98,413,o),
(154,342,o),
(310,322,cs),
(414,309,o),
(495,283,o),
(481,203,cs),
(465,113,o),
(385,70,o),
(275,70,cs),
(183,70,o),
(117,120,o),
(119,185,c),
(27,185,l),
(23,60,o),
(120,-10,o),
(261,-10,cs)
);
}
);
width = 641;
},
{
anchors = (
{
name = bottom;
pos = (273,0);
},
{
name = top;
pos = (401,729);
}
);
hints = (
{
horizontal = 1;
origin = (0,37);
target = (0,30);
type = Stem;
},
{
horizontal = 1;
origin = (0,18);
target = (0,11);
type = Stem;
},
{
origin = (0,21);
target = (0,8);
type = Stem;
},
{
origin = (0,27);
target = (0,2);
type = Stem;
}
);
layerId = "B51EB05F-9FBB-4087-814F-400611B2D4B0";
shapes = (
{
closed = 1;
nodes = (
(461,-10,o),
(574,53,o),
(601,203,cs),
(622,323,o),
(572,403,o),
(359,432,cs),
(275,443,o),
(240,483,o),
(247,523,cs),
(258,588,o),
(317,619,o),
(382,619,cs),
(450,619,o),
(482,578,o),
(483,520,c),
(637,520,l),
(640,647,o),
(564,729,o),
(401,729,cs),
(261,729,o),
(122,663,o),
(97,523,cs),
(74,393,o),
(145,313,o),
(314,292,cs),
(400,281,o),
(459,253,o),
(451,203,cs),
(438,133,o),
(372,110,o),
(292,110,cs),
(222,110,o),
(178,135,o),
(168,205,c),
(14,205,l),
(10,74,o),
(95,-10,o),
(271,-10,cs)
);
}
);
width = 642;
}
);
subCategory = Uppercase;
unicode = 83;
},
{
glyphname = Germandbls;
lastChange = "2026-01-31 11:18:04 +0000";
layers = (
{
layerId = "05246BF3-0764-4143-87C4-5D2B296D3790";
shapes = (
{
closed = 1;
nodes = (
(109,0,l),
(204,540,ls),
(217,610,o),
(255,660,o),
(335,660,cs),
(415,660,o),
(437,610,o),
(424,540,cs),
(410,460,o),
(295,490,o),
(276,380,cs),
(251,240,o),
(444,320,o),
(418,170,cs),
(404,90,o),
(321,70,o),
(241,70,cs),
(221,70,l),
(209,0,l),
(229,0,ls),
(339,0,o),
(472,23,o),
(498,170,cs),
(530,350,o),
(345,320,o),
(356,380,cs),
(367,440,o),
(483,420,o),
(504,540,cs),
(524,650,o),
(468,730,o),
(348,730,cs),
(228,730,o),
(144,650,o),
(124,540,cs),
(29,0,l)
);
}
);
width = 564;
},
{
layerId = "B51EB05F-9FBB-4087-814F-400611B2D4B0";
shapes = (
{
closed = 1;
nodes = (
(163,0,l),
(258,540,ls),
(267,590,o),
(297,620,o),
(357,620,cs),
(417,620,o),
(432,590,o),
(423,540,cs),
(412,475,o),
(297,505,o),
(275,380,cs),
(248,225,o),
(439,305,o),
(415,170,cs),
(404,105,o),
(342,110,o),
(287,110,cs),
(227,110,l),
(208,0,l),
(268,0,ls),
(393,0,o),
(536,8,o),
(565,170,cs),
(599,365,o),
(417,335,o),
(425,380,cs),
(433,425,o),
(549,405,o),
(573,540,cs),
(595,665,o),
(512,730,o),
(377,730,cs),
(242,730,o),
(130,665,o),
(108,540,cs),
(13,0,l)
);
}
);
width = 622;
}
);
subCategory = Uppercase;
unicode = 7838;
},
{
glyphname = T;
kernLeft = T;
kernRight = T;
lastChange = "2026-01-31 11:18:11 +0000";
layers = (
{
anchors = (
{
name = bottom;
pos = (259,0);
},
{
name = center;
pos = (321,350);
},
{
name = top;
pos = (386,720);
}
);
hints = (
{
horizontal = 1;
origin = (0,7);
target = up;
type = BottomGhost;
},
{
horizontal = 1;
origin = (0,4);
target = (0,5);
type = Stem;
},
{
origin = (0,7);
target = (0,0);
type = Stem;
}
);
layerId = "05246BF3-0764-4143-87C4-5D2B296D3790";
shapes = (
{
closed = 1;
nodes = (
(304,0,l),
(417,640,l),
(647,640,l),
(661,720,l),
(111,720,l),
(97,640,l),
(327,640,l),
(214,0,l)
);
}
);
width = 610;
},
{
anchors = (
{
name = bottom;
pos = (248,0);
},
{
name = center;
pos = (310,350);
},
{
name = top;
pos = (375,720);
}
);
hints = (
{
horizontal = 1;
origin = (0,7);
target = up;
type = BottomGhost;
},
{
horizontal = 1;
origin = (0,4);
target = (0,5);
type = Stem;
},
{
origin = (0,7);
target = (0,0);
type = Stem;
}
);
layerId = "B51EB05F-9FBB-4087-814F-400611B2D4B0";
shapes = (
{
closed = 1;
nodes = (
(323,0,l),
(429,600,l),
(629,600,l),
(650,720,l),
(100,720,l),
(79,600,l),
(279,600,l),
(173,0,l)
);
}
);
width = 590;
}
);
subCategory = Uppercase;
unicode = 84;
},
{
glyphname = Tbar;
kernLeft = T;
kernRight = T;
lastChange = "2026-02-06 13:37:11 +0000";
layers = (
{
hints = (
{
horizontal = 1;
origin = (0,3);
target = (0,2);
type = Stem;
}
);
layerId = "05246BF3-0764-4143-87C4-5D2B296D3790";
shapes = (
{
closed = 1;
nodes = (
(519,315,l),
(531,385,l),
(131,385,l),
(119,315,l)
);
},
{
ref = T;
}
);
width = 610;
},
{
hints = (
{
horizontal = 1;
origin = (0,3);
target = (0,2);
type = Stem;
},
{
origin = (0,3);
target = (0,0);
type = Stem;
}
);
layerId = "B51EB05F-9FBB-4087-814F-400611B2D4B0";
shapes = (
{
closed = 1;
nodes = (
(512,296,l),
(531,406,l),
(111,406,l),
(92,296,l)
);
},
{
ref = T;
}
);
width = 590;
}
);
subCategory = Uppercase;
unicode = 358;
},
{
glyphname = U;
kernLeft = U;
kernRight = U;
lastChange = "2026-01-31 11:19:18 +0000";
layers = (
{
anchors = (
{
name = bottom;
pos = (258,-5);
},
{
name = ogonek;
pos = (543,10);
},
{
name = top;
pos = (426,720);
},
{
name = topright;
pos = (707,700);
}
);
hints = (
{
horizontal = 1;
origin = (0,8);
target = (0,17);
type = Stem;
},
{
horizontal = 1;
origin = (0,13);
target = down;
type = TopGhost;
},
{
origin = (0,14);
target = (0,11);
type = Stem;
},
{
origin = (0,5);
target = (0,2);
type = Stem;
}
);
layerId = "05246BF3-0764-4143-87C4-5D2B296D3790";
shapes = (
{
closed = 1;
nodes = (
(497,-10,o),
(580,90,o),
(608,250,cs),
(691,720,l),
(601,720,l),
(518,250,ls),
(495,120,o),
(431,70,o),
(311,70,cs),
(191,70,o),
(145,120,o),
(168,250,cs),
(251,720,l),
(161,720,l),
(78,250,ls),
(50,90,o),
(97,-10,o),
(297,-10,cs)
);
}
);
width = 690;
},
{
anchors = (
{
name = bottom;
pos = (258,1);
},
{
name = ogonek;
pos = (542,10);
},
{
name = top;
pos = (425,720);
},
{
name = topright;
pos = (706,700);
}
);
hints = (
{
horizontal = 1;
origin = (0,17);
target = (0,8);
type = Stem;
},
{
horizontal = 1;
origin = (0,13);
target = down;
type = TopGhost;
},
{
origin = (0,14);
target = (0,11);
type = Stem;
},
{
origin = (0,5);
target = (0,2);
type = Stem;
}
);
layerId = "B51EB05F-9FBB-4087-814F-400611B2D4B0";
shapes = (
{
closed = 1;
nodes = (
(506,-10,o),
(597,80,o),
(627,250,cs),
(710,720,l),
(560,720,l),
(477,250,ls),
(459,150,o),
(407,110,o),
(317,110,cs),
(227,110,o),
(189,150,o),
(207,250,cs),
(290,720,l),
(140,720,l),
(57,250,ls),
(27,80,o),
(86,-10,o),
(296,-10,cs)
);
}
);
width = 690;
}
);
subCategory = Uppercase;
unicode = 85;
},
{
glyphname = Uogonek;
kernLeft = U;
kernRight = U;
lastChange = "2026-02-06 13:54:40 +0000";
layers = (
{
layerId = "05246BF3-0764-4143-87C4-5D2B296D3790";
shapes = (
{
ref = U;
},
{
closed = 1;
nodes = (
(421,-131,l),
(377,-141,o),
(341,-130,o),
(347,-93,cs),
(353,-58,o),
(381,-23,o),
(454,20,c),
(406,32,l),
(324,-3,o),
(278,-67,o),
(269,-115,cs),
(256,-191,o),
(316,-209,o),
(410,-191,c)
);
}
);
width = 690;
},
{
layerId = "B51EB05F-9FBB-4087-814F-400611B2D4B0";
shapes = (
{
ref = U;
},
{
closed = 1;
nodes = (
(331,23,l),
(264,-11,o),
(223,-66,o),
(217,-104,cs),
(200,-201,o),
(344,-206,o),
(426,-191,c),
(441,-106,l),
(410,-112,o),
(360,-118,o),
(367,-79,cs),
(372,-49,o),
(398,-21,o),
(471,23,c)
);
}
);
width = 690;
}
);
subCategory = Uppercase;
unicode = 370;
},
{
glyphname = V;
kernLeft = V;
kernRight = V;
lastChange = "2026-01-31 11:19:47 +0000";
layers = (
{
anchors = (
{
name = bottom;
pos = (258,0);
},
{
name = top;
pos = (381,700);
}
);
hints = (
{
horizontal = 1;
origin = (0,7);
target = (0,4);
type = Stem;
},
{
horizontal = 1;
origin = (0,6);
target = down;
type = TopGhost;
}
);
layerId = "05246BF3-0764-4143-87C4-5D2B296D3790";
shapes = (
{
closed = 1;
nodes = (
(323,0,l),
(705,720,l),
(611,720,l),
(301,130,l),
(297,130,l),
(195,720,l),
(101,720,l),
(229,0,l)
);
}
);
width = 644;
},
{
anchors = (
{
name = bottom;
pos = (277,0);
},
{
name = top;
pos = (400,700);
}
);
hints = (
{
horizontal = 1;
origin = (0,7);
target = (0,4);
type = Stem;
},
{
horizontal = 1;
origin = (0,6);
target = down;
type = TopGhost;
}
);
layerId = "B51EB05F-9FBB-4087-814F-400611B2D4B0";
shapes = (
{
closed = 1;
nodes = (
(372,0,l),
(754,720,l),
(604,720,l),
(336,203,l),
(326,203,l),
(240,720,l),
(90,720,l),
(218,0,l)
);
}
);
width = 684;
}
);
subCategory = Uppercase;
unicode = 86;
},
{
glyphname = W;
kernLeft = W;
kernRight = V;
lastChange = "2026-01-31 11:19:55 +0000";
layers = (
{
anchors = (
{
name = bottom;
pos = (441,0);
},
{
name = top;
pos = (568,720);
}
);
hints = (
{
horizontal = 1;
origin = (0,15);
target = (0,12);
type = Stem;
},
{
horizontal = 1;
origin = (0,14);
target = down;
type = TopGhost;
},
{
horizontal = 1;
origin = (0,15);
target = up;
type = BottomGhost;
},
{
horizontal = 1;
origin = (0,14);
target = (0,1);
type = Stem;
}
);
layerId = "05246BF3-0764-4143-87C4-5D2B296D3790";
shapes = (
{
closed = 1;
nodes = (
(283,0,l),
(540,570,l),
(544,570,l),
(599,0,l),
(693,0,l),
(1025,720,l),
(931,720,l),
(674,150,l),
(670,150,l),
(615,720,l),
(521,720,l),
(264,150,l),
(260,150,l),
(205,720,l),
(111,720,l),
(189,0,l)
);
}
);
width = 974;
},
{
anchors = (
{
name = bottom;
pos = (452,0);
},
{
name = top;
pos = (579,720);
}
);
hints = (
{
horizontal = 1;
origin = (0,15);
target = (0,12);
type = Stem;
},
{
horizontal = 1;
origin = (0,14);
target = down;
type = TopGhost;
}
);
layerId = "B51EB05F-9FBB-4087-814F-400611B2D4B0";
shapes = (
{
closed = 1;
nodes = (
(322,0,l),
(532,483,l),
(542,483,l),
(582,0,l),
(736,0,l),
(1068,720,l),
(918,720,l),
(706,237,l),
(696,237,l),
(654,720,l),
(504,720,l),
(292,237,l),
(282,237,l),
(240,720,l),
(90,720,l),
(168,0,l)
);
}
);
width = 998;
}
);
subCategory = Uppercase;
unicode = 87;
},
{
glyphname = X;
kernLeft = X;
kernRight = X;
lastChange = "2026-01-31 11:20:17 +0000";
layers = (
{
anchors = (
{
name = bottom;
pos = (302,0);
},
{
name = top;
pos = (425,700);
}
);
hints = (
{
horizontal = 1;
origin = (0,13);
target = up;
type = BottomGhost;
},
{
horizontal = 1;
origin = (0,11);
target = down;
type = TopGhost;
}
);
layerId = "05246BF3-0764-4143-87C4-5D2B296D3790";
shapes = (
{
closed = 1;
nodes = (
(96,0,l),
(359,311,l),
(363,311,l),
(516,0,l),
(618,0,l),
(429,390,l),
(705,720,l),
(603,720,l),
(391,469,l),
(387,469,l),
(263,720,l),
(161,720,l),
(321,390,l),
(-6,0,l)
);
}
);
width = 704;
},
{
anchors = (
{
name = bottom;
pos = (311,0);
},
{
name = top;
pos = (434,700);
}
);
hints = (
{
horizontal = 1;
origin = (0,13);
target = up;
type = BottomGhost;
},
{
horizontal = 1;
origin = (0,11);
target = down;
type = TopGhost;
}
);
layerId = "B51EB05F-9FBB-4087-814F-400611B2D4B0";
shapes = (
{
closed = 1;
nodes = (
(131,0,l),
(355,269,l),
(365,269,l),
(495,0,l),
(653,0,l),
(466,390,l),
(740,720,l),
(582,720,l),
(408,511,l),
(398,511,l),
(298,720,l),
(140,720,l),
(298,390,l),
(-27,0,l)
);
}
);
width = 720;
}
);
subCategory = Uppercase;
unicode = 88;
},
{
glyphname = Y;
kernLeft = Y;
kernRight = Y;
lastChange = "2026-01-31 11:20:25 +0000";
layers = (
{
anchors = (
{
name = bottom;
pos = (244,0);
},
{
name = top;
pos = (371,720);
},
{
name = topleft;
pos = (97,700);
}
);
hints = (
{
horizontal = 1;
origin = (0,9);
target = up;
type = BottomGhost;
},
{
horizontal = 1;
origin = (0,7);
target = down;
type = TopGhost;
},
{
origin = (0,9);
target = (0,0);
type = Stem;
}
);
layerId = "05246BF3-0764-4143-87C4-5D2B296D3790";
shapes = (
{
closed = 1;
nodes = (
(289,0,l),
(342,300,l),
(641,720,l),
(546,720,l),
(315,390,l),
(311,390,l),
(196,720,l),
(101,720,l),
(252,300,l),
(199,0,l)
);
}
);
width = 580;
},
{
anchors = (
{
name = bottom;
pos = (263,0);
},
{
name = top;
pos = (390,720);
},
{
name = topleft;
pos = (116,700);
}
);
hints = (
{
horizontal = 1;
origin = (0,9);
target = up;
type = BottomGhost;
},
{
horizontal = 1;
origin = (0,7);
target = down;
type = TopGhost;
},
{
origin = (0,9);
target = (0,0);
type = Stem;
}
);
layerId = "B51EB05F-9FBB-4087-814F-400611B2D4B0";
shapes = (
{
closed = 1;
nodes = (
(338,0,l),
(391,300,l),
(690,720,l),
(540,720,l),
(346,444,l),
(336,444,l),
(240,720,l),
(90,720,l),
(241,300,l),
(188,0,l)
);
}
);
width = 620;
}
);
subCategory = Uppercase;
unicode = 89;
},
{
glyphname = Z;
kernLeft = Z;
kernRight = Z;
lastChange = "2026-01-31 11:20:36 +0000";
layers = (
{
anchors = (
{
name = bottom;
pos = (232,0);
},
{
name = center;
pos = (294,350);
},
{
name = top;
pos = (355,700);
}
);
hints = (
{
horizontal = 1;
origin = (0,9);
target = (0,8);
type = Stem;
},
{
horizontal = 1;
origin = (0,5);
target = (0,6);
type = Stem;
}
);
layerId = "05246BF3-0764-4143-87C4-5D2B296D3790";
shapes = (
{
closed = 1;
nodes = (
(469,0,l),
(483,80,l),
(108,80,l),
(582,640,l),
(596,720,l),
(126,720,l),
(112,640,l),
(482,640,l),
(8,80,l),
(-6,0,l)
);
}
);
width = 555;
},
{
anchors = (
{
name = bottom;
pos = (251,0);
},
{
name = center;
pos = (313,350);
},
{
name = top;
pos = (380,720);
}
);
hints = (
{
horizontal = 1;
origin = (0,9);
target = (0,8);
type = Stem;
},
{
horizontal = 1;
origin = (0,5);
target = (0,6);
type = Stem;
}
);
layerId = "B51EB05F-9FBB-4087-814F-400611B2D4B0";
shapes = (
{
closed = 1;
nodes = (
(518,0,l),
(539,120,l),
(174,120,l),
(624,600,l),
(645,720,l),
(115,720,l),
(94,600,l),
(454,600,l),
(4,120,l),
(-17,0,l)
);
}
);
width = 595;
}
);
subCategory = Uppercase;
unicode = 90;
},
{
glyphname = Saltillo;
lastChange = "2026-01-31 11:20:44 +0000";
layers = (
{
layerId = "05246BF3-0764-4143-87C4-5D2B296D3790";
shapes = (
{
closed = 1;
nodes = (
(152,430,l),
(213,730,l),
(133,730,l),
(88,430,l)
);
}
);
width = 180;
},
{
layerId = "B51EB05F-9FBB-4087-814F-400611B2D4B0";
shapes = (
{
closed = 1;
nodes = (
(181,430,l),
(242,730,l),
(122,730,l),
(77,430,l)
);
}
);
width = 200;
}
);
subCategory = Uppercase;
unicode = 42891;
},
{
glyphname = a;
kernLeft = a;
kernRight = a;
lastChange = "2026-01-31 11:22:15 +0000";
layers = (
{
anchors = (
{
name = bottom;
pos = (387,10);
},
{
name = top;
pos = (313,530);
}
);
hints = (
{
horizontal = 1;
origin = (0,6);
target = (0,9);
type = Stem;
},
{
horizontal = 1;
origin = (0,27);
target = (1,5);
type = Stem;
},
{
horizontal = 1;
origin = (0,16);
target = (0,23);
type = Stem;
},
{
horizontal = 1;
origin = (1,9);
target = (0,33);
type = Stem;
},
{
origin = (0,30);
target = (1,2);
type = Stem;
},
{
origin = (0,3);
target = (0,12);
type = Stem;
}
);
layerId = "05246BF3-0764-4143-87C4-5D2B296D3790";
shapes = (
{
closed = 1;
nodes = (
(248,-10,o),
(310,30,o),
(351,90,c),
(361,90,l),
(348,20,o),
(395,0,o),
(445,0,cs),
(475,0,l),
(489,80,l),
(473,80,ls),
(453,80,o),
(445,90,o),
(450,120,cs),
(482,300,ls),
(508,450,o),
(472,530,o),
(313,530,cs),
(206,530,o),
(123,485,o),
(87,395,c),
(182,395,l),
(199,435,o),
(246,450,o),
(299,450,cs),
(409,450,o),
(415,400,o),
(398,300,c),
(253,300,ls),
(103,300,o),
(35,230,o),
(21,150,cs),
(7,70,o),
(48,-10,o),
(158,-10,cs)
);
},
{
closed = 1;
nodes = (
(142,70,o),
(102,100,o),
(111,150,cs),
(120,200,o),
(160,230,o),
(250,230,cs),
(385,230,l),
(366,120,o),
(292,70,o),
(192,70,cs)
);
}
);
width = 551;
},
{
anchors = (
{
name = bottom;
pos = (365,10);
},
{
name = top;
pos = (324,540);
}
);
hints = (
{
horizontal = 1;
origin = (0,33);
target = (1,9);
type = Stem;
},
{
horizontal = 1;
origin = (1,6);
target = (0,27);
type = Stem;
},
{
horizontal = 1;
origin = (0,16);
target = (0,23);
type = Stem;
},
{
horizontal = 1;
origin = (0,7);
target = (0,9);
type = Stem;
},
{
origin = (0,30);
target = (1,2);
type = Stem;
},
{
origin = (0,3);
target = (0,12);
type = Stem;
}
);
layerId = "B51EB05F-9FBB-4087-814F-400611B2D4B0";
shapes = (
{
closed = 1;
nodes = (
(247,-10,o),
(297,20,o),
(336,70,c),
(346,70,l),
(339,30,o),
(374,0,o),
(424,0,cs),
(514,0,l),
(533,110,l),
(517,110,ls),
(497,110,o),
(489,120,o),
(494,150,cs),
(521,300,ls),
(547,449,o),
(483,540,o),
(324,540,cs),
(197,540,o),
(107,485,o),
(68,375,c),
(213,375,l),
(226,405,o),
(252,430,o),
(305,430,cs),
(385,430,o),
(403,395,o),
(388,310,c),
(263,310,ls),
(103,310,o),
(26,240,o),
(10,150,cs),
(-6,60,o),
(37,-10,o),
(167,-10,cs)
);
},
{
closed = 1;
nodes = (
(166,100,o),
(146,125,o),
(151,155,cs),
(156,185,o),
(178,220,o),
(258,220,cs),
(373,220,l),
(362,160,o),
(331,100,o),
(206,100,cs)
);
}
);
width = 581;
}
);
subCategory = Lowercase;
unicode = 97;
},
{
glyphname = aogonek;
kernLeft = a;
kernRight = a;
lastChange = "2026-01-31 11:22:52 +0000";
layers = (
{
anchors = (
{
name = top;
pos = (313,530);
}
);
hints = (
{
horizontal = 1;
origin = (0,3);
target = (0,5);
type = Stem;
},
{
horizontal = 1;
origin = (0,23);
target = (1,5);
type = Stem;
},
{
horizontal = 1;
origin = (0,12);
target = (0,19);
type = Stem;
},
{
horizontal = 1;
origin = (1,9);
target = (0,29);
type = Stem;
},
{
origin = (0,26);
target = (1,2);
type = Stem;
},
{
origin = (0,33);
target = (0,7);
type = Stem;
},
{
horizontal = 1;
place = (-263,-7);
type = Stem;
},
{
place = (293,8);
type = Stem;
}
);
layerId = "05246BF3-0764-4143-87C4-5D2B296D3790";
shapes = (
{
closed = 1;
nodes = (
(439,-111,l),
(327,-133,o),
(353,-67,o),
(475,0,c),
(489,80,l),
(473,80,ls),
(453,80,o),
(445,90,o),
(450,120,cs),
(482,300,ls),
(508,450,o),
(472,530,o),
(313,530,cs),
(206,530,o),
(122,475,o),
(86,385,c),
(181,385,l),
(198,425,o),
(246,450,o),
(299,450,cs),
(409,450,o),
(415,400,o),
(398,300,c),
(253,300,ls),
(103,300,o),
(35,230,o),
(21,150,cs),
(7,70,o),
(48,-10,o),
(158,-10,cs),
(248,-10,o),
(310,30,o),
(351,90,c),
(361,90,l),
(353,49,o),
(366,25,o),
(389,12,c),
(230,-68,o),
(253,-214,o),
(427,-181,c)
);
},
{
closed = 1;
nodes = (
(142,70,o),
(102,100,o),
(111,150,cs),
(120,200,o),
(160,230,o),
(250,230,cs),
(385,230,l),
(366,120,o),
(292,70,o),
(192,70,cs)
);
}
);
width = 551;
},
{
anchors = (
{
name = top;
pos = (323,540);
}
);
hints = (
{
horizontal = 1;
origin = (0,3);
target = (0,5);
type = Stem;
},
{
horizontal = 1;
origin = (1,5);
target = (0,23);
type = Stem;
},
{
horizontal = 1;
origin = (0,12);
target = (0,19);
type = Stem;
},
{
horizontal = 1;
origin = (0,29);
target = (1,9);
type = Stem;
},
{
horizontal = 1;
origin = (0,12);
target = (0,15);
type = Stem;
},
{
origin = (0,33);
target = (0,7);
type = Stem;
},
{
origin = (0,26);
target = (1,2);
type = Stem;
},
{
horizontal = 1;
place = (-188,88);
type = Stem;
},
{
place = (359,146);
type = Stem;
}
);
layerId = "B51EB05F-9FBB-4087-814F-400611B2D4B0";
shapes = (
{
closed = 1;
nodes = (
(489,-95,l),
(377,-117,o),
(391,-67,o),
(513,0,c),
(532,110,l),
(516,110,ls),
(496,110,o),
(488,120,o),
(494,150,cs),
(520,300,ls),
(546,449,o),
(482,540,o),
(323,540,cs),
(196,540,o),
(105,475,o),
(65,365,c),
(210,365,l),
(224,395,o),
(250,427,o),
(304,430,cs),
(385,434,o),
(403,395,o),
(388,310,c),
(263,310,ls),
(103,310,o),
(25,240,o),
(10,150,cs),
(-6,60,o),
(36,-10,o),
(166,-10,cs),
(246,-10,o),
(297,20,o),
(335,70,c),
(345,70,l),
(341,47,o),
(351,27,o),
(371,14,c),
(199,-72,o),
(251,-223,o),
(474,-180,c)
);
},
{
closed = 1;
nodes = (
(166,100,o),
(145,125,o),
(150,155,cs),
(156,185,o),
(177,220,o),
(257,220,cs),
(372,220,l),
(361,160,o),
(331,100,o),
(206,100,cs)
);
}
);
width = 580;
}
);
subCategory = Lowercase;
unicode = 261;
},
{
glyphname = ae;
kernLeft = a;
kernRight = e;
lastChange = "2026-01-31 11:23:13 +0000";
layers = (
{
anchors = (
{
name = bottom;
pos = (403,0);
},
{
name = top;
pos = (494,520);
}
);
hints = (
{
horizontal = 1;
origin = (0,46);
target = (1,9);
type = Stem;
},
{
horizontal = 1;
origin = (1,6);
target = (2,6);
type = Stem;
},
{
horizontal = 1;
origin = (0,29);
target = (2,2);
type = Stem;
},
{
origin = (0,43);
target = (1,2);
type = Stem;
},
{
origin = (1,6);
target = (2,6);
type = Stem;
},
{
origin = (2,5);
target = (0,20);
type = Stem;
},
{
origin = (1,6);
target = (0,16);
type = Stem;
}
);
layerId = "05246BF3-0764-4143-87C4-5D2B296D3790";
shapes = (
{
closed = 1;
nodes = (
(248,-10,o),
(355,30,o),
(396,90,c),
(406,90,l),
(436,27,o),
(496,-10,o),
(583,-10,cs),
(686,-10,o),
(761,51,o),
(813,135,c),
(717,135,l),
(683,94,o),
(657,70,o),
(597,70,cs),
(498,70,o),
(469,142,o),
(476,230,c),
(849,230,l),
(852,242,o),
(853,248,o),
(856,260,cs),
(884,420,o),
(828,530,o),
(678,530,cs),
(598,530,o),
(531,500,o),
(479,446,c),
(459,502,o),
(408,530,o),
(313,530,cs),
(206,530,o),
(122,475,o),
(86,385,c),
(181,385,l),
(198,425,o),
(246,450,o),
(299,450,cs),
(409,450,o),
(414,390,o),
(398,300,c),
(253,300,ls),
(103,300,o),
(35,230,o),
(21,150,cs),
(7,70,o),
(48,-10,o),
(158,-10,cs)
);
},
{
closed = 1;
nodes = (
(142,70,o),
(102,100,o),
(111,150,cs),
(120,200,o),
(160,230,o),
(250,230,cs),
(385,230,l),
(364,107,o),
(278,70,o),
(192,70,cs)
);
},
{
closed = 1;
nodes = (
(514,384,o),
(569,450,o),
(664,450,cs),
(759,450,o),
(779,382,o),
(771,300,c),
(490,300,l)
);
}
);
width = 901;
},
{
anchors = (
{
name = bottom;
pos = (417,0);
},
{
name = top;
pos = (510,530);
}
);
hints = (
{
horizontal = 1;
origin = (0,46);
target = (1,9);
type = Stem;
},
{
horizontal = 1;
origin = (1,6);
target = (2,6);
type = Stem;
},
{
horizontal = 1;
origin = (0,29);
target = (2,2);
type = Stem;
},
{
origin = (0,43);
target = (1,2);
type = Stem;
},
{
origin = (1,6);
target = (2,6);
type = Stem;
},
{
origin = (2,5);
target = (0,20);
type = Stem;
}
);
layerId = "B51EB05F-9FBB-4087-814F-400611B2D4B0";
shapes = (
{
closed = 1;
nodes = (
(247,-10,o),
(362,20,o),
(401,70,c),
(410,70,l),
(446,19,o),
(509,-10,o),
(592,-10,cs),
(715,-10,o),
(816,61,o),
(857,145,c),
(707,145,l),
(676,114,o),
(661,100,o),
(611,100,cs),
(538,100,o),
(521,155,o),
(525,220,c),
(882,220,l),
(882,220,o),
(888,250,o),
(890,265,cs),
(920,435,o),
(849,540,o),
(689,540,cs),
(613,540,o),
(546,516,o),
(494,473,c),
(462,516,o),
(405,540,o),
(324,540,cs),
(197,540,o),
(106,475,o),
(66,365,c),
(211,365,l),
(226,395,o),
(252,430,o),
(305,430,cs),
(395,430,o),
(401,380,o),
(388,310,c),
(263,310,ls),
(103,310,o),
(26,240,o),
(10,150,cs),
(-6,60,o),
(37,-10,o),
(167,-10,cs)
);
},
{
closed = 1;
nodes = (
(166,100,o),
(146,125,o),
(151,155,cs),
(156,185,o),
(178,220,o),
(258,220,cs),
(373,220,l),
(357,130,o),
(286,100,o),
(206,100,cs)
);
},
{
closed = 1;
nodes = (
(560,375,o),
(597,430,o),
(670,430,cs),
(744,430,o),
(755,379,o),
(747,310,c),
(540,310,l)
);
}
);
width = 925;
}
);
subCategory = Lowercase;
unicode = 230;
},
{
glyphname = b;
kernLeft = I;
kernRight = o;
lastChange = "2026-01-31 11:28:01 +0000";
layers = (
{
anchors = (
{
name = bottom;
pos = (302,-10);
},
{
name = top;
pos = (201,720);
}
);
hints = (
{
horizontal = 1;
origin = (1,11);
target = (0,18);
type = Stem;
},
{
horizontal = 1;
origin = (0,5);
target = (1,5);
type = Stem;
},
{
horizontal = 1;
origin = (0,11);
target = down;
type = TopGhost;
},
{
horizontal = 1;
origin = (0,12);
target = up;
type = BottomGhost;
},
{
origin = (0,12);
target = (0,13);
type = Stem;
},
{
origin = (1,8);
target = (0,2);
type = Stem;
}
);
layerId = "05246BF3-0764-4143-87C4-5D2B296D3790";
shapes = (
{
closed = 1;
nodes = (
(432,-10,o),
(541,100,o),
(570,260,cs),
(598,420,o),
(527,530,o),
(397,530,cs),
(317,530,o),
(245,490,o),
(203,420,c),
(193,420,l),
(246,720,l),
(156,720,l),
(29,0,l),
(119,0,l),
(136,100,l),
(146,100,l),
(164,30,o),
(222,-10,o),
(302,-10,cs)
);
},
{
closed = 1;
nodes = (
(206,70,o),
(147,130,o),
(170,260,cs),
(193,390,o),
(273,450,o),
(363,450,cs),
(453,450,o),
(503,390,o),
(480,260,cs),
(457,130,o),
(386,70,o),
(296,70,cs)
);
}
);
width = 615;
},
{
anchors = (
{
name = bottom;
pos = (336,-10);
},
{
name = top;
pos = (215,720);
}
);
hints = (
{
horizontal = 1;
origin = (0,18);
target = (1,11);
type = Stem;
},
{
horizontal = 1;
origin = (0,5);
target = (1,5);
type = Stem;
},
{
horizontal = 1;
origin = (0,11);
target = down;
type = TopGhost;
},
{
origin = (0,12);
target = (0,13);
type = Stem;
},
{
origin = (1,8);
target = (0,2);
type = Stem;
},
{
horizontal = 1;
origin = (0,12);
target = up;
type = BottomGhost;
}
);
layerId = "B51EB05F-9FBB-4087-814F-400611B2D4B0";
shapes = (
{
closed = 1;
nodes = (
(466,-10,o),
(575,95,o),
(604,265,cs),
(634,435,o),
(563,540,o),
(423,540,cs),
(343,540,o),
(291,500,o),
(252,450,c),
(242,450,l),
(290,720,l),
(140,720,l),
(13,0,l),
(163,0,l),
(177,80,l),
(187,80,l),
(208,30,o),
(246,-10,o),
(326,-10,cs)
);
},
{
closed = 1;
nodes = (
(225,100,o),
(197,165,o),
(214,265,cs),
(232,365,o),
(284,430,o),
(364,430,cs),
(444,430,o),
(472,365,o),
(454,265,cs),
(437,165,o),
(385,100,o),
(305,100,cs)
);
}
);
width = 639;
}
);
subCategory = Lowercase;
unicode = 98;
},
{
glyphname = c;
kernLeft = o;
kernRight = c;
lastChange = "2026-01-31 11:28:08 +0000";
layers = (
{
anchors = (
{
name = bottom;
pos = (238,-7);
},
{
name = top;
pos = (332,530);
}
);
hints = (
{
horizontal = 1;
origin = (0,6);
target = (0,25);
type = Stem;
},
{
horizontal = 1;
origin = (0,19);
target = (0,12);
type = Stem;
},
{
origin = (0,22);
target = (0,9);
type = Stem;
}
);
layerId = "05246BF3-0764-4143-87C4-5D2B296D3790";
shapes = (
{
closed = 1;
nodes = (
(347,-10,o),
(438,50,o),
(487,160,c),
(397,160,l),
(366,100,o),
(321,70,o),
(251,70,cs),
(141,70,o),
(117,160,o),
(135,260,cs),
(152,360,o),
(208,450,o),
(318,450,cs),
(388,450,o),
(423,420,o),
(432,360,c),
(522,360,l),
(512,470,o),
(442,530,o),
(332,530,cs),
(182,530,o),
(73,420,o),
(45,260,cs),
(16,100,o),
(87,-10,o),
(237,-10,cs)
);
}
);
width = 550;
},
{
anchors = (
{
name = bottom;
pos = (248,-7);
},
{
name = top;
pos = (344,540);
}
);
hints = (
{
horizontal = 1;
origin = (0,25);
target = (0,6);
type = Stem;
},
{
horizontal = 1;
origin = (0,19);
target = (0,12);
type = Stem;
},
{
origin = (0,22);
target = (0,9);
type = Stem;
}
);
layerId = "B51EB05F-9FBB-4087-814F-400611B2D4B0";
shapes = (
{
closed = 1;
nodes = (
(377,-10,o),
(479,60,o),
(531,180,c),
(381,180,l),
(363,140,o),
(336,100,o),
(266,100,cs),
(176,100,o),
(171,185,o),
(185,265,cs),
(200,345,o),
(235,430,o),
(325,430,cs),
(395,430,o),
(408,390,o),
(410,350,c),
(560,350,l),
(552,470,o),
(474,540,o),
(344,540,cs),
(184,540,o),
(65,435,o),
(35,265,cs),
(6,95,o),
(87,-10,o),
(247,-10,cs)
);
}
);
width = 576;
}
);
subCategory = Lowercase;
unicode = 99;
},
{
glyphname = d;
kernLeft = o;
kernRight = I;
lastChange = "2026-01-31 11:28:32 +0000";
layers = (
{
anchors = (
{
name = bottom;
pos = (207,-10);
},
{
name = center;
pos = (270,260);
},
{
name = top;
pos = (302,530);
},
{
name = topright;
pos = (621,720);
}
);
hints = (
{
horizontal = 1;
origin = (1,11);
target = (0,18);
type = Stem;
},
{
horizontal = 1;
origin = (0,12);
target = (1,5);
type = Stem;
},
{
horizontal = 1;
origin = (0,7);
target = down;
type = TopGhost;
},
{
horizontal = 1;
origin = (0,4);
target = up;
type = BottomGhost;
},
{
origin = (0,15);
target = (1,2);
type = Stem;
},
{
origin = (0,4);
target = (0,5);
type = Stem;
},
{
origin = (1,8);
target = (0,5);
type = Stem;
}
);
layerId = "05246BF3-0764-4143-87C4-5D2B296D3790";
shapes = (
{
closed = 1;
nodes = (
(297,-10,o),
(369,30,o),
(411,100,c),
(421,100,l),
(404,0,l),
(494,0,l),
(621,720,l),
(531,720,l),
(478,420,l),
(468,420,l),
(450,490,o),
(392,530,o),
(312,530,cs),
(182,530,o),
(73,420,o),
(45,260,cs),
(16,100,o),
(87,-10,o),
(217,-10,cs)
);
},
{
closed = 1;
nodes = (
(161,70,o),
(112,130,o),
(135,260,cs),
(158,390,o),
(228,450,o),
(318,450,cs),
(408,450,o),
(468,390,o),
(445,260,cs),
(422,130,o),
(341,70,o),
(251,70,cs)
);
}
);
width = 615;
},
{
anchors = (
{
name = bottom;
pos = (197,-10);
},
{
name = center;
pos = (290,260);
},
{
name = top;
pos = (294,540);
},
{
name = topright;
pos = (661,720);
}
);
hints = (
{
horizontal = 1;
origin = (0,18);
target = (1,11);
type = Stem;
},
{
horizontal = 1;
origin = (0,12);
target = (1,5);
type = Stem;
},
{
horizontal = 1;
origin = (0,7);
target = down;
type = TopGhost;
},
{
horizontal = 1;
origin = (0,4);
target = (1,11);
type = Stem;
},
{
origin = (0,15);
target = (1,2);
type = Stem;
},
{
origin = (0,4);
target = (0,5);
type = Stem;
},
{
origin = (1,8);
target = (0,5);
type = Stem;
}
);
layerId = "B51EB05F-9FBB-4087-814F-400611B2D4B0";
shapes = (
{
closed = 1;
nodes = (
(297,-10,o),
(349,30,o),
(388,80,c),
(398,80,l),
(384,0,l),
(534,0,l),
(661,720,l),
(511,720,l),
(463,450,l),
(453,450,l),
(432,500,o),
(394,540,o),
(314,540,cs),
(174,540,o),
(65,435,o),
(35,265,cs),
(6,95,o),
(77,-10,o),
(217,-10,cs)
);
},
{
closed = 1;
nodes = (
(196,100,o),
(168,165,o),
(185,265,cs),
(203,365,o),
(255,430,o),
(335,430,cs),
(415,430,o),
(443,365,o),
(425,265,cs),
(408,165,o),
(356,100,o),
(276,100,cs)
);
}
);
width = 641;
}
);
subCategory = Lowercase;
unicode = 100;
},
{
glyphname = dcroat;
kernLeft = o;
lastChange = "2026-01-31 11:29:16 +0000";
layers = (
{
hints = (
{
horizontal = 1;
origin = (0,3);
target = (0,2);
type = Stem;
},
{
origin = (0,3);
target = (0,0);
type = Stem;
}
);
layerId = "05246BF3-0764-4143-87C4-5D2B296D3790";
shapes = (
{
closed = 1;
nodes = (
(649,600,l),
(660,660,l),
(390,660,l),
(379,600,l)
);
},
{
ref = d;
}
);
width = 609;
},
{
hints = (
{
horizontal = 1;
origin = (0,3);
target = (0,2);
type = Stem;
},
{
origin = (0,3);
target = (0,0);
type = Stem;
}
);
layerId = "B51EB05F-9FBB-4087-814F-400611B2D4B0";
shapes = (
{
closed = 1;
nodes = (
(692,570,l),
(710,670,l),
(370,670,l),
(352,570,l)
);
},
{
ref = d;
}
);
width = 649;
}
);
subCategory = Lowercase;
unicode = 273;
},
{
glyphname = eth;
kernRight = o;
lastChange = "2026-01-31 11:29:37 +0000";
layers = (
{
hints = (
{
horizontal = 1;
origin = (0,31);
target = (1,11);
type = Stem;
},
{
horizontal = 1;
origin = (1,5);
target = (0,25);
type = Stem;
},
{
horizontal = 1;
origin = (0,10);
target = down;
type = TopGhost;
},
{
origin = (0,28);
target = (1,2);
type = Stem;
},
{
origin = (1,8);
target = (0,2);
type = Stem;
}
);
layerId = "05246BF3-0764-4143-87C4-5D2B296D3790";
shapes = (
{
closed = 1;
nodes = (
(397,-10,o),
(498,80,o),
(537,300,cs),
(566,465,o),
(509,567,o),
(434,631,c),
(517,670,l),
(529,740,l),
(380,670,l),
(297,719,o),
(212,730,o),
(212,730,c),
(198,650,l),
(198,650,o),
(236,646,o),
(285,626,c),
(208,590,l),
(195,520,l),
(349,592,l),
(407,553,o),
(463,488,o),
(471,380,c),
(461,380,l),
(443,450,o),
(385,490,o),
(305,490,cs),
(175,490,o),
(73,390,o),
(46,240,cs),
(20,90,o),
(87,-10,o),
(217,-10,cs)
);
},
{
closed = 1;
nodes = (
(161,70,o),
(118,140,o),
(136,240,cs),
(154,340,o),
(221,410,o),
(311,410,cs),
(391,410,o),
(449,340,o),
(431,240,cs),
(413,140,o),
(331,70,o),
(251,70,cs)
);
}
);
width = 580;
},
{
hints = (
{
horizontal = 1;
origin = (0,31);
target = (1,11);
type = Stem;
},
{
horizontal = 1;
origin = (1,5);
target = (0,25);
type = Stem;
},
{
horizontal = 1;
origin = (0,12);
target = (0,10);
type = Stem;
},
{
origin = (0,28);
target = (1,2);
type = Stem;
},
{
origin = (1,8);
target = (0,2);
type = Stem;
}
);
layerId = "B51EB05F-9FBB-4087-814F-400611B2D4B0";
shapes = (
{
closed = 1;
nodes = (
(407,-10,o),
(518,80,o),
(557,300,cs),
(586,465,o),
(536,568,o),
(466,633,c),
(525,660,l),
(539,740,l),
(406,678,l),
(313,733,o),
(214,740,o),
(214,740,c),
(195,630,l),
(195,630,o),
(225,626,o),
(266,612,c),
(196,580,l),
(182,500,l),
(343,575,l),
(400,539,o),
(453,481,o),
(463,390,c),
(453,390,l),
(435,460,o),
(375,490,o),
(305,490,cs),
(165,490,o),
(54,400,o),
(26,240,cs),
(-2,80,o),
(77,-10,o),
(217,-10,cs)
);
},
{
closed = 1;
nodes = (
(186,100,o),
(160,150,o),
(176,240,cs),
(192,330,o),
(236,380,o),
(306,380,cs),
(366,380,o),
(407,330,o),
(391,240,cs),
(375,150,o),
(316,100,o),
(256,100,cs)
);
}
);
width = 581;
}
);
subCategory = Lowercase;
unicode = 240;
},
{
glyphname = e;
kernLeft = o;
kernRight = o;
lastChange = "2026-01-31 11:23:33 +0000";
layers = (
{
anchors = (
{
name = bottom;
pos = (232,0);
},
{
name = ogonek;
pos = (456,10);
},
{
name = top;
pos = (332,530);
}
);
hints = (
{
horizontal = 1;
origin = (0,6);
target = (0,20);
type = Stem;
},
{
horizontal = 1;
origin = (1,6);
target = (0,9);
type = Stem;
},
{
horizontal = 1;
origin = (0,14);
target = (1,2);
type = Stem;
},
{
origin = (0,17);
target = (0,9);
type = Stem;
},
{
origin = (1,5);
target = (0,11);
type = Stem;
}
);
layerId = "05246BF3-0764-4143-87C4-5D2B296D3790";
shapes = (
{
closed = 1;
nodes = (
(340,-10,o),
(423,41,o),
(477,135,c),
(381,135,l),
(346,89,o),
(311,70,o),
(251,70,cs),
(154,70,o),
(124,139,o),
(130,225,c),
(502,225,l),
(510,260,ls),
(538,420,o),
(482,530,o),
(332,530,cs),
(182,530,o),
(73,420,o),
(45,260,cs),
(16,100,o),
(87,-10,o),
(237,-10,cs)
);
},
{
closed = 1;
nodes = (
(167,381,o),
(221,450,o),
(318,450,cs),
(415,450,o),
(434,381,o),
(425,295,c),
(143,295,l)
);
}
);
width = 555;
},
{
anchors = (
{
name = bottom;
pos = (248,-5);
},
{
name = ogonek;
pos = (478,10);
},
{
name = top;
pos = (344,540);
}
);
hints = (
{
horizontal = 1;
origin = (0,20);
target = (0,6);
type = Stem;
},
{
horizontal = 1;
origin = (0,9);
target = (1,6);
type = Stem;
},
{
horizontal = 1;
origin = (0,14);
target = (1,2);
type = Stem;
},
{
origin = (0,17);
target = (0,9);
type = Stem;
},
{
origin = (1,5);
target = (0,11);
type = Stem;
}
);
layerId = "B51EB05F-9FBB-4087-814F-400611B2D4B0";
shapes = (
{
closed = 1;
nodes = (
(370,-10,o),
(471,61,o),
(512,145,c),
(362,145,l),
(331,114,o),
(316,100,o),
(266,100,cs),
(193,100,o),
(176,155,o),
(180,220,c),
(537,220,l),
(545,265,ls),
(575,435,o),
(504,540,o),
(344,540,cs),
(184,540,o),
(65,435,o),
(35,265,cs),
(6,95,o),
(87,-10,o),
(247,-10,cs)
);
},
{
closed = 1;
nodes = (
(215,375,o),
(252,430,o),
(325,430,cs),
(399,430,o),
(410,379,o),
(402,310,c),
(195,310,l)
);
}
);
width = 580;
}
);
subCategory = Lowercase;
unicode = 101;
},
{
glyphname = eogonek;
kernLeft = o;
kernRight = o;
lastChange = "2026-02-06 15:04:33 +0000";
layers = (
{
anchors = (
{
name = top;
pos = (333,530);
}
);
layerId = "05246BF3-0764-4143-87C4-5D2B296D3790";
shapes = (
{
closed = 1;
nodes = (
(343,-131,l),
(306,-139,o),
(263,-127,o),
(270,-84,cs),
(277,-46,o),
(301,-16,o),
(376,29,c),
(320,41,l),
(237,-7,o),
(194,-56,o),
(186,-104,cs),
(175,-163,o),
(236,-210,o),
(332,-191,c)
);
},
{
ref = e;
}
);
width = 555;
},
{
anchors = (
{
name = top;
pos = (343,540);
}
);
layerId = "B51EB05F-9FBB-4087-814F-400611B2D4B0";
shapes = (
{
closed = 1;
nodes = (
(387,-106,l),
(349,-111,o),
(306,-113,o),
(316,-61,cs),
(322,-24,o),
(373,7,o),
(437,55,c),
(337,55,l),
(272,23,o),
(170,-37,o),
(170,-120,cs),
(170,-205,o),
(308,-203,o),
(372,-191,c)
);
},
{
ref = e;
}
);
width = 580;
}
);
subCategory = Lowercase;
unicode = 281;
},
{
glyphname = schwa;
lastChange = "2026-01-31 11:29:49 +0000";
layers = (
{
layerId = "05246BF3-0764-4143-87C4-5D2B296D3790";
shapes = (
{
closed = 1;
nodes = (
(214,530,o),
(131,479,o),
(78,385,c),
(174,385,l),
(208,431,o),
(243,450,o),
(303,450,cs),
(400,450,o),
(430,381,o),
(424,295,c),
(52,295,l),
(45,260,ls),
(16,100,o),
(72,-10,o),
(222,-10,cs),
(372,-10,o),
(481,100,o),
(510,260,cs),
(538,420,o),
(467,530,o),
(317,530,cs)
);
},
{
closed = 1;
nodes = (
(387,139,o),
(333,70,o),
(236,70,cs),
(139,70,o),
(120,139,o),
(129,225,c),
(411,225,l)
);
}
);
width = 555;
},
{
layerId = "B51EB05F-9FBB-4087-814F-400611B2D4B0";
shapes = (
{
closed = 1;
nodes = (
(211,540,o),
(110,469,o),
(69,385,c),
(219,385,l),
(250,416,o),
(265,430,o),
(315,430,cs),
(388,430,o),
(405,375,o),
(401,310,c),
(44,310,l),
(35,265,ls),
(6,95,o),
(77,-10,o),
(237,-10,cs),
(397,-10,o),
(516,95,o),
(545,265,cs),
(575,435,o),
(494,540,o),
(334,540,cs)
);
},
{
closed = 1;
nodes = (
(366,155,o),
(329,100,o),
(256,100,cs),
(182,100,o),
(171,151,o),
(179,220,c),
(386,220,l)
);
}
);
width = 580;
}
);
subCategory = Lowercase;
unicode = 601;
},
{
glyphname = f;
kernLeft = f;
kernRight = f;
lastChange = "2026-01-31 11:30:12 +0000";
layers = (
{
anchors = (
{
name = bottom;
pos = (104,0);
},
{
name = top;
pos = (236,720);
}
);
hints = (
{
horizontal = 1;
origin = (0,19);
target = up;
type = BottomGhost;
},
{
horizontal = 1;
origin = (0,16);
target = (0,17);
type = Stem;
},
{
horizontal = 1;
origin = (0,11);
target = (0,8);
type = Stem;
},
{
origin = (0,19);
target = (0,0);
type = Stem;
}
);
layerId = "05246BF3-0764-4143-87C4-5D2B296D3790";
shapes = (
{
closed = 1;
nodes = (
(149,0,l),
(227,440,l),
(352,440,l),
(366,520,l),
(241,520,l),
(255,600,ls),
(260,630,o),
(282,640,o),
(302,640,cs),
(387,640,l),
(401,720,l),
(286,720,ls),
(236,720,o),
(179,680,o),
(167,610,cs),
(151,520,l),
(76,520,l),
(62,440,l),
(137,440,l),
(59,0,l)
);
}
);
width = 340;
},
{
anchors = (
{
name = bottom;
pos = (129,0);
},
{
name = top;
pos = (267,720);
}
);
hints = (
{
horizontal = 1;
origin = (0,19);
target = up;
type = BottomGhost;
},
{
horizontal = 1;
origin = (0,16);
target = (0,17);
type = Stem;
},
{
horizontal = 1;
origin = (0,11);
target = (0,8);
type = Stem;
},
{
origin = (0,19);
target = (0,0);
type = Stem;
}
);
layerId = "B51EB05F-9FBB-4087-814F-400611B2D4B0";
shapes = (
{
closed = 1;
nodes = (
(204,0,l),
(278,420,l),
(408,420,l),
(427,530,l),
(297,530,l),
(305,570,ls),
(310,600,o),
(322,610,o),
(352,610,cs),
(442,610,l),
(461,720,l),
(331,720,ls),
(251,720,o),
(172,670,o),
(156,580,cs),
(147,530,l),
(67,530,l),
(48,420,l),
(128,420,l),
(54,0,l)
);
}
);
width = 401;
}
);
subCategory = Lowercase;
unicode = 102;
},
{
glyphname = g;
kernLeft = g;
kernRight = g;
lastChange = "2026-01-31 11:30:18 +0000";
layers = (
{
anchors = (
{
name = bottom;
pos = (222,-210);
},
{
name = top;
pos = (332,530);
}
);
hints = (
{
horizontal = 1;
origin = (0,23);
target = (0,30);
type = Stem;
},
{
horizontal = 1;
origin = (1,11);
target = (0,15);
type = Stem;
},
{
horizontal = 1;
origin = (0,9);
target = (1,5);
type = Stem;
},
{
horizontal = 1;
origin = (0,4);
target = down;
type = TopGhost;
},
{
origin = (0,12);
target = (1,2);
type = Stem;
},
{
origin = (0,20);
target = (0,2);
type = Stem;
},
{
origin = (1,8);
target = (0,2);
type = Stem;
}
);
layerId = "05246BF3-0764-4143-87C4-5D2B296D3790";
shapes = (
{
closed = 1;
nodes = (
(363,-220,o),
(469,-143,o),
(494,0,cs),
(585,520,l),
(495,520,l),
(478,420,l),
(468,420,l),
(450,490,o),
(392,530,o),
(312,530,cs),
(172,530,o),
(75,430,o),
(45,260,cs),
(15,90,o),
(77,-10,o),
(217,-10,cs),
(297,-10,o),
(369,30,o),
(411,100,c),
(421,100,l),
(404,0,ls),
(387,-94,o),
(326,-140,o),
(234,-140,cs),
(168,-140,o),
(123,-110,o),
(110,-70,c),
(15,-70,l),
(30,-160,o),
(100,-220,o),
(220,-220,cs)
);
},
{
closed = 1;
nodes = (
(161,70,o),
(112,130,o),
(135,260,cs),
(158,390,o),
(228,450,o),
(318,450,cs),
(408,450,o),
(468,390,o),
(445,260,cs),
(422,130,o),
(341,70,o),
(251,70,cs)
);
}
);
width = 615;
},
{
anchors = (
{
name = bottom;
pos = (221,-210);
},
{
name = top;
pos = (348,540);
}
);
hints = (
{
horizontal = 1;
origin = (0,23);
target = (0,30);
type = Stem;
},
{
horizontal = 1;
origin = (1,11);
target = (0,15);
type = Stem;
},
{
horizontal = 1;
origin = (0,9);
target = (1,5);
type = Stem;
},
{
horizontal = 1;
origin = (0,4);
target = (1,5);
type = Stem;
},
{
origin = (0,12);
target = (1,2);
type = Stem;
},
{
origin = (0,20);
target = (0,2);
type = Stem;
},
{
origin = (1,8);
target = (0,2);
type = Stem;
}
);
layerId = "B51EB05F-9FBB-4087-814F-400611B2D4B0";
shapes = (
{
closed = 1;
nodes = (
(359,-220,o),
(511,-153,o),
(538,0,cs),
(631,530,l),
(481,530,l),
(467,450,l),
(457,450,l),
(436,500,o),
(398,540,o),
(318,540,cs),
(178,540,o),
(69,435,o),
(40,265,cs),
(10,95,o),
(81,-10,o),
(221,-10,cs),
(301,-10,o),
(353,30,o),
(392,80,c),
(402,80,l),
(388,0,ls),
(375,-74,o),
(320,-110,o),
(238,-110,cs),
(192,-110,o),
(171,-89,o),
(148,-50,c),
(-7,-50,l),
(5,-131,o),
(79,-220,o),
(219,-220,cs)
);
},
{
closed = 1;
nodes = (
(200,100,o),
(172,165,o),
(190,265,cs),
(207,365,o),
(259,430,o),
(339,430,cs),
(419,430,o),
(447,365,o),
(430,265,cs),
(412,165,o),
(360,100,o),
(280,100,cs)
);
}
);
width = 645;
}
);
subCategory = Lowercase;
unicode = 103;
},
{
glyphname = gstroke;
lastChange = "2026-01-31 13:48:22 +0000";
layers = (
{
layerId = "05246BF3-0764-4143-87C4-5D2B296D3790";
shapes = (
{
closed = 1;
nodes = (
(600,255,l),
(611,315,l),
(311,315,l),
(300,255,l)
);
},
{
ref = g;
}
);
width = 616;
},
{
layerId = "B51EB05F-9FBB-4087-814F-400611B2D4B0";
shapes = (
{
closed = 1;
nodes = (
(640,245,l),
(654,325,l),
(334,325,l),
(320,245,l)
);
},
{
ref = g;
}
);
width = 649;
}
);
subCategory = Lowercase;
unicode = 485;
},
{
glyphname = h;
kernLeft = I;
kernRight = n;
lastChange = "2026-01-31 13:48:56 +0000";
layers = (
{
anchors = (
{
name = bottom;
pos = (262,0);
},
{
name = center;
pos = (331,390);
},
{
name = top;
pos = (201,720);
}
);
hints = (
{
horizontal = 1;
origin = (0,20);
target = up;
type = BottomGhost;
},
{
horizontal = 1;
origin = (0,13);
target = (0,4);
type = Stem;
},
{
horizontal = 1;
origin = (0,19);
target = down;
type = TopGhost;
},
{
origin = (0,20);
target = (0,0);
type = Stem;
},
{
origin = (0,8);
target = (0,9);
type = Stem;
}
);
layerId = "05246BF3-0764-4143-87C4-5D2B296D3790";
shapes = (
{
closed = 1;
nodes = (
(119,0,l),
(168,280,ls),
(188,390,o),
(263,450,o),
(333,450,cs),
(403,450,o),
(443,420,o),
(427,330,cs),
(369,0,l),
(459,0,l),
(517,330,ls),
(542,470,o),
(477,530,o),
(377,530,cs),
(297,530,o),
(245,490,o),
(203,420,c),
(193,420,l),
(246,720,l),
(156,720,l),
(29,0,l)
);
}
);
width = 570;
},
{
anchors = (
{
name = bottom;
pos = (275,0);
},
{
name = center;
pos = (344,390);
},
{
name = top;
pos = (216,720);
}
);
hints = (
{
horizontal = 1;
origin = (0,20);
target = up;
type = BottomGhost;
},
{
horizontal = 1;
origin = (0,13);
target = (0,4);
type = Stem;
},
{
horizontal = 1;
origin = (0,19);
target = down;
type = TopGhost;
},
{
origin = (0,20);
target = (0,0);
type = Stem;
},
{
origin = (0,8);
target = (0,9);
type = Stem;
}
);
layerId = "B51EB05F-9FBB-4087-814F-400611B2D4B0";
shapes = (
{
closed = 1;
nodes = (
(163,0,l),
(212,280,ls),
(228,370,o),
(274,430,o),
(334,430,cs),
(394,430,o),
(414,400,o),
(401,330,cs),
(343,0,l),
(493,0,l),
(551,330,ls),
(576,470,o),
(513,540,o),
(413,540,cs),
(343,540,o),
(293,510,o),
(252,450,c),
(242,450,l),
(290,720,l),
(140,720,l),
(13,0,l)
);
}
);
width = 590;
}
);
subCategory = Lowercase;
unicode = 104;
},
{
glyphname = hbar;
kernRight = n;
lastChange = "2026-01-31 13:49:03 +0000";
layers = (
{
hints = (
{
horizontal = 1;
origin = (0,28);
target = up;
type = BottomGhost;
},
{
horizontal = 1;
origin = (0,13);
target = (0,4);
type = Stem;
},
{
horizontal = 1;
origin = (0,23);
target = (0,26);
type = Stem;
},
{
horizontal = 1;
origin = (0,26);
target = (0,25);
type = Stem;
},
{
origin = (0,28);
target = (0,0);
type = Stem;
},
{
origin = (0,8);
target = (0,9);
type = Stem;
}
);
layerId = "05246BF3-0764-4143-87C4-5D2B296D3790";
shapes = (
{
closed = 1;
nodes = (
(119,0,l),
(168,280,ls),
(188,390,o),
(263,450,o),
(333,450,cs),
(403,450,o),
(443,420,o),
(427,330,cs),
(369,0,l),
(459,0,l),
(517,330,ls),
(542,470,o),
(477,530,o),
(377,530,cs),
(297,530,o),
(245,490,o),
(203,420,c),
(193,420,l),
(225,601,l),
(355,601,l),
(367,671,l),
(237,671,l),
(246,720,l),
(156,720,l),
(147,671,l),
(97,671,l),
(85,601,l),
(135,601,l),
(29,0,l)
);
}
);
width = 570;
},
{
hints = (
{
horizontal = 1;
origin = (0,28);
target = up;
type = BottomGhost;
},
{
horizontal = 1;
origin = (0,13);
target = (0,4);
type = Stem;
},
{
horizontal = 1;
origin = (0,23);
target = (0,26);
type = Stem;
},
{
horizontal = 1;
origin = (0,26);
target = (0,25);
type = Stem;
},
{
origin = (0,28);
target = (0,0);
type = Stem;
},
{
origin = (0,8);
target = (0,9);
type = Stem;
}
);
layerId = "B51EB05F-9FBB-4087-814F-400611B2D4B0";
shapes = (
{
closed = 1;
nodes = (
(164,0,l),
(213,280,ls),
(229,370,o),
(275,430,o),
(335,430,cs),
(395,430,o),
(415,400,o),
(402,330,cs),
(344,0,l),
(494,0,l),
(552,330,ls),
(577,470,o),
(514,540,o),
(414,540,cs),
(344,540,o),
(294,510,o),
(253,450,c),
(243,450,l),
(266,581,l),
(401,581,l),
(417,671,l),
(282,671,l),
(291,720,l),
(141,720,l),
(132,671,l),
(77,671,l),
(61,581,l),
(116,581,l),
(14,0,l)
);
}
);
width = 591;
}
);
subCategory = Lowercase;
unicode = 295;
},
{
glyphname = i;
kernLeft = i;
kernRight = i;
lastChange = "2026-01-31 13:49:16 +0000";
layers = (
{
anchors = (
{
name = bottom;
pos = (74,0);
}
);
hints = (
{
horizontal = 1;
origin = (0,3);
target = up;
type = BottomGhost;
},
{
horizontal = 1;
origin = (0,2);
target = down;
type = TopGhost;
},
{
horizontal = 1;
origin = (1,5);
target = (1,11);
type = Stem;
},
{
origin = (1,8);
target = (1,2);
type = Stem;
},
{
origin = (0,3);
target = (0,0);
type = Stem;
}
);
layerId = "05246BF3-0764-4143-87C4-5D2B296D3790";
shapes = (
{
closed = 1;
nodes = (
(119,0,l),
(211,520,l),
(121,520,l),
(29,0,l)
);
},
{
closed = 1;
nodes = (
(214,620,o),
(243,644,o),
(248,675,cs),
(253,706,o),
(234,730,o),
(203,730,cs),
(172,730,o),
(143,706,o),
(138,675,cs),
(133,644,o),
(152,620,o),
(183,620,cs)
);
}
);
width = 240;
},
{
anchors = (
{
name = bottom;
pos = (94,0);
}
);
hints = (
{
horizontal = 1;
origin = (0,3);
target = up;
type = BottomGhost;
},
{
horizontal = 1;
origin = (0,2);
target = down;
type = TopGhost;
},
{
horizontal = 1;
origin = (1,11);
target = (1,5);
type = Stem;
},
{
origin = (1,8);
target = (1,2);
type = Stem;
},
{
origin = (0,3);
target = (0,0);
type = Stem;
}
);
layerId = "B51EB05F-9FBB-4087-814F-400611B2D4B0";
shapes = (
{
closed = 1;
nodes = (
(169,0,l),
(262,530,l),
(112,530,l),
(19,0,l)
);
},
{
closed = 1;
nodes = (
(244,580,o),
(288,617,o),
(296,665,cs),
(305,713,o),
(274,750,o),
(226,750,cs),
(178,750,o),
(135,713,o),
(126,665,cs),
(118,617,o),
(148,580,o),
(196,580,cs)
);
}
);
width = 280;
}
);
subCategory = Lowercase;
unicode = 105;
},
{
glyphname = idotless;
kernLeft = i;
kernRight = i;
lastChange = "2026-01-31 13:49:22 +0000";
layers = (
{
anchors = (
{
name = bottom;
pos = (64,0);
},
{
name = ogonek;
pos = (109,0);
},
{
name = top;
pos = (156,520);
}
);
hints = (
{
horizontal = 1;
origin = (0,3);
target = up;
type = BottomGhost;
},
{
horizontal = 1;
origin = (0,2);
target = down;
type = TopGhost;
},
{
origin = (0,3);
target = (0,0);
type = Stem;
}
);
layerId = "05246BF3-0764-4143-87C4-5D2B296D3790";
shapes = (
{
closed = 1;
nodes = (
(109,0,l),
(201,520,l),
(111,520,l),
(19,0,l)
);
}
);
width = 220;
},
{
anchors = (
{
name = bottom;
pos = (84,0);
},
{
name = ogonek;
pos = (159,0);
},
{
name = top;
pos = (177,530);
}
);
hints = (
{
horizontal = 1;
origin = (0,3);
target = up;
type = BottomGhost;
},
{
horizontal = 1;
origin = (0,2);
target = down;
type = TopGhost;
},
{
origin = (0,3);
target = (0,0);
type = Stem;
}
);
layerId = "B51EB05F-9FBB-4087-814F-400611B2D4B0";
shapes = (
{
closed = 1;
nodes = (
(159,0,l),
(252,530,l),
(102,530,l),
(9,0,l)
);
}
);
width = 261;
}
);
subCategory = Lowercase;
unicode = 305;
},
{
glyphname = iogonek;
lastChange = "2026-01-31 13:50:05 +0000";
layers = (
{
anchors = (
{
name = top;
pos = (214,730);
}
);
hints = (
{
horizontal = 1;
origin = (0,6);
target = up;
type = BottomGhost;
},
{
horizontal = 1;
origin = (0,5);
target = down;
type = TopGhost;
},
{
origin = (0,6);
target = (0,3);
type = Stem;
},
{
horizontal = 1;
place = (-275,-9);
type = Stem;
},
{
place = (-45,6);
type = Stem;
},
{
horizontal = 1;
origin = (1,5);
target = (1,11);
type = Stem;
},
{
origin = (1,8);
target = (1,2);
type = Stem;
}
);
layerId = "05246BF3-0764-4143-87C4-5D2B296D3790";
shapes = (
{
closed = 1;
nodes = (
(93,-121,l),
(-19,-143,o),
(9,-67,o),
(131,0,c),
(222,520,l),
(132,520,l),
(41,0,l),
(-122,-80,o),
(-93,-224,o),
(81,-191,c)
);
},
{
closed = 1;
nodes = (
(225,630,o),
(250,652,o),
(255,680,cs),
(260,708,o),
(242,730,o),
(214,730,cs),
(186,730,o),
(160,708,o),
(155,680,cs),
(150,652,o),
(169,630,o),
(197,630,cs)
);
}
);
width = 246;
},
{
anchors = (
{
name = top;
pos = (221,770);
}
);
hints = (
{
horizontal = 1;
origin = (0,6);
target = up;
type = BottomGhost;
},
{
horizontal = 1;
origin = (0,5);
target = down;
type = TopGhost;
},
{
origin = (0,6);
target = (0,3);
type = Stem;
},
{
horizontal = 1;
origin = (1,11);
target = (1,5);
type = Stem;
},
{
origin = (1,8);
target = (1,2);
type = Stem;
},
{
horizontal = 1;
place = (-198,88);
type = Stem;
},
{
place = (10,146);
type = Stem;
}
);
layerId = "B51EB05F-9FBB-4087-814F-400611B2D4B0";
shapes = (
{
closed = 1;
nodes = (
(135,-105,l),
(23,-127,o),
(38,-67,o),
(160,0,c),
(253,530,l),
(103,530,l),
(10,0,l),
(-164,-86,o),
(-103,-233,o),
(120,-190,c)
);
},
{
closed = 1;
nodes = (
(239,600,o),
(282,637,o),
(291,685,cs),
(299,733,o),
(269,770,o),
(221,770,cs),
(173,770,o),
(129,733,o),
(121,685,cs),
(112,637,o),
(143,600,o),
(191,600,cs)
);
}
);
width = 267;
}
);
subCategory = Lowercase;
unicode = 303;
},
{
glyphname = j;
kernLeft = j;
kernRight = j;
lastChange = "2026-01-31 13:50:30 +0000";
layers = (
{
hints = (
{
horizontal = 1;
origin = (0,10);
target = (0,11);
type = Stem;
},
{
horizontal = 1;
origin = (0,5);
target = down;
type = TopGhost;
},
{
horizontal = 1;
origin = (1,5);
target = (1,11);
type = Stem;
},
{
origin = (0,0);
target = (0,4);
type = Stem;
},
{
origin = (0,6);
target = (0,3);
type = Stem;
}
);
layerId = "05246BF3-0764-4143-87C4-5D2B296D3790";
shapes = (
{
closed = 1;
nodes = (
(-5,-220,ls),
(45,-220,o),
(102,-180,o),
(114,-110,cs),
(225,520,l),
(135,520,l),
(26,-100,ls),
(21,-130,o),
(-1,-140,o),
(-21,-140,cs),
(-81,-140,l),
(-95,-220,l)
);
},
{
closed = 1;
nodes = (
(229,620,o),
(257,644,o),
(263,675,cs),
(268,706,o),
(249,730,o),
(218,730,cs),
(187,730,o),
(158,706,o),
(153,675,cs),
(147,644,o),
(167,620,o),
(198,620,cs)
);
}
);
width = 255;
},
{
hints = (
{
horizontal = 1;
origin = (0,10);
target = (0,11);
type = Stem;
},
{
horizontal = 1;
origin = (0,5);
target = down;
type = TopGhost;
},
{
horizontal = 1;
origin = (1,11);
target = (1,5);
type = Stem;
},
{
origin = (1,8);
target = (1,2);
type = Stem;
},
{
origin = (0,0);
target = (0,3);
type = Stem;
}
);
layerId = "B51EB05F-9FBB-4087-814F-400611B2D4B0";
shapes = (
{
closed = 1;
nodes = (
(5,-220,ls),
(85,-220,o),
(164,-170,o),
(180,-80,cs),
(287,530,l),
(137,530,l),
(31,-70,ls),
(26,-100,o),
(4,-110,o),
(-16,-110,cs),
(-86,-110,l),
(-105,-220,l)
);
},
{
closed = 1;
nodes = (
(269,580,o),
(313,617,o),
(321,665,cs),
(330,713,o),
(299,750,o),
(251,750,cs),
(203,750,o),
(160,713,o),
(151,665,cs),
(143,617,o),
(173,580,o),
(221,580,cs)
);
}
);
width = 305;
}
);
subCategory = Lowercase;
unicode = 106;
},
{
glyphname = jdotless;
lastChange = "2026-01-31 13:50:58 +0000";
layers = (
{
anchors = (
{
name = bottom;
pos = (34,-240);
},
{
name = top;
pos = (180,520);
}
);
hints = (
{
horizontal = 1;
origin = (0,11);
target = (0,10);
type = Stem;
},
{
horizontal = 1;
origin = (0,5);
target = down;
type = TopGhost;
},
{
origin = (0,6);
target = (0,3);
type = Stem;
}
);
layerId = "05246BF3-0764-4143-87C4-5D2B296D3790";
shapes = (
{
closed = 1;
nodes = (
(-5,-220,ls),
(45,-220,o),
(102,-180,o),
(114,-110,cs),
(225,520,l),
(135,520,l),
(26,-100,ls),
(21,-130,o),
(-1,-140,o),
(-21,-140,cs),
(-81,-140,l),
(-95,-220,l)
);
}
);
width = 244;
},
{
anchors = (
{
name = bottom;
pos = (59,-240);
},
{
name = top;
pos = (212,530);
}
);
hints = (
{
horizontal = 1;
origin = (0,11);
target = (0,10);
type = Stem;
},
{
horizontal = 1;
origin = (0,5);
target = down;
type = TopGhost;
},
{
origin = (0,0);
target = (0,3);
type = Stem;
}
);
layerId = "B51EB05F-9FBB-4087-814F-400611B2D4B0";
shapes = (
{
closed = 1;
nodes = (
(5,-220,ls),
(85,-220,o),
(164,-170,o),
(180,-80,cs),
(287,530,l),
(137,530,l),
(31,-70,ls),
(26,-100,o),
(4,-110,o),
(-16,-110,cs),
(-86,-110,l),
(-105,-220,l)
);
}
);
width = 296;
}
);
subCategory = Lowercase;
unicode = 567;
},
{
glyphname = k;
kernLeft = I;
kernRight = k;
lastChange = "2026-01-31 13:51:26 +0000";
layers = (
{
anchors = (
{
name = bottom;
pos = (239,0);
},
{
name = top;
pos = (201,720);
}
);
hints = (
{
horizontal = 1;
origin = (0,12);
target = up;
type = BottomGhost;
},
{
horizontal = 1;
origin = (0,7);
target = down;
type = TopGhost;
},
{
horizontal = 1;
origin = (0,11);
target = down;
type = TopGhost;
},
{
origin = (0,12);
target = (0,0);
type = Stem;
}
);
layerId = "05246BF3-0764-4143-87C4-5D2B296D3790";
shapes = (
{
closed = 1;
nodes = (
(119,0,l),
(149,170,l),
(223,241,l),
(364,0,l),
(459,0,l),
(286,301,l),
(516,520,l),
(416,520,l),
(180,290,l),
(170,290,l),
(246,720,l),
(156,720,l),
(29,0,l)
);
}
);
width = 515;
},
{
anchors = (
{
name = bottom;
pos = (248,0);
},
{
name = top;
pos = (215,720);
}
);
hints = (
{
horizontal = 1;
origin = (0,12);
target = up;
type = BottomGhost;
},
{
horizontal = 1;
origin = (0,7);
target = down;
type = TopGhost;
},
{
horizontal = 1;
origin = (0,11);
target = down;
type = TopGhost;
},
{
origin = (0,12);
target = (0,0);
type = Stem;
}
);
layerId = "B51EB05F-9FBB-4087-814F-400611B2D4B0";
shapes = (
{
closed = 1;
nodes = (
(163,0,l),
(189,145,l),
(250,205,l),
(368,0,l),
(528,0,l),
(352,305,l),
(581,530,l),
(421,530,l),
(233,340,l),
(223,340,l),
(290,720,l),
(140,720,l),
(13,0,l)
);
}
);
width = 585;
}
);
subCategory = Lowercase;
unicode = 107;
},
{
glyphname = l;
kernLeft = I;
kernRight = l;
lastChange = "2026-01-31 13:52:15 +0000";
layers = (
{
anchors = (
{
name = bottom;
pos = (113,0);
},
{
name = center;
pos = (305,397);
},
{
name = top;
pos = (202,720);
}
);
hints = (
{
horizontal = 1;
origin = (0,11);
target = (0,2);
type = Stem;
},
{
origin = (0,8);
target = (0,5);
type = Stem;
}
);
layerId = "05246BF3-0764-4143-87C4-5D2B296D3790";
shapes = (
{
closed = 1;
nodes = (
(195,0,l),
(209,80,l),
(174,80,ls),
(154,80,o),
(136,90,o),
(141,120,cs),
(247,720,l),
(157,720,l),
(49,110,ls),
(37,40,o),
(80,0,o),
(130,0,cs)
);
}
);
width = 271;
},
{
anchors = (
{
name = bottom;
pos = (121,0);
},
{
name = center;
pos = (350,411);
},
{
name = top;
pos = (215,720);
}
);
hints = (
{
horizontal = 1;
origin = (0,11);
target = (0,2);
type = Stem;
},
{
origin = (0,8);
target = (0,11);
type = Stem;
}
);
layerId = "B51EB05F-9FBB-4087-814F-400611B2D4B0";
shapes = (
{
closed = 1;
nodes = (
(258,0,l),
(277,110,l),
(222,110,ls),
(202,110,o),
(184,120,o),
(189,150,cs),
(290,720,l),
(140,720,l),
(38,140,ls),
(22,50,o),
(83,0,o),
(163,0,cs)
);
}
);
width = 325;
}
);
subCategory = Lowercase;
unicode = 108;
},
{
glyphname = lslash;
kernLeft = l;
kernRight = l;
lastChange = "2026-01-31 13:52:51 +0000";
layers = (
{
hints = (
{
horizontal = 1;
origin = (0,3);
target = (0,1);
type = Stem;
},
{
origin = (0,3);
target = (0,0);
type = Stem;
}
);
layerId = "05246BF3-0764-4143-87C4-5D2B296D3790";
shapes = (
{
closed = 1;
nodes = (
(260,397,l),
(272,467,l),
(54,367,l),
(42,297,l)
);
},
{
pos = (17,0);
ref = l;
}
);
width = 293;
},
{
hints = (
{
horizontal = 1;
origin = (0,3);
target = (0,1);
type = Stem;
},
{
origin = (0,3);
target = (0,0);
type = Stem;
}
);
layerId = "B51EB05F-9FBB-4087-814F-400611B2D4B0";
shapes = (
{
closed = 1;
nodes = (
(314,397,l),
(331,497,l),
(37,357,l),
(19,257,l)
);
},
{
pos = (14,0);
ref = l;
}
);
width = 339;
}
);
subCategory = Lowercase;
unicode = 322;
},
{
glyphname = m;
kernLeft = n;
kernRight = n;
lastChange = "2026-01-31 13:53:04 +0000";
layers = (
{
anchors = (
{
name = bottom;
pos = (397,0);
},
{
name = top;
pos = (489,520);
}
);
hints = (
{
horizontal = 1;
origin = (0,36);
target = up;
type = BottomGhost;
},
{
horizontal = 1;
origin = (0,29);
target = (0,4);
type = Stem;
},
{
horizontal = 1;
origin = (0,35);
target = down;
type = TopGhost;
},
{
origin = (0,36);
target = (0,0);
type = Stem;
},
{
origin = (0,8);
target = (0,9);
type = Stem;
},
{
origin = (0,17);
target = (0,18);
type = Stem;
}
);
layerId = "05246BF3-0764-4143-87C4-5D2B296D3790";
shapes = (
{
closed = 1;
nodes = (
(119,0,l),
(168,280,ls),
(188,390,o),
(253,450,o),
(323,450,cs),
(383,450,o),
(421,410,o),
(407,330,cs),
(349,0,l),
(439,0,l),
(488,280,ls),
(508,390,o),
(573,450,o),
(643,450,cs),
(703,450,o),
(741,410,o),
(727,330,cs),
(669,0,l),
(759,0,l),
(817,330,ls),
(842,470,o),
(777,530,o),
(687,530,cs),
(607,530,o),
(553,490,o),
(511,420,c),
(500,420,l),
(488,495,o),
(435,530,o),
(367,530,cs),
(287,530,o),
(245,490,o),
(203,420,c),
(193,420,l),
(211,520,l),
(121,520,l),
(29,0,l)
);
}
);
width = 870;
},
{
anchors = (
{
name = bottom;
pos = (392,0);
},
{
name = top;
pos = (484,520);
}
);
hints = (
{
horizontal = 1;
origin = (0,36);
target = up;
type = BottomGhost;
},
{
horizontal = 1;
origin = (0,29);
target = (0,4);
type = Stem;
},
{
horizontal = 1;
origin = (0,35);
target = (0,4);
type = Stem;
},
{
origin = (0,36);
target = (0,0);
type = Stem;
},
{
origin = (0,8);
target = (0,9);
type = Stem;
},
{
origin = (0,17);
target = (0,18);
type = Stem;
}
);
layerId = "B51EB05F-9FBB-4087-814F-400611B2D4B0";
shapes = (
{
closed = 1;
nodes = (
(164,0,l),
(213,280,ls),
(231,380,o),
(265,430,o),
(325,430,cs),
(375,430,o),
(393,390,o),
(382,330,cs),
(324,0,l),
(474,0,l),
(523,280,ls),
(541,380,o),
(575,430,o),
(635,430,cs),
(685,430,o),
(703,390,o),
(692,330,cs),
(634,0,l),
(784,0,l),
(842,330,ls),
(867,470,o),
(804,540,o),
(704,540,cs),
(634,540,o),
(584,510,o),
(543,450,c),
(531,450,l),
(515,510,o),
(469,540,o),
(404,540,cs),
(334,540,o),
(294,510,o),
(253,450,c),
(243,450,l),
(257,530,l),
(107,530,l),
(14,0,l)
);
}
);
width = 881;
}
);
subCategory = Lowercase;
unicode = 109;
},
{
glyphname = n;
kernLeft = n;
kernRight = n;
lastChange = "2026-01-31 13:53:11 +0000";
layers = (
{
anchors = (
{
name = bottom;
pos = (254,0);
},
{
name = top;
pos = (347,530);
}
);
hints = (
{
horizontal = 1;
origin = (0,20);
target = up;
type = BottomGhost;
},
{
horizontal = 1;
origin = (0,13);
target = (0,4);
type = Stem;
},
{
horizontal = 1;
origin = (0,19);
target = down;
type = TopGhost;
},
{
origin = (0,20);
target = (0,0);
type = Stem;
},
{
origin = (0,8);
target = (0,9);
type = Stem;
}
);
layerId = "05246BF3-0764-4143-87C4-5D2B296D3790";
shapes = (
{
closed = 1;
nodes = (
(119,0,l),
(168,280,ls),
(188,390,o),
(263,450,o),
(333,450,cs),
(403,450,o),
(443,420,o),
(427,330,cs),
(369,0,l),
(459,0,l),
(517,330,ls),
(542,470,o),
(477,530,o),
(377,530,cs),
(297,530,o),
(247,500,o),
(205,430,c),
(195,430,l),
(211,520,l),
(121,520,l),
(29,0,l)
);
}
);
width = 570;
},
{
anchors = (
{
name = bottom;
pos = (259,0);
},
{
name = top;
pos = (354,540);
}
);
hints = (
{
horizontal = 1;
origin = (0,20);
target = up;
type = BottomGhost;
},
{
horizontal = 1;
origin = (0,13);
target = (0,4);
type = Stem;
},
{
horizontal = 1;
origin = (0,19);
target = (0,4);
type = Stem;
},
{
origin = (0,20);
target = (0,0);
type = Stem;
},
{
origin = (0,8);
target = (0,9);
type = Stem;
}
);
layerId = "B51EB05F-9FBB-4087-814F-400611B2D4B0";
shapes = (
{
closed = 1;
nodes = (
(164,0,l),
(213,280,ls),
(229,370,o),
(275,430,o),
(335,430,cs),
(395,430,o),
(415,400,o),
(402,330,cs),
(344,0,l),
(494,0,l),
(552,330,ls),
(577,470,o),
(514,540,o),
(414,540,cs),
(344,540,o),
(294,510,o),
(253,450,c),
(243,450,l),
(257,530,l),
(107,530,l),
(14,0,l)
);
}
);
width = 591;
}
);
subCategory = Lowercase;
unicode = 110;
},
{
glyphname = eng;
kernLeft = n;
kernRight = n;
lastChange = "2026-01-31 13:53:49 +0000";
layers = (
{
anchors = (
{
name = bottom;
pos = (254,0);
},
{
name = top;
pos = (348,530);
}
);
hints = (
{
horizontal = 1;
origin = (0,28);
target = (0,27);
type = Stem;
},
{
origin = (0,23);
target = (0,3);
type = Stem;
},
{
horizontal = 1;
origin = (0,14);
target = up;
type = BottomGhost;
},
{
horizontal = 1;
origin = (0,7);
target = (0,19);
type = Stem;
},
{
horizontal = 1;
origin = (0,13);
target = down;
type = TopGhost;
},
{
origin = (0,14);
target = (0,15);
type = Stem;
},
{
origin = (0,24);
target = (0,4);
type = Stem;
}
);
layerId = "05246BF3-0764-4143-87C4-5D2B296D3790";
shapes = (
{
closed = 1;
nodes = (
(319,-200,ls),
(369,-200,o),
(431,-160,o),
(443,-90,cs),
(517,330,ls),
(542,470,o),
(478,530,o),
(378,530,cs),
(298,530,o),
(247,500,o),
(205,430,c),
(195,430,l),
(211,520,l),
(121,520,l),
(29,0,l),
(119,0,l),
(169,280,ls),
(188,390,o),
(264,450,o),
(334,450,cs),
(404,450,o),
(443,420,o),
(427,330,cs),
(353,-90,ls),
(348,-120,o),
(322,-130,o),
(302,-130,cs),
(246,-130,l),
(234,-200,l)
);
}
);
width = 570;
},
{
anchors = (
{
name = bottom;
pos = (258,0);
},
{
name = top;
pos = (353,540);
}
);
hints = (
{
horizontal = 1;
origin = (0,28);
target = (0,27);
type = Stem;
},
{
origin = (0,23);
target = (0,3);
type = Stem;
},
{
horizontal = 1;
origin = (0,14);
target = up;
type = BottomGhost;
},
{
horizontal = 1;
origin = (0,7);
target = (0,19);
type = Stem;
},
{
horizontal = 1;
origin = (0,13);
target = (0,19);
type = Stem;
},
{
origin = (0,14);
target = (0,15);
type = Stem;
},
{
origin = (0,24);
target = (0,4);
type = Stem;
}
);
layerId = "B51EB05F-9FBB-4087-814F-400611B2D4B0";
shapes = (
{
closed = 1;
nodes = (
(343,-200,ls),
(393,-200,o),
(465,-160,o),
(477,-90,cs),
(551,330,ls),
(576,470,o),
(513,540,o),
(413,540,cs),
(343,540,o),
(293,510,o),
(253,450,c),
(243,450,l),
(257,530,l),
(107,530,l),
(13,0,l),
(163,0,l),
(213,280,ls),
(229,370,o),
(274,430,o),
(334,430,cs),
(394,430,o),
(414,400,o),
(401,330,cs),
(334,-50,ls),
(329,-80,o),
(303,-90,o),
(283,-90,cs),
(217,-90,l),
(198,-200,l)
);
}
);
width = 600;
}
);
subCategory = Lowercase;
unicode = 331;
},
{
glyphname = o;
kernLeft = o;
kernRight = o;
lastChange = "2026-01-31 13:53:56 +0000";
layers = (
{
anchors = (
{
name = bottom;
pos = (239,0);
},
{
name = center;
pos = (285,260);
},
{
name = ogonek;
pos = (473,10);
},
{
name = top;
pos = (330,520);
},
{
name = topright;
pos = (600,520);
}
);
hints = (
{
horizontal = 1;
origin = (1,11);
target = (0,11);
type = Stem;
},
{
horizontal = 1;
origin = (0,5);
target = (1,5);
type = Stem;
},
{
origin = (0,8);
target = (1,2);
type = Stem;
},
{
origin = (1,8);
target = (0,2);
type = Stem;
}
);
layerId = "05246BF3-0764-4143-87C4-5D2B296D3790";
shapes = (
{
closed = 1;
nodes = (
(387,-10,o),
(496,100,o),
(525,260,cs),
(553,420,o),
(482,530,o),
(332,530,cs),
(182,530,o),
(73,420,o),
(45,260,cs),
(16,100,o),
(87,-10,o),
(237,-10,cs)
);
},
{
closed = 1;
nodes = (
(141,70,o),
(117,160,o),
(135,260,cs),
(152,360,o),
(208,450,o),
(318,450,cs),
(428,450,o),
(452,360,o),
(435,260,cs),
(417,160,o),
(361,70,o),
(251,70,cs)
);
}
);
width = 570;
},
{
anchors = (
{
name = bottom;
pos = (249,0);
},
{
name = center;
pos = (297,260);
},
{
name = ogonek;
pos = (485,10);
},
{
name = top;
pos = (344,540);
},
{
name = topright;
pos = (612,520);
}
);
hints = (
{
horizontal = 1;
origin = (0,11);
target = (1,11);
type = Stem;
},
{
horizontal = 1;
origin = (0,5);
target = (1,5);
type = Stem;
},
{
origin = (0,8);
target = (1,2);
type = Stem;
},
{
origin = (1,8);
target = (0,2);
type = Stem;
}
);
layerId = "B51EB05F-9FBB-4087-814F-400611B2D4B0";
shapes = (
{
closed = 1;
nodes = (
(407,-10,o),
(526,95,o),
(555,265,cs),
(585,435,o),
(504,540,o),
(344,540,cs),
(184,540,o),
(65,435,o),
(35,265,cs),
(6,95,o),
(87,-10,o),
(247,-10,cs)
);
},
{
closed = 1;
nodes = (
(176,100,o),
(171,185,o),
(185,265,cs),
(200,345,o),
(235,430,o),
(325,430,cs),
(415,430,o),
(420,345,o),
(405,265,cs),
(391,185,o),
(356,100,o),
(266,100,cs)
);
}
);
width = 590;
}
);
subCategory = Lowercase;
unicode = 111;
},
{
glyphname = oslash;
kernLeft = c;
kernRight = o;
lastChange = "2026-01-31 13:55:47 +0000";
layers = (
{
hints = (
{
horizontal = 1;
origin = (0,3);
target = up;
type = BottomGhost;
},
{
horizontal = 1;
origin = (0,2);
target = down;
type = TopGhost;
}
);
layerId = "05246BF3-0764-4143-87C4-5D2B296D3790";
shapes = (
{
closed = 1;
nodes = (
(52,-10,l),
(597,530,l),
(527,530,l),
(-18,-10,l)
);
},
{
pos = (-11,0);
ref = o;
}
);
width = 579;
},
{
hints = (
{
horizontal = 1;
origin = (0,3);
target = up;
type = BottomGhost;
},
{
horizontal = 1;
origin = (0,2);
target = down;
type = TopGhost;
}
);
layerId = "B51EB05F-9FBB-4087-814F-400611B2D4B0";
shapes = (
{
closed = 1;
nodes = (
(82,-10,l),
(647,530,l),
(537,530,l),
(-28,-10,l)
);
},
{
pos = (13,0);
ref = o;
}
);
width = 620;
}
);
subCategory = Lowercase;
unicode = 248;
},
{
glyphname = oe;
kernLeft = c;
kernRight = e;
lastChange = "2026-01-31 13:54:08 +0000";
layers = (
{
hints = (
{
horizontal = 1;
origin = (0,32);
target = (1,11);
type = Stem;
},
{
horizontal = 1;
origin = (0,15);
target = (2,6);
type = Stem;
},
{
horizontal = 1;
origin = (0,26);
target = (1,5);
type = Stem;
},
{
origin = (0,29);
target = (1,2);
type = Stem;
},
{
place = (389,54);
type = Stem;
},
{
place = (773,43);
type = Stem;
}
);
layerId = "05246BF3-0764-4143-87C4-5D2B296D3790";
shapes = (
{
closed = 1;
nodes = (
(328,-10,o),
(404,31,o),
(456,98,c),
(484,31,o),
(546,-10,o),
(637,-10,cs),
(740,-10,o),
(815,51,o),
(867,135,c),
(771,135,l),
(737,94,o),
(711,70,o),
(651,70,cs),
(554,70,o),
(524,139,o),
(530,225,c),
(902,225,l),
(910,260,ls),
(938,420,o),
(882,530,o),
(732,530,cs),
(641,530,o),
(565,489,o),
(513,422,c),
(485,489,o),
(423,530,o),
(332,530,cs),
(182,530,o),
(73,420,o),
(45,260,cs),
(16,100,o),
(87,-10,o),
(237,-10,cs)
);
},
{
closed = 1;
nodes = (
(141,70,o),
(117,160,o),
(135,260,cs),
(152,360,o),
(208,450,o),
(318,450,cs),
(428,450,o),
(452,360,o),
(435,260,cs),
(417,160,o),
(361,70,o),
(251,70,cs)
);
},
{
closed = 1;
nodes = (
(567,381,o),
(621,450,o),
(718,450,cs),
(815,450,o),
(834,381,o),
(825,295,c),
(543,295,l)
);
}
);
width = 955;
},
{
hints = (
{
horizontal = 1;
origin = (0,32);
target = (1,11);
type = Stem;
},
{
horizontal = 1;
origin = (0,15);
target = (2,6);
type = Stem;
},
{
horizontal = 1;
origin = (0,26);
target = (1,5);
type = Stem;
},
{
origin = (0,29);
target = (1,2);
type = Stem;
},
{
place = (402,172);
type = Stem;
},
{
place = (781,151);
type = Stem;
}
);
layerId = "B51EB05F-9FBB-4087-814F-400611B2D4B0";
shapes = (
{
closed = 1;
nodes = (
(330,-10,o),
(402,18,o),
(456,69,c),
(492,18,o),
(554,-10,o),
(637,-10,cs),
(760,-10,o),
(861,61,o),
(902,145,c),
(752,145,l),
(721,114,o),
(706,100,o),
(656,100,cs),
(583,100,o),
(566,155,o),
(570,220,c),
(927,220,l),
(935,265,ls),
(965,435,o),
(894,540,o),
(734,540,cs),
(651,540,o),
(579,512,o),
(525,461,c),
(489,512,o),
(427,540,o),
(344,540,cs),
(184,540,o),
(65,435,o),
(35,265,cs),
(6,95,o),
(87,-10,o),
(247,-10,cs)
);
},
{
closed = 1;
nodes = (
(176,100,o),
(171,185,o),
(185,265,cs),
(200,345,o),
(235,430,o),
(325,430,cs),
(415,430,o),
(420,345,o),
(405,265,cs),
(391,185,o),
(356,100,o),
(266,100,cs)
);
},
{
closed = 1;
nodes = (
(605,375,o),
(642,430,o),
(715,430,cs),
(789,430,o),
(800,379,o),
(792,310,c),
(585,310,l)
);
}
);
width = 970;
}
);
subCategory = Lowercase;
unicode = 339;
},
{
glyphname = p;
kernLeft = p;
kernRight = o;
lastChange = "2026-01-31 13:56:23 +0000";
layers = (
{
anchors = (
{
name = bottom;
pos = (265,0);
},
{
name = top;
pos = (356,520);
}
);
hints = (
{
horizontal = 1;
origin = (1,11);
target = (0,5);
type = Stem;
},
{
horizontal = 1;
origin = (0,11);
target = (1,5);
type = Stem;
},
{
horizontal = 1;
origin = (0,17);
target = down;
type = TopGhost;
},
{
origin = (0,18);
target = (0,0);
type = Stem;
},
{
origin = (1,8);
target = (0,8);
type = Stem;
},
{
origin = (0,18);
target = (1,2);
type = Stem;
}
);
layerId = "05246BF3-0764-4143-87C4-5D2B296D3790";
shapes = (
{
closed = 1;
nodes = (
(81,-220,l),
(137,100,l),
(147,100,l),
(165,30,o),
(223,-10,o),
(303,-10,cs),
(433,-10,o),
(542,100,o),
(571,260,cs),
(599,420,o),
(528,530,o),
(398,530,cs),
(318,530,o),
(246,490,o),
(204,420,c),
(194,420,l),
(211,520,l),
(121,520,l),
(-9,-220,l)
);
},
{
closed = 1;
nodes = (
(207,70,o),
(148,130,o),
(171,260,cs),
(194,390,o),
(274,450,o),
(364,450,cs),
(454,450,o),
(504,390,o),
(481,260,cs),
(458,130,o),
(387,70,o),
(297,70,cs)
);
}
);
width = 616;
},
{
anchors = (
{
name = bottom;
pos = (278,0);
},
{
name = top;
pos = (370,520);
}
);
hints = (
{
horizontal = 1;
origin = (0,5);
target = (1,11);
type = Stem;
},
{
horizontal = 1;
origin = (0,11);
target = (1,5);
type = Stem;
},
{
horizontal = 1;
origin = (0,17);
target = (1,5);
type = Stem;
},
{
origin = (0,18);
target = (0,0);
type = Stem;
},
{
origin = (1,8);
target = (0,8);
type = Stem;
},
{
origin = (0,18);
target = (1,2);
type = Stem;
}
);
layerId = "B51EB05F-9FBB-4087-814F-400611B2D4B0";
shapes = (
{
closed = 1;
nodes = (
(128,-200,l),
(177,80,l),
(187,80,l),
(209,30,o),
(247,-10,o),
(327,-10,cs),
(467,-10,o),
(575,95,o),
(605,265,cs),
(635,435,o),
(563,540,o),
(423,540,cs),
(343,540,o),
(291,500,o),
(253,450,c),
(243,450,l),
(257,530,l),
(107,530,l),
(-22,-200,l)
);
},
{
closed = 1;
nodes = (
(226,100,o),
(197,165,o),
(215,265,cs),
(233,365,o),
(284,430,o),
(364,430,cs),
(444,430,o),
(473,365,o),
(455,265,cs),
(437,165,o),
(386,100,o),
(306,100,cs)
);
}
);
width = 640;
}
);
subCategory = Lowercase;
unicode = 112;
},
{
glyphname = thorn;
kernLeft = p;
kernRight = b;
lastChange = "2026-01-31 13:56:31 +0000";
layers = (
{
hints = (
{
horizontal = 1;
origin = (0,5);
target = (1,11);
type = Stem;
},
{
horizontal = 1;
origin = (0,11);
target = (1,5);
type = Stem;
},
{
horizontal = 1;
origin = (0,17);
target = down;
type = TopGhost;
},
{
origin = (0,18);
target = (0,0);
type = Stem;
},
{
origin = (1,8);
target = (0,8);
type = Stem;
},
{
origin = (0,18);
target = (1,2);
type = Stem;
}
);
layerId = "05246BF3-0764-4143-87C4-5D2B296D3790";
shapes = (
{
closed = 1;
nodes = (
(80,-220,l),
(136,100,l),
(146,100,l),
(164,30,o),
(222,-10,o),
(302,-10,cs),
(432,-10,o),
(541,100,o),
(570,260,cs),
(598,420,o),
(527,530,o),
(397,530,cs),
(317,530,o),
(245,490,o),
(203,420,c),
(193,420,l),
(246,720,l),
(156,720,l),
(-10,-220,l)
);
},
{
closed = 1;
nodes = (
(206,70,o),
(147,130,o),
(170,260,cs),
(193,390,o),
(273,450,o),
(363,450,cs),
(453,450,o),
(503,390,o),
(480,260,cs),
(457,130,o),
(386,70,o),
(296,70,cs)
);
}
);
width = 615;
},
{
hints = (
{
horizontal = 1;
origin = (0,5);
target = (1,11);
type = Stem;
},
{
horizontal = 1;
origin = (0,11);
target = (1,5);
type = Stem;
},
{
horizontal = 1;
origin = (0,17);
target = down;
type = TopGhost;
},
{
origin = (0,18);
target = (0,0);
type = Stem;
},
{
origin = (1,8);
target = (0,8);
type = Stem;
},
{
origin = (0,18);
target = (1,2);
type = Stem;
}
);
layerId = "B51EB05F-9FBB-4087-814F-400611B2D4B0";
shapes = (
{
closed = 1;
nodes = (
(128,-200,l),
(177,80,l),
(187,80,l),
(209,30,o),
(247,-10,o),
(327,-10,cs),
(467,-10,o),
(575,95,o),
(605,265,cs),
(635,435,o),
(563,540,o),
(423,540,cs),
(343,540,o),
(291,500,o),
(253,450,c),
(243,450,l),
(290,720,l),
(140,720,l),
(-22,-200,l)
);
},
{
closed = 1;
nodes = (
(226,100,o),
(197,165,o),
(215,265,cs),
(233,365,o),
(284,430,o),
(364,430,cs),
(444,430,o),
(473,365,o),
(455,265,cs),
(437,165,o),
(386,100,o),
(306,100,cs)
);
}
);
width = 640;
}
);
subCategory = Lowercase;
unicode = 254;
},
{
glyphname = q;
kernLeft = o;
kernRight = g;
lastChange = "2026-01-31 13:56:35 +0000";
layers = (
{
anchors = (
{
name = bottom;
pos = (249,0);
},
{
name = top;
pos = (340,520);
}
);
hints = (
{
horizontal = 1;
origin = (1,11);
target = (0,13);
type = Stem;
},
{
horizontal = 1;
origin = (0,7);
target = (1,5);
type = Stem;
},
{
horizontal = 1;
origin = (0,2);
target = down;
type = TopGhost;
},
{
origin = (0,10);
target = (1,2);
type = Stem;
},
{
origin = (0,18);
target = (0,0);
type = Stem;
},
{
origin = (1,8);
target = (0,0);
type = Stem;
}
);
layerId = "05246BF3-0764-4143-87C4-5D2B296D3790";
shapes = (
{
closed = 1;
nodes = (
(455,-220,l),
(585,520,l),
(495,520,l),
(478,420,l),
(468,420,l),
(450,490,o),
(392,530,o),
(312,530,cs),
(182,530,o),
(73,420,o),
(45,260,cs),
(16,100,o),
(87,-10,o),
(217,-10,cs),
(297,-10,o),
(369,30,o),
(411,100,c),
(421,100,l),
(365,-220,l)
);
},
{
closed = 1;
nodes = (
(161,70,o),
(112,130,o),
(135,260,cs),
(158,390,o),
(228,450,o),
(318,450,cs),
(408,450,o),
(468,390,o),
(445,260,cs),
(422,130,o),
(341,70,o),
(251,70,cs)
);
}
);
width = 615;
},
{
anchors = (
{
name = bottom;
pos = (278,0);
},
{
name = top;
pos = (370,520);
}
);
hints = (
{
horizontal = 1;
origin = (0,13);
target = (1,11);
type = Stem;
},
{
horizontal = 1;
origin = (0,7);
target = (1,5);
type = Stem;
},
{
horizontal = 1;
origin = (0,2);
target = (1,5);
type = Stem;
},
{
origin = (0,10);
target = (1,2);
type = Stem;
},
{
origin = (0,18);
target = (0,0);
type = Stem;
},
{
origin = (1,8);
target = (0,0);
type = Stem;
}
);
layerId = "B51EB05F-9FBB-4087-814F-400611B2D4B0";
shapes = (
{
closed = 1;
nodes = (
(498,-200,l),
(627,530,l),
(477,530,l),
(463,450,l),
(453,450,l),
(431,500,o),
(393,540,o),
(313,540,cs),
(173,540,o),
(65,435,o),
(35,265,cs),
(5,95,o),
(77,-10,o),
(217,-10,cs),
(297,-10,o),
(349,30,o),
(387,80,c),
(397,80,l),
(348,-200,l)
);
},
{
closed = 1;
nodes = (
(196,100,o),
(167,165,o),
(185,265,cs),
(203,365,o),
(254,430,o),
(334,430,cs),
(414,430,o),
(443,365,o),
(425,265,cs),
(407,165,o),
(356,100,o),
(276,100,cs)
);
}
);
width = 640;
}
);
subCategory = Lowercase;
unicode = 113;
},
{
glyphname = r;
kernLeft = n;
kernRight = r;
lastChange = "2026-01-31 13:56:43 +0000";
layers = (
{
anchors = (
{
name = bottom;
pos = (74,0);
},
{
name = top;
pos = (271,520);
}
);
hints = (
{
horizontal = 1;
origin = (0,14);
target = up;
type = BottomGhost;
},
{
horizontal = 1;
origin = (0,13);
target = (0,4);
type = Stem;
},
{
origin = (0,14);
target = (0,0);
type = Stem;
}
);
layerId = "05246BF3-0764-4143-87C4-5D2B296D3790";
shapes = (
{
closed = 1;
nodes = (
(119,0,l),
(168,280,ls),
(188,390,o),
(262,440,o),
(332,440,cs),
(387,440,l),
(401,520,l),
(376,520,ls),
(296,520,o),
(245,490,o),
(203,420,c),
(193,420,l),
(211,520,l),
(121,520,l),
(29,0,l)
);
}
);
width = 370;
},
{
anchors = (
{
name = bottom;
pos = (89,0);
},
{
name = top;
pos = (322,530);
}
);
hints = (
{
horizontal = 1;
origin = (0,14);
target = up;
type = BottomGhost;
},
{
horizontal = 1;
origin = (0,13);
target = (0,4);
type = Stem;
},
{
origin = (0,14);
target = (0,0);
type = Stem;
}
);
layerId = "B51EB05F-9FBB-4087-814F-400611B2D4B0";
shapes = (
{
closed = 1;
nodes = (
(164,0,l),
(213,280,ls),
(229,370,o),
(293,420,o),
(353,420,cs),
(443,420,l),
(462,530,l),
(412,530,ls),
(342,530,o),
(294,510,o),
(253,450,c),
(243,450,l),
(257,530,l),
(107,530,l),
(14,0,l)
);
}
);
width = 416;
}
);
subCategory = Lowercase;
unicode = 114;
},
{
glyphname = s;
kernLeft = s;
kernRight = s;
lastChange = "2026-01-31 13:57:22 +0000";
layers = (
{
anchors = (
{
name = bottom;
pos = (189,0);
},
{
name = top;
pos = (282,530);
}
);
hints = (
{
horizontal = 1;
origin = (0,37);
target = (0,30);
type = Stem;
},
{
horizontal = 1;
origin = (0,18);
target = (0,11);
type = Stem;
},
{
origin = (0,21);
target = (0,8);
type = Stem;
},
{
origin = (0,27);
target = (0,2);
type = Stem;
},
{
origin = (0,14);
target = (0,15);
type = Stem;
}
);
layerId = "05246BF3-0764-4143-87C4-5D2B296D3790";
shapes = (
{
closed = 1;
nodes = (
(307,-10,o),
(411,40,o),
(430,150,cs),
(446,240,o),
(388,280,o),
(262,304,cs),
(185,319,o),
(158,335,o),
(165,375,cs),
(174,425,o),
(218,450,o),
(268,450,cs),
(348,450,o),
(365,415,o),
(370,385,c),
(460,385,l),
(463,469,o),
(392,530,o),
(282,530,cs),
(172,530,o),
(89,455,o),
(75,375,cs),
(57,275,o),
(112,248,o),
(229,226,cs),
(296,213,o),
(349,200,o),
(340,150,cs),
(330,90,o),
(271,70,o),
(201,70,cs),
(141,70,o),
(107,105,o),
(103,135,c),
(13,135,l),
(10,65,o),
(67,-10,o),
(187,-10,cs)
);
}
);
width = 484;
},
{
anchors = (
{
name = bottom;
pos = (215,0);
},
{
name = top;
pos = (310,540);
}
);
hints = (
{
horizontal = 1;
origin = (0,37);
target = (0,30);
type = Stem;
},
{
horizontal = 1;
origin = (0,18);
target = (0,11);
type = Stem;
},
{
horizontal = 1;
origin = (0,18);
target = (0,14);
type = Stem;
},
{
horizontal = 1;
origin = (0,37);
target = (0,34);
type = Stem;
},
{
origin = (0,21);
target = (0,8);
type = Stem;
},
{
origin = (0,27);
target = (0,2);
type = Stem;
}
);
layerId = "B51EB05F-9FBB-4087-814F-400611B2D4B0";
shapes = (
{
closed = 1;
nodes = (
(348,-10,o),
(456,35,o),
(478,160,cs),
(494,250,o),
(438,303,o),
(272,325,cs),
(219,332,o),
(218,360,o),
(223,385,cs),
(227,410,o),
(251,430,o),
(291,430,cs),
(336,430,o),
(352,416,o),
(354,375,c),
(504,375,l),
(510,474,o),
(455,540,o),
(310,540,cs),
(195,540,o),
(90,485,o),
(69,365,cs),
(51,265,o),
(134,220,o),
(251,205,cs),
(311,197,o),
(332,180,o),
(326,150,cs),
(319,110,o),
(282,100,o),
(232,100,cs),
(187,100,o),
(169,112,o),
(160,150,c),
(10,150,l),
(5,50,o),
(78,-10,o),
(213,-10,cs)
);
}
);
width = 527;
}
);
subCategory = Lowercase;
unicode = 115;
},
{
glyphname = germandbls;
kernLeft = f;
kernRight = germandbls;
lastChange = "2026-01-31 13:57:35 +0000";
layers = (
{
hints = (
{
horizontal = 1;
origin = (0,35);
target = (0,17);
type = Stem;
},
{
horizontal = 1;
origin = (0,31);
target = (0,4);
type = Stem;
},
{
origin = (0,35);
target = (0,0);
type = Stem;
},
{
origin = (0,18);
target = (0,25);
type = Stem;
},
{
origin = (0,13);
target = (0,22);
type = Stem;
},
{
origin = (0,7);
target = (0,28);
type = Stem;
}
);
layerId = "05246BF3-0764-4143-87C4-5D2B296D3790";
shapes = (
{
closed = 1;
nodes = (
(109,0,l),
(204,540,ls),
(217,610,o),
(255,660,o),
(335,660,cs),
(415,660,o),
(437,610,o),
(424,540,cs),
(410,460,o),
(295,490,o),
(276,380,cs),
(251,240,o),
(444,320,o),
(418,170,cs),
(404,90,o),
(321,70,o),
(241,70,cs),
(221,70,l),
(209,0,l),
(229,0,ls),
(339,0,o),
(472,23,o),
(498,170,cs),
(530,350,o),
(345,320,o),
(356,380,cs),
(367,440,o),
(483,420,o),
(504,540,cs),
(524,650,o),
(468,730,o),
(348,730,cs),
(228,730,o),
(144,650,o),
(124,540,cs),
(29,0,l)
);
}
);
width = 564;
},
{
hints = (
{
horizontal = 1;
origin = (0,35);
target = (0,17);
type = Stem;
},
{
horizontal = 1;
origin = (0,31);
target = (0,4);
type = Stem;
},
{
origin = (0,35);
target = (0,0);
type = Stem;
},
{
origin = (0,13);
target = (0,22);
type = Stem;
},
{
origin = (0,7);
target = (0,28);
type = Stem;
},
{
origin = (0,18);
target = (0,25);
type = Stem;
}
);
layerId = "B51EB05F-9FBB-4087-814F-400611B2D4B0";
shapes = (
{
closed = 1;
nodes = (
(163,0,l),
(258,540,ls),
(267,590,o),
(297,620,o),
(357,620,cs),
(417,620,o),
(432,590,o),
(423,540,cs),
(412,475,o),
(297,505,o),
(275,380,cs),
(248,225,o),
(439,305,o),
(415,170,cs),
(404,105,o),
(342,110,o),
(287,110,cs),
(227,110,l),
(208,0,l),
(268,0,ls),
(393,0,o),
(536,8,o),
(565,170,cs),
(599,365,o),
(417,335,o),
(425,380,cs),
(433,425,o),
(549,405,o),
(573,540,cs),
(595,665,o),
(512,730,o),
(377,730,cs),
(242,730,o),
(130,665,o),
(108,540,cs),
(13,0,l)
);
}
);
width = 622;
}
);
subCategory = Lowercase;
unicode = 223;
},
{
glyphname = longs;
lastChange = "2026-01-31 13:57:42 +0000";
layers = (
{
anchors = (
{
name = bottom;
pos = (224,0);
},
{
name = top;
pos = (393,960);
}
);
layerId = "05246BF3-0764-4143-87C4-5D2B296D3790";
shapes = (
{
closed = 1;
nodes = (
(119,0,l),
(225,600,ls),
(230,630,o),
(252,640,o),
(272,640,cs),
(357,640,l),
(371,720,l),
(256,720,ls),
(206,720,o),
(149,680,o),
(137,610,cs),
(29,0,l)
);
}
);
width = 320;
},
{
anchors = (
{
name = bottom;
pos = (318,0);
},
{
name = top;
pos = (318,960);
}
);
layerId = "B51EB05F-9FBB-4087-814F-400611B2D4B0";
shapes = (
{
closed = 1;
nodes = (
(268,0,l),
(268,570,ls),
(268,600,o),
(278,610,o),
(308,610,cs),
(398,610,l),
(398,720,l),
(268,720,ls),
(188,720,o),
(118,670,o),
(118,580,cs),
(118,0,l)
);
}
);
width = 357;
}
);
subCategory = Lowercase;
unicode = 383;
},
{
glyphname = t;
kernLeft = t;
kernRight = t;
lastChange = "2026-01-31 13:57:54 +0000";
layers = (
{
anchors = (
{
name = bottom;
pos = (161,10);
},
{
name = center;
pos = (183,260);
},
{
name = top;
pos = (224,680);
},
{
name = topright;
pos = (396,520);
}
);
hints = (
{
horizontal = 1;
origin = (0,19);
target = (0,2);
type = Stem;
},
{
horizontal = 1;
origin = (0,13);
target = (0,14);
type = Stem;
},
{
origin = (0,16);
target = (0,5);
type = Stem;
}
);
layerId = "05246BF3-0764-4143-87C4-5D2B296D3790";
shapes = (
{
closed = 1;
nodes = (
(274,0,l),
(288,80,l),
(203,80,ls),
(183,80,o),
(165,90,o),
(170,120,cs),
(227,440,l),
(352,440,l),
(366,520,l),
(241,520,l),
(269,680,l),
(179,680,l),
(151,520,l),
(76,520,l),
(62,440,l),
(137,440,l),
(78,110,ls),
(66,40,o),
(109,0,o),
(159,0,cs)
);
}
);
width = 350;
},
{
anchors = (
{
name = bottom;
pos = (201,10);
},
{
name = center;
pos = (175,260);
},
{
name = top;
pos = (244,680);
},
{
name = topright;
pos = (389,525);
}
);
hints = (
{
horizontal = 1;
origin = (0,19);
target = (0,2);
type = Stem;
},
{
horizontal = 1;
origin = (0,13);
target = (0,14);
type = Stem;
},
{
origin = (0,16);
target = (0,19);
type = Stem;
}
);
layerId = "B51EB05F-9FBB-4087-814F-400611B2D4B0";
shapes = (
{
closed = 1;
nodes = (
(319,0,l),
(338,110,l),
(258,110,ls),
(238,110,o),
(220,120,o),
(225,150,cs),
(273,420,l),
(393,420,l),
(412,530,l),
(292,530,l),
(319,680,l),
(169,680,l),
(142,530,l),
(72,530,l),
(53,420,l),
(123,420,l),
(74,140,ls),
(58,50,o),
(119,0,o),
(199,0,cs)
);
}
);
width = 391;
}
);
subCategory = Lowercase;
unicode = 116;
},
{
glyphname = tbar;
kernLeft = t;
kernRight = t;
lastChange = "2026-01-31 13:58:01 +0000";
layers = (
{
hints = (
{
horizontal = 1;
origin = (0,3);
target = (0,2);
type = Stem;
},
{
origin = (0,3);
target = (0,0);
type = Stem;
}
);
layerId = "05246BF3-0764-4143-87C4-5D2B296D3790";
shapes = (
{
closed = 1;
nodes = (
(308,237,l),
(308,307,l),
(38,307,l),
(38,237,l)
);
},
{
pos = (9,0);
ref = t;
}
);
width = 359;
},
{
hints = (
{
horizontal = 1;
origin = (0,3);
target = (0,2);
type = Stem;
},
{
origin = (0,3);
target = (0,0);
type = Stem;
}
);
layerId = "B51EB05F-9FBB-4087-814F-400611B2D4B0";
shapes = (
{
closed = 1;
nodes = (
(376,217,l),
(376,327,l),
(36,327,l),
(36,217,l)
);
},
{
pos = (17,0);
ref = t;
}
);
width = 409;
}
);
subCategory = Lowercase;
unicode = 359;
},
{
glyphname = u;
kernLeft = u;
kernRight = g;
lastChange = "2026-01-31 13:58:31 +0000";
layers = (
{
anchors = (
{
name = bottom;
pos = (360,0);
},
{
name = ogonek;
pos = (432,10);
},
{
name = top;
pos = (316,520);
},
{
name = topright;
pos = (556,520);
}
);
hints = (
{
horizontal = 1;
origin = (0,11);
target = (0,20);
type = Stem;
},
{
horizontal = 1;
origin = (0,16);
target = down;
type = TopGhost;
},
{
horizontal = 1;
origin = (0,4);
target = up;
type = BottomGhost;
},
{
origin = (0,17);
target = (0,14);
type = Stem;
},
{
origin = (0,4);
target = (0,5);
type = Stem;
}
);
layerId = "05246BF3-0764-4143-87C4-5D2B296D3790";
shapes = (
{
closed = 1;
nodes = (
(273,-10,o),
(325,30,o),
(367,100,c),
(377,100,l),
(360,0,l),
(450,0,l),
(541,520,l),
(451,520,l),
(402,240,ls),
(383,130,o),
(307,70,o),
(237,70,cs),
(167,70,o),
(127,100,o),
(143,190,cs),
(201,520,l),
(111,520,l),
(53,190,ls),
(29,50,o),
(93,-10,o),
(193,-10,cs)
);
}
);
width = 571;
},
{
anchors = (
{
name = bottom;
pos = (334,0);
},
{
name = ogonek;
pos = (451,10);
},
{
name = top;
pos = (332,530);
},
{
name = topright;
pos = (575,520);
}
);
hints = (
{
horizontal = 1;
origin = (0,11);
target = (0,20);
type = Stem;
},
{
horizontal = 1;
origin = (0,16);
target = down;
type = TopGhost;
},
{
horizontal = 1;
origin = (0,11);
target = (0,4);
type = Stem;
},
{
origin = (0,17);
target = (0,14);
type = Stem;
},
{
origin = (0,4);
target = (0,5);
type = Stem;
}
);
layerId = "B51EB05F-9FBB-4087-814F-400611B2D4B0";
shapes = (
{
closed = 1;
nodes = (
(247,-10,o),
(297,20,o),
(338,80,c),
(348,80,l),
(334,0,l),
(484,0,l),
(577,530,l),
(427,530,l),
(378,250,ls),
(362,160,o),
(316,100,o),
(256,100,cs),
(196,100,o),
(177,130,o),
(189,200,cs),
(247,530,l),
(97,530,l),
(39,200,ls),
(14,60,o),
(77,-10,o),
(177,-10,cs)
);
}
);
width = 591;
}
);
subCategory = Lowercase;
unicode = 117;
},
{
glyphname = uogonek;
kernLeft = u;
kernRight = g;
lastChange = "2026-01-31 13:58:48 +0000";
layers = (
{
anchors = (
{
name = bottom;
pos = (360,0);
},
{
name = ogonek;
pos = (431,10);
},
{
name = top;
pos = (316,520);
},
{
name = topright;
pos = (556,520);
}
);
hints = (
{
horizontal = 1;
origin = (0,9);
target = (0,18);
type = Stem;
},
{
horizontal = 1;
origin = (0,14);
target = down;
type = TopGhost;
},
{
horizontal = 1;
origin = (0,23);
target = up;
type = BottomGhost;
},
{
origin = (0,15);
target = (0,12);
type = Stem;
},
{
origin = (0,23);
target = (0,3);
type = Stem;
},
{
horizontal = 1;
place = (-275,-9);
type = Stem;
},
{
place = (268,6);
type = Stem;
}
);
layerId = "05246BF3-0764-4143-87C4-5D2B296D3790";
shapes = (
{
closed = 1;
nodes = (
(412,-121,l),
(300,-143,o),
(328,-67,o),
(450,0,c),
(541,520,l),
(451,520,l),
(402,240,ls),
(382,130,o),
(307,70,o),
(237,70,cs),
(167,70,o),
(127,100,o),
(143,190,cs),
(201,520,l),
(111,520,l),
(53,190,ls),
(28,50,o),
(93,-10,o),
(193,-10,cs),
(273,-10,o),
(325,30,o),
(367,100,c),
(377,100,l),
(360,0,l),
(197,-80,o),
(226,-224,o),
(400,-191,c)
);
}
);
width = 571;
},
{
anchors = (
{
name = bottom;
pos = (334,0);
},
{
name = ogonek;
pos = (451,10);
},
{
name = top;
pos = (332,530);
},
{
name = topright;
pos = (576,520);
}
);
hints = (
{
horizontal = 1;
origin = (0,9);
target = (0,18);
type = Stem;
},
{
horizontal = 1;
origin = (0,14);
target = down;
type = TopGhost;
},
{
horizontal = 1;
origin = (0,9);
target = (0,23);
type = Stem;
},
{
origin = (0,15);
target = (0,12);
type = Stem;
},
{
origin = (0,23);
target = (0,3);
type = Stem;
},
{
horizontal = 1;
place = (-198,88);
type = Stem;
},
{
place = (332,146);
type = Stem;
}
);
layerId = "B51EB05F-9FBB-4087-814F-400611B2D4B0";
shapes = (
{
closed = 1;
nodes = (
(459,-105,l),
(347,-127,o),
(362,-67,o),
(484,0,c),
(577,530,l),
(427,530,l),
(378,250,ls),
(362,160,o),
(316,100,o),
(256,100,cs),
(196,100,o),
(177,130,o),
(189,200,cs),
(247,530,l),
(97,530,l),
(39,200,ls),
(14,60,o),
(77,-10,o),
(177,-10,cs),
(247,-10,o),
(297,20,o),
(338,80,c),
(348,80,l),
(334,0,l),
(160,-86,o),
(221,-233,o),
(444,-190,c)
);
}
);
width = 591;
}
);
subCategory = Lowercase;
unicode = 371;
},
{
glyphname = v;
kernLeft = v;
kernRight = v;
lastChange = "2026-01-31 13:58:57 +0000";
layers = (
{
anchors = (
{
name = bottom;
pos = (209,0);
},
{
name = top;
pos = (307,520);
}
);
hints = (
{
horizontal = 1;
origin = (0,7);
target = (0,4);
type = Stem;
},
{
horizontal = 1;
origin = (0,6);
target = down;
type = TopGhost;
}
);
layerId = "05246BF3-0764-4143-87C4-5D2B296D3790";
shapes = (
{
closed = 1;
nodes = (
(268,0,l),
(550,520,l),
(456,520,l),
(240,110,l),
(230,110,l),
(160,520,l),
(66,520,l),
(164,0,l)
);
}
);
width = 524;
},
{
anchors = (
{
name = bottom;
pos = (238,0);
},
{
name = top;
pos = (334,530);
}
);
hints = (
{
horizontal = 1;
origin = (0,7);
target = (0,4);
type = Stem;
},
{
horizontal = 1;
origin = (0,6);
target = down;
type = TopGhost;
}
);
layerId = "B51EB05F-9FBB-4087-814F-400611B2D4B0";
shapes = (
{
closed = 1;
nodes = (
(317,0,l),
(604,530,l),
(450,530,l),
(276,176,l),
(266,176,l),
(216,530,l),
(62,530,l),
(163,0,l)
);
}
);
width = 572;
}
);
subCategory = Lowercase;
unicode = 118;
},
{
glyphname = w;
kernLeft = v;
kernRight = v;
lastChange = "2026-01-31 13:59:04 +0000";
layers = (
{
anchors = (
{
name = bottom;
pos = (371,0);
},
{
name = top;
pos = (463,520);
}
);
hints = (
{
horizontal = 1;
origin = (0,15);
target = (0,12);
type = Stem;
},
{
horizontal = 1;
origin = (0,14);
target = (0,1);
type = Stem;
}
);
layerId = "05246BF3-0764-4143-87C4-5D2B296D3790";
shapes = (
{
closed = 1;
nodes = (
(253,0,l),
(436,397,l),
(446,397,l),
(489,0,l),
(593,0,l),
(845,520,l),
(751,520,l),
(565,110,l),
(555,110,l),
(515,520,l),
(411,520,l),
(225,110,l),
(215,110,l),
(175,520,l),
(81,520,l),
(149,0,l)
);
}
);
width = 834;
},
{
anchors = (
{
name = bottom;
pos = (370,0);
},
{
name = top;
pos = (463,530);
}
);
hints = (
{
horizontal = 1;
origin = (0,15);
target = (0,12);
type = Stem;
},
{
horizontal = 1;
origin = (0,14);
target = down;
type = TopGhost;
},
{
horizontal = 1;
origin = (0,15);
target = up;
type = BottomGhost;
},
{
horizontal = 1;
origin = (0,14);
target = (0,1);
type = Stem;
}
);
layerId = "B51EB05F-9FBB-4087-814F-400611B2D4B0";
shapes = (
{
closed = 1;
nodes = (
(282,0,l),
(425,340,l),
(435,340,l),
(458,0,l),
(608,0,l),
(864,530,l),
(714,530,l),
(570,180,l),
(560,180,l),
(538,530,l),
(388,530,l),
(244,180,l),
(234,180,l),
(212,530,l),
(62,530,l),
(132,0,l)
);
}
);
width = 832;
}
);
subCategory = Lowercase;
unicode = 119;
},
{
glyphname = x;
kernLeft = x;
kernRight = x;
lastChange = "2026-01-31 13:59:13 +0000";
layers = (
{
anchors = (
{
name = bottom;
pos = (218,0);
},
{
name = top;
pos = (310,520);
}
);
hints = (
{
horizontal = 1;
origin = (0,13);
target = up;
type = BottomGhost;
},
{
horizontal = 1;
origin = (0,11);
target = down;
type = TopGhost;
}
);
layerId = "05246BF3-0764-4143-87C4-5D2B296D3790";
shapes = (
{
closed = 1;
nodes = (
(79,0,l),
(253,205,l),
(257,205,l),
(359,0,l),
(459,0,l),
(322,283,l),
(521,520,l),
(421,520,l),
(284,360,l),
(280,360,l),
(201,520,l),
(101,520,l),
(216,283,l),
(-21,0,l)
);
}
);
width = 530;
},
{
anchors = (
{
name = bottom;
pos = (227,0);
},
{
name = top;
pos = (319,520);
}
);
hints = (
{
horizontal = 1;
origin = (0,13);
target = up;
type = BottomGhost;
},
{
horizontal = 1;
origin = (0,11);
target = down;
type = TopGhost;
}
);
layerId = "B51EB05F-9FBB-4087-814F-400611B2D4B0";
shapes = (
{
closed = 1;
nodes = (
(123,0,l),
(250,155,l),
(260,155,l),
(333,0,l),
(493,0,l),
(362,278,l),
(569,530,l),
(409,530,l),
(304,401,l),
(294,401,l),
(233,530,l),
(73,530,l),
(192,278,l),
(-37,0,l)
);
}
);
width = 550;
}
);
subCategory = Lowercase;
unicode = 120;
},
{
glyphname = y;
kernLeft = y;
kernRight = y;
lastChange = "2026-01-31 13:59:18 +0000";
layers = (
{
anchors = (
{
name = bottom;
pos = (224,0);
},
{
name = top;
pos = (316,520);
}
);
hints = (
{
horizontal = 1;
origin = (0,16);
target = (0,17);
type = Stem;
},
{
horizontal = 1;
origin = (0,10);
target = down;
type = TopGhost;
}
);
layerId = "05246BF3-0764-4143-87C4-5D2B296D3790";
shapes = (
{
closed = 1;
nodes = (
(84,-220,ls),
(123,-220,o),
(171,-195,o),
(194,-152,cs),
(275,0,l),
(566,520,l),
(471,520,l),
(246,110,l),
(242,110,l),
(161,520,l),
(66,520,l),
(175,0,l),
(116,-114,ls),
(106,-132,o),
(85,-140,o),
(69,-140,cs),
(3,-140,l),
(-11,-220,l)
);
}
);
width = 540;
},
{
anchors = (
{
name = bottom;
pos = (217,0);
},
{
name = top;
pos = (341,530);
}
);
hints = (
{
horizontal = 1;
origin = (0,16);
target = (0,17);
type = Stem;
},
{
horizontal = 1;
origin = (0,10);
target = down;
type = TopGhost;
}
);
layerId = "B51EB05F-9FBB-4087-814F-400611B2D4B0";
shapes = (
{
closed = 1;
nodes = (
(143,-220,ls),
(182,-220,o),
(229,-195,o),
(253,-152,c),
(328,0,l),
(625,530,l),
(470,530,l),
(284,178,l),
(274,178,l),
(212,530,l),
(57,530,l),
(168,0,l),
(128,-84,l),
(115,-106,o),
(99,-110,o),
(73,-110,cs),
(17,-110,l),
(-2,-220,l)
);
}
);
width = 588;
}
);
subCategory = Lowercase;
unicode = 121;
},
{
glyphname = z;
kernLeft = z;
kernRight = z;
lastChange = "2026-01-31 13:59:40 +0000";
layers = (
{
anchors = (
{
name = bottom;
pos = (186,0);
},
{
name = center;
pos = (230,260);
},
{
name = top;
pos = (278,520);
}
);
hints = (
{
horizontal = 1;
origin = (0,9);
target = (0,8);
type = Stem;
},
{
horizontal = 1;
origin = (0,5);
target = (0,6);
type = Stem;
}
);
layerId = "05246BF3-0764-4143-87C4-5D2B296D3790";
shapes = (
{
closed = 1;
nodes = (
(374,0,l),
(388,80,l),
(113,80,l),
(452,440,l),
(466,520,l),
(91,520,l),
(77,440,l),
(347,440,l),
(8,80,l),
(-6,0,l)
);
}
);
width = 460;
},
{
anchors = (
{
name = bottom;
pos = (206,0);
},
{
name = center;
pos = (250,260);
},
{
name = top;
pos = (299,530);
}
);
hints = (
{
horizontal = 1;
origin = (0,9);
target = (0,8);
type = Stem;
},
{
horizontal = 1;
origin = (0,5);
target = (0,6);
type = Stem;
},
{
origin = (0,9);
target = (0,0);
type = Stem;
}
);
layerId = "B51EB05F-9FBB-4087-814F-400611B2D4B0";
shapes = (
{
closed = 1;
nodes = (
(424,0,l),
(443,110,l),
(188,110,l),
(498,420,l),
(517,530,l),
(82,530,l),
(63,420,l),
(313,420,l),
(3,110,l),
(-16,0,l)
);
}
);
width = 501;
}
);
subCategory = Lowercase;
unicode = 122;
},
{
glyphname = saltillo;
lastChange = "2026-01-31 14:00:04 +0000";
layers = (
{
layerId = "05246BF3-0764-4143-87C4-5D2B296D3790";
shapes = (
{
closed = 1;
nodes = (
(160,460,l),
(209,710,l),
(129,710,l),
(90,460,l)
);
}
);
width = 180;
},
{
layerId = "B51EB05F-9FBB-4087-814F-400611B2D4B0";
shapes = (
{
closed = 1;
nodes = (
(182,450,l),
(240,720,l),
(120,720,l),
(82,450,l)
);
}
);
width = 200;
}
);
subCategory = Lowercase;
unicode = 42892;
},
{
glyphname = iogonek.dotless;
lastChange = "2026-01-31 14:00:37 +0000";
layers = (
{
anchors = (
{
name = top;
pos = (177,520);
}
);
hints = (
{
horizontal = 1;
origin = (0,6);
target = up;
type = BottomGhost;
},
{
horizontal = 1;
origin = (0,5);
target = down;
type = TopGhost;
},
{
origin = (0,6);
target = (0,3);
type = Stem;
},
{
horizontal = 1;
place = (-275,-9);
type = Stem;
},
{
place = (-45,6);
type = Stem;
},
{
horizontal = 1;
place = (650,20);
type = Stem;
},
{
origin = (0,5);
target = (0,4);
type = Stem;
}
);
layerId = "05246BF3-0764-4143-87C4-5D2B296D3790";
shapes = (
{
closed = 1;
nodes = (
(93,-121,l),
(-19,-143,o),
(9,-67,o),
(131,0,c),
(222,520,l),
(132,520,l),
(41,0,l),
(-122,-80,o),
(-93,-224,o),
(81,-191,c)
);
}
);
width = 247;
},
{
anchors = (
{
name = top;
pos = (44,530);
}
);
hints = (
{
horizontal = 1;
origin = (0,6);
target = up;
type = BottomGhost;
},
{
horizontal = 1;
origin = (0,5);
target = down;
type = TopGhost;
},
{
origin = (0,6);
target = (0,3);
type = Stem;
},
{
horizontal = 1;
origin = (0,4);
place = (530,170);
type = Stem;
},
{
origin = (0,5);
target = (0,4);
type = Stem;
},
{
horizontal = 1;
place = (-198,88);
type = Stem;
},
{
place = (-25,146);
type = Stem;
}
);
layerId = "B51EB05F-9FBB-4087-814F-400611B2D4B0";
shapes = (
{
closed = 1;
nodes = (
(136,-105,l),
(24,-127,o),
(38,-67,o),
(160,0,c),
(254,530,l),
(104,530,l),
(10,0,l),
(-164,-86,o),
(-103,-233,o),
(121,-190,c)
);
}
);
width = 267;
}
);
subCategory = Lowercase;
},
{
glyphname = f_f_i;
lastChange = "2026-01-31 14:01:26 +0000";
layers = (
{
anchors = (
{
name = caret_1;
pos = (299,0);
},
{
name = caret_2;
pos = (594,0);
}
);
layerId = "05246BF3-0764-4143-87C4-5D2B296D3790";
shapes = (
{
closed = 1;
nodes = (
(149,0,l),
(227,440,l),
(427,440,l),
(349,0,l),
(439,0,l),
(517,440,l),
(722,440,l),
(644,0,l),
(734,0,l),
(826,520,l),
(531,520,l),
(545,600,ls),
(550,630,o),
(572,640,o),
(592,640,cs),
(677,640,l),
(691,720,l),
(576,720,ls),
(526,720,o),
(469,680,o),
(457,610,cs),
(441,520,l),
(241,520,l),
(255,600,ls),
(260,630,o),
(282,640,o),
(302,640,cs),
(387,640,l),
(401,720,l),
(286,720,ls),
(236,720,o),
(179,680,o),
(167,610,cs),
(151,520,l),
(76,520,l),
(62,440,l),
(137,440,l),
(59,0,l)
);
},
{
closed = 1;
nodes = (
(829,620,o),
(858,644,o),
(863,675,cs),
(868,706,o),
(849,730,o),
(818,730,cs),
(787,730,o),
(758,706,o),
(753,675,cs),
(748,644,o),
(767,620,o),
(798,620,cs)
);
}
);
width = 855;
},
{
anchors = (
{
name = caret_1;
pos = (364,0);
},
{
name = caret_2;
pos = (714,0);
}
);
layerId = "B51EB05F-9FBB-4087-814F-400611B2D4B0";
shapes = (
{
closed = 1;
nodes = (
(204,0,l),
(278,420,l),
(488,420,l),
(414,0,l),
(564,0,l),
(638,420,l),
(838,420,l),
(764,0,l),
(914,0,l),
(1007,530,l),
(657,530,l),
(665,570,ls),
(670,600,o),
(682,610,o),
(712,610,cs),
(802,610,l),
(821,720,l),
(691,720,ls),
(611,720,o),
(532,670,o),
(516,580,cs),
(507,530,l),
(297,530,l),
(305,570,ls),
(310,600,o),
(322,610,o),
(352,610,cs),
(442,610,l),
(461,720,l),
(331,720,ls),
(251,720,o),
(172,670,o),
(156,580,cs),
(147,530,l),
(67,530,l),
(48,420,l),
(128,420,l),
(54,0,l)
);
},
{
closed = 1;
nodes = (
(989,580,o),
(1033,617,o),
(1041,665,cs),
(1050,713,o),
(1019,750,o),
(971,750,cs),
(923,750,o),
(880,713,o),
(871,665,cs),
(863,617,o),
(893,580,o),
(941,580,cs)
);
}
);
width = 1025;
}
);
subCategory = Ligature;
},
{
glyphname = f_f_l;
lastChange = "2026-01-31 14:01:09 +0000";
layers = (
{
anchors = (
{
name = caret_1;
pos = (299,0);
},
{
name = caret_2;
pos = (624,0);
}
);
layerId = "05246BF3-0764-4143-87C4-5D2B296D3790";
shapes = (
{
closed = 1;
nodes = (
(149,0,l),
(227,440,l),
(427,440,l),
(349,0,l),
(439,0,l),
(517,440,l),
(642,440,l),
(656,520,l),
(531,520,l),
(545,600,ls),
(550,630,o),
(572,640,o),
(592,640,cs),
(767,640,l),
(673,110,ls),
(661,40,o),
(704,0,o),
(754,0,cs),
(819,0,l),
(833,80,l),
(798,80,ls),
(778,80,o),
(760,90,o),
(765,120,cs),
(871,720,l),
(576,720,ls),
(526,720,o),
(469,680,o),
(457,610,cs),
(441,520,l),
(241,520,l),
(255,600,ls),
(260,630,o),
(282,640,o),
(302,640,cs),
(387,640,l),
(401,720,l),
(286,720,ls),
(236,720,o),
(179,680,o),
(167,610,cs),
(151,520,l),
(76,520,l),
(62,440,l),
(137,440,l),
(59,0,l)
);
}
);
width = 895;
},
{
anchors = (
{
name = caret_1;
pos = (410,0);
},
{
name = caret_2;
pos = (780,0);
}
);
layerId = "B51EB05F-9FBB-4087-814F-400611B2D4B0";
shapes = (
{
closed = 1;
nodes = (
(250,0,l),
(324,420,l),
(534,420,l),
(460,0,l),
(610,0,l),
(684,420,l),
(814,420,l),
(833,530,l),
(703,530,l),
(711,570,ls),
(716,600,o),
(728,610,o),
(758,610,cs),
(918,610,l),
(835,140,ls),
(819,50,o),
(880,0,o),
(960,0,cs),
(1055,0,l),
(1074,110,l),
(1019,110,ls),
(999,110,o),
(981,120,o),
(986,150,cs),
(1087,720,l),
(737,720,ls),
(657,720,o),
(578,670,o),
(562,580,cs),
(553,530,l),
(343,530,l),
(351,570,ls),
(356,600,o),
(368,610,o),
(398,610,cs),
(488,610,l),
(507,720,l),
(377,720,ls),
(297,720,o),
(218,670,o),
(202,580,cs),
(193,530,l),
(113,530,l),
(94,420,l),
(174,420,l),
(100,0,l)
);
}
);
width = 1075;
}
);
subCategory = Ligature;
},
{
glyphname = fi;
kernLeft = f;
kernRight = i;
lastChange = "2026-01-31 14:01:34 +0000";
layers = (
{
anchors = (
{
name = bottom;
pos = (122,0);
},
{
name = caret_1;
pos = (304,0);
},
{
name = top;
pos = (260,780);
}
);
hints = (
{
horizontal = 1;
origin = (0,21);
target = up;
type = BottomGhost;
},
{
horizontal = 1;
origin = (0,18);
target = (0,19);
type = Stem;
},
{
horizontal = 1;
origin = (1,5);
target = (1,11);
type = Stem;
},
{
horizontal = 1;
origin = (0,13);
target = (0,10);
type = Stem;
},
{
origin = (0,21);
target = (0,0);
type = Stem;
},
{
origin = (1,8);
target = (1,2);
type = Stem;
},
{
origin = (0,3);
target = (0,4);
type = Stem;
}
);
layerId = "05246BF3-0764-4143-87C4-5D2B296D3790";
shapes = (
{
closed = 1;
nodes = (
(149,0,l),
(227,440,l),
(432,440,l),
(354,0,l),
(444,0,l),
(536,520,l),
(241,520,l),
(255,600,ls),
(260,630,o),
(282,640,o),
(302,640,cs),
(387,640,l),
(401,720,l),
(286,720,ls),
(236,720,o),
(179,680,o),
(167,610,cs),
(151,520,l),
(76,520,l),
(62,440,l),
(137,440,l),
(59,0,l)
);
},
{
closed = 1;
nodes = (
(539,620,o),
(568,644,o),
(573,675,cs),
(578,706,o),
(559,730,o),
(528,730,cs),
(497,730,o),
(468,706,o),
(463,675,cs),
(458,644,o),
(477,620,o),
(508,620,cs)
);
}
);
width = 565;
},
{
anchors = (
{
name = bottom;
pos = (129,0);
},
{
name = caret_1;
pos = (354,0);
},
{
name = top;
pos = (267,780);
}
);
hints = (
{
horizontal = 1;
origin = (0,21);
target = up;
type = BottomGhost;
},
{
horizontal = 1;
origin = (0,18);
target = (0,19);
type = Stem;
},
{
horizontal = 1;
origin = (1,5);
target = (0,16);
type = Stem;
},
{
horizontal = 1;
origin = (0,13);
target = (0,10);
type = Stem;
},
{
origin = (0,21);
target = (0,0);
type = Stem;
},
{
origin = (1,8);
target = (1,2);
type = Stem;
},
{
origin = (0,3);
target = (0,4);
type = Stem;
}
);
layerId = "B51EB05F-9FBB-4087-814F-400611B2D4B0";
shapes = (
{
closed = 1;
nodes = (
(204,0,l),
(278,420,l),
(478,420,l),
(404,0,l),
(554,0,l),
(647,530,l),
(297,530,l),
(305,570,ls),
(310,600,o),
(322,610,o),
(352,610,cs),
(442,610,l),
(461,720,l),
(331,720,ls),
(251,720,o),
(172,670,o),
(156,580,cs),
(147,530,l),
(67,530,l),
(48,420,l),
(128,420,l),
(54,0,l)
);
},
{
closed = 1;
nodes = (
(629,580,o),
(673,617,o),
(681,665,cs),
(690,713,o),
(659,750,o),
(611,750,cs),
(563,750,o),
(520,713,o),
(511,665,cs),
(503,617,o),
(533,580,o),
(581,580,cs)
);
}
);
width = 665;
}
);
subCategory = Ligature;
unicode = 64257;
},
{
glyphname = fl;
kernLeft = f;
kernRight = l;
lastChange = "2026-01-31 14:01:39 +0000";
layers = (
{
anchors = (
{
name = caret_1;
pos = (334,0);
}
);
hints = (
{
horizontal = 1;
origin = (0,29);
target = (0,16);
type = Stem;
},
{
horizontal = 1;
origin = (0,26);
target = (0,27);
type = Stem;
},
{
horizontal = 1;
origin = (0,21);
target = (0,8);
type = Stem;
},
{
origin = (0,29);
target = (0,0);
type = Stem;
},
{
origin = (0,10);
target = (0,19);
type = Stem;
}
);
layerId = "05246BF3-0764-4143-87C4-5D2B296D3790";
shapes = (
{
closed = 1;
nodes = (
(149,0,l),
(227,440,l),
(352,440,l),
(366,520,l),
(241,520,l),
(255,600,ls),
(260,630,o),
(282,640,o),
(302,640,cs),
(477,640,l),
(383,110,ls),
(371,40,o),
(414,0,o),
(464,0,cs),
(529,0,l),
(543,80,l),
(508,80,ls),
(488,80,o),
(470,90,o),
(475,120,cs),
(581,720,l),
(286,720,ls),
(236,720,o),
(179,680,o),
(167,610,cs),
(151,520,l),
(76,520,l),
(62,440,l),
(137,440,l),
(59,0,l)
);
}
);
width = 605;
},
{
anchors = (
{
name = caret_1;
pos = (384,0);
}
);
hints = (
{
horizontal = 1;
origin = (0,29);
target = (0,16);
type = Stem;
},
{
horizontal = 1;
origin = (0,26);
target = (0,27);
type = Stem;
},
{
horizontal = 1;
origin = (0,21);
target = (0,8);
type = Stem;
},
{
origin = (0,29);
target = (0,0);
type = Stem;
},
{
origin = (0,10);
target = (0,13);
type = Stem;
}
);
layerId = "B51EB05F-9FBB-4087-814F-400611B2D4B0";
shapes = (
{
closed = 1;
nodes = (
(214,0,l),
(288,420,l),
(418,420,l),
(437,530,l),
(307,530,l),
(315,570,ls),
(320,600,o),
(332,610,o),
(362,610,cs),
(522,610,l),
(439,140,ls),
(423,50,o),
(484,0,o),
(564,0,cs),
(659,0,l),
(678,110,l),
(623,110,ls),
(603,110,o),
(585,120,o),
(590,150,cs),
(691,720,l),
(341,720,ls),
(261,720,o),
(182,670,o),
(166,580,cs),
(157,530,l),
(77,530,l),
(58,420,l),
(138,420,l),
(64,0,l)
);
}
);
width = 726;
}
);
subCategory = Ligature;
unicode = 64258;
},
{
glyphname = Delta;
kernLeft = Delta;
kernRight = Delta;
lastChange = "2026-01-31 11:21:20 +0000";
layers = (
{
hints = (
{
horizontal = 1;
origin = (0,5);
target = (0,4);
type = Stem;
},
{
horizontal = 1;
origin = (0,3);
target = down;
type = TopGhost;
},
{
horizontal = 1;
origin = (0,3);
target = (1,0);
type = Stem;
}
);
layerId = "05246BF3-0764-4143-87C4-5D2B296D3790";
shapes = (
{
closed = 1;
nodes = (
(548,0,l),
(564,90,l),
(440,720,l),
(346,720,l),
(0,90,l),
(-16,0,l)
);
},
{
closed = 1;
nodes = (
(372,610,l),
(376,610,l),
(470,90,l),
(94,90,l)
);
}
);
width = 624;
},
{
hints = (
{
horizontal = 1;
origin = (0,5);
target = (0,4);
type = Stem;
},
{
horizontal = 1;
origin = (0,3);
target = (1,0);
type = Stem;
},
{
origin = (0,5);
target = (1,3);
type = Stem;
},
{
origin = (1,2);
target = (0,0);
type = Stem;
}
);
layerId = "B51EB05F-9FBB-4087-814F-400611B2D4B0";
shapes = (
{
closed = 1;
nodes = (
(597,0,l),
(620,130,l),
(489,720,l),
(335,720,l),
(-4,130,l),
(-27,0,l)
);
},
{
closed = 1;
nodes = (
(378,557,l),
(388,557,l),
(470,130,l),
(146,130,l)
);
}
);
width = 664;
}
);
subCategory = Uppercase;
unicode = 916;
},
{
glyphname = Omega;
kernLeft = Omega;
kernRight = Omega;
lastChange = "2026-01-31 11:21:25 +0000";
layers = (
{
hints = (
{
horizontal = 1;
origin = (0,33);
target = (0,32);
type = Stem;
},
{
horizontal = 1;
origin = (0,24);
target = (0,7);
type = Stem;
},
{
origin = (0,33);
target = (0,4);
type = Stem;
},
{
origin = (0,10);
target = (0,15);
type = Stem;
}
);
layerId = "05246BF3-0764-4143-87C4-5D2B296D3790";
shapes = (
{
closed = 1;
nodes = (
(254,0,l),
(272,100,l),
(220,150,o),
(138,250,o),
(165,400,cs),
(191,550,o),
(289,650,o),
(439,650,cs),
(589,650,o),
(651,550,o),
(625,400,cs),
(598,250,o),
(480,150,o),
(412,100,c),
(394,0,l),
(644,0,l),
(658,80,l),
(488,80,l),
(490,90,l),
(559,140,o),
(683,220,o),
(715,400,cs),
(746,580,o),
(653,730,o),
(453,730,cs),
(253,730,o),
(106,580,o),
(75,400,cs),
(43,220,o),
(139,140,o),
(190,90,c),
(188,80,l),
(18,80,l),
(4,0,l)
);
}
);
width = 740;
},
{
hints = (
{
horizontal = 1;
origin = (0,33);
target = (0,32);
type = Stem;
},
{
horizontal = 1;
origin = (0,24);
target = (0,7);
type = Stem;
},
{
origin = (0,33);
target = (0,4);
type = Stem;
},
{
origin = (0,30);
target = (0,0);
type = Stem;
},
{
origin = (0,14);
target = (0,18);
type = Stem;
},
{
origin = (0,10);
target = (0,15);
type = Stem;
}
);
layerId = "B51EB05F-9FBB-4087-814F-400611B2D4B0";
shapes = (
{
closed = 1;
nodes = (
(274,0,l),
(297,130,l),
(246,180,o),
(190,260,o),
(215,400,cs),
(239,540,o),
(313,620,o),
(443,620,cs),
(573,620,o),
(619,540,o),
(595,400,cs),
(570,260,o),
(486,180,o),
(417,130,c),
(394,0,l),
(674,0,l),
(693,110,l),
(493,110,l),
(495,120,l),
(562,160,o),
(713,220,o),
(745,400,cs),
(778,590,o),
(673,730,o),
(463,730,cs),
(253,730,o),
(98,590,o),
(65,400,cs),
(33,220,o),
(162,160,o),
(215,120,c),
(213,110,l),
(13,110,l),
(-6,0,l)
);
}
);
width = 761;
}
);
subCategory = Uppercase;
unicode = 937;
},
{
glyphname = mu;
kernLeft = mu;
lastChange = "2026-01-31 14:01:58 +0000";
layers = (
{
hints = (
{
horizontal = 1;
origin = (0,12);
target = (0,15);
type = Stem;
},
{
horizontal = 1;
origin = (0,29);
target = down;
type = TopGhost;
},
{
horizontal = 1;
origin = (0,4);
target = (0,24);
type = Stem;
},
{
origin = (0,30);
target = (0,0);
type = Stem;
},
{
origin = (0,9);
target = (0,18);
type = Stem;
}
);
layerId = "05246BF3-0764-4143-87C4-5D2B296D3790";
shapes = (
{
closed = 1;
nodes = (
(91,-160,l),
(125,34,l),
(140,8,o),
(165,-10,o),
(202,-10,cs),
(282,-10,o),
(335,30,o),
(377,100,c),
(387,100,l),
(385,90,ls),
(373,20,o),
(419,0,o),
(469,0,cs),
(505,0,l),
(519,80,l),
(503,80,ls),
(483,80,o),
(475,90,o),
(480,120,cs),
(551,520,l),
(461,520,l),
(412,240,ls),
(392,130,o),
(317,70,o),
(247,70,cs),
(177,70,o),
(137,100,o),
(153,190,cs),
(211,520,l),
(121,520,l),
(1,-160,l)
);
}
);
width = 581;
},
{
hints = (
{
horizontal = 1;
origin = (0,12);
target = (0,15);
type = Stem;
},
{
horizontal = 1;
origin = (0,29);
target = down;
type = TopGhost;
},
{
horizontal = 1;
origin = (0,4);
target = (0,24);
type = Stem;
},
{
origin = (0,30);
target = (0,0);
type = Stem;
},
{
origin = (0,9);
target = (0,18);
type = Stem;
}
);
layerId = "B51EB05F-9FBB-4087-814F-400611B2D4B0";
shapes = (
{
closed = 1;
nodes = (
(135,-160,l),
(166,15,l),
(182,-2,o),
(201,-10,o),
(226,-10,cs),
(296,-10,o),
(327,20,o),
(367,80,c),
(377,80,l),
(376,70,ls),
(369,30,o),
(403,0,o),
(453,0,cs),
(559,0,l),
(579,110,l),
(563,110,ls),
(543,110,o),
(534,120,o),
(540,150,cs),
(607,530,l),
(457,530,l),
(407,250,ls),
(391,160,o),
(336,100,o),
(276,100,cs),
(216,100,o),
(186,130,o),
(198,200,cs),
(257,530,l),
(107,530,l),
(-15,-160,l)
);
}
);
width = 626;
}
);
subCategory = Lowercase;
unicode = 956;
},
{
glyphname = pi;
kernLeft = pi;
kernRight = pi;
lastChange = "2026-01-31 14:02:21 +0000";
layers = (
{
hints = (
{
horizontal = 1;
origin = (0,19);
target = (0,9);
type = Stem;
},
{
horizontal = 1;
origin = (0,16);
target = (0,17);
type = Stem;
},
{
origin = (0,19);
target = (0,0);
type = Stem;
},
{
origin = (0,3);
target = (0,12);
type = Stem;
}
);
layerId = "05246BF3-0764-4143-87C4-5D2B296D3790";
shapes = (
{
closed = 1;
nodes = (
(174,0,l),
(252,440,l),
(432,440,l),
(373,110,ls),
(361,40,o),
(404,0,o),
(454,0,cs),
(524,0,l),
(538,80,l),
(498,80,ls),
(478,80,o),
(460,90,o),
(465,120,cs),
(522,440,l),
(622,440,l),
(636,520,l),
(76,520,l),
(62,440,l),
(162,440,l),
(84,0,l)
);
}
);
width = 620;
},
{
hints = (
{
horizontal = 1;
origin = (0,19);
target = (0,3);
type = Stem;
},
{
horizontal = 1;
origin = (0,16);
target = (0,17);
type = Stem;
},
{
origin = (0,19);
target = (0,0);
type = Stem;
},
{
origin = (0,3);
target = (0,12);
type = Stem;
}
);
layerId = "B51EB05F-9FBB-4087-814F-400611B2D4B0";
shapes = (
{
closed = 1;
nodes = (
(229,0,l),
(303,420,l),
(423,420,l),
(368,110,ls),
(356,40,o),
(399,0,o),
(449,0,cs),
(579,0,l),
(598,110,l),
(558,110,ls),
(538,110,o),
(520,120,o),
(525,150,cs),
(573,420,l),
(673,420,l),
(692,530,l),
(72,530,l),
(53,420,l),
(153,420,l),
(79,0,l)
);
}
);
width = 671;
}
);
subCategory = Lowercase;
unicode = 960;
},
{
glyphname = zero;
kernLeft = C;
kernRight = "0";
lastChange = "2026-01-31 14:07:01 +0000";
layers = (
{
hints = (
{
horizontal = 1;
origin = (1,11);
target = (0,11);
type = Stem;
},
{
horizontal = 1;
origin = (0,5);
target = (1,5);
type = Stem;
},
{
origin = (0,8);
target = (1,2);
type = Stem;
},
{
origin = (1,8);
target = (0,2);
type = Stem;
}
);
layerId = "05246BF3-0764-4143-87C4-5D2B296D3790";
shapes = (
{
closed = 1;
nodes = (
(488,-10,o),
(593,160,o),
(628,360,cs),
(664,560,o),
(618,730,o),
(418,730,cs),
(218,730,o),
(114,560,o),
(78,360,cs),
(45,170,o),
(88,-10,o),
(288,-10,cs)
);
},
{
closed = 1;
nodes = (
(152,70,o),
(142,210,o),
(168,360,cs),
(196,520,o),
(254,650,o),
(404,650,cs),
(554,650,o),
(566,520,o),
(538,360,cs),
(510,200,o),
(452,70,o),
(302,70,cs)
);
}
);
width = 670;
},
{
hints = (
{
horizontal = 1;
origin = (0,11);
target = (1,11);
type = Stem;
},
{
horizontal = 1;
origin = (0,5);
target = (1,5);
type = Stem;
},
{
origin = (0,8);
target = (1,2);
type = Stem;
},
{
origin = (1,8);
target = (0,2);
type = Stem;
}
);
layerId = "B51EB05F-9FBB-4087-814F-400611B2D4B0";
shapes = (
{
closed = 1;
nodes = (
(507,-10,o),
(620,150,o),
(657,360,cs),
(694,570,o),
(637,730,o),
(427,730,cs),
(217,730,o),
(104,570,o),
(67,360,cs),
(32,160,o),
(87,-10,o),
(297,-10,cs)
);
},
{
closed = 1;
nodes = (
(186,100,o),
(194,230,o),
(217,360,cs),
(242,500,o),
(278,620,o),
(408,620,cs),
(538,620,o),
(532,500,o),
(507,360,cs),
(483,220,o),
(446,100,o),
(316,100,cs)
);
}
);
width = 690;
}
);
unicode = 48;
},
{
glyphname = one;
kernLeft = "1";
kernRight = "1";
lastChange = "2026-01-31 14:07:06 +0000";
layers = (
{
hints = (
{
horizontal = 1;
origin = (0,6);
target = up;
type = BottomGhost;
},
{
horizontal = 1;
origin = (0,2);
target = (0,5);
type = Stem;
},
{
origin = (0,6);
target = (0,0);
type = Stem;
}
);
layerId = "05246BF3-0764-4143-87C4-5D2B296D3790";
shapes = (
{
closed = 1;
nodes = (
(250,0,l),
(377,720,l),
(287,720,l),
(94,620,l),
(78,530,l),
(271,630,l),
(160,0,l)
);
}
);
width = 386;
},
{
hints = (
{
horizontal = 1;
origin = (0,6);
target = up;
type = BottomGhost;
},
{
horizontal = 1;
origin = (0,2);
target = (0,5);
type = Stem;
},
{
origin = (0,6);
target = (0,0);
type = Stem;
}
);
layerId = "B51EB05F-9FBB-4087-814F-400611B2D4B0";
shapes = (
{
closed = 1;
nodes = (
(299,0,l),
(426,720,l),
(276,720,l),
(83,620,l),
(62,500,l),
(255,600,l),
(149,0,l)
);
}
);
width = 426;
}
);
unicode = 49;
},
{
glyphname = two;
kernLeft = "2";
kernRight = "2";
lastChange = "2026-01-31 14:07:19 +0000";
layers = (
{
hints = (
{
horizontal = 1;
origin = (0,23);
target = (0,24);
type = Stem;
},
{
horizontal = 1;
origin = (0,9);
target = (0,16);
type = Stem;
},
{
origin = (0,12);
target = (0,13);
type = Stem;
},
{
origin = (0,19);
target = (0,6);
type = Stem;
}
);
layerId = "05246BF3-0764-4143-87C4-5D2B296D3790";
shapes = (
{
closed = 1;
nodes = (
(479,0,l),
(493,80,l),
(153,80,l),
(402,300,ls),
(496,380,o),
(568,450,o),
(582,530,cs),
(602,640,o),
(516,730,o),
(376,730,cs),
(246,730,o),
(132,640,o),
(111,520,c),
(201,520,l),
(213,590,o),
(272,650,o),
(362,650,cs),
(452,650,o),
(505,600,o),
(492,530,cs),
(482,470,o),
(437,427,o),
(355,357,cs),
(43,80,l),
(29,0,l)
);
}
);
width = 599;
},
{
hints = (
{
horizontal = 1;
origin = (0,24);
target = (0,23);
type = Stem;
},
{
horizontal = 1;
origin = (0,9);
target = (0,16);
type = Stem;
},
{
origin = (0,12);
target = (0,13);
type = Stem;
},
{
origin = (0,19);
target = (0,0);
type = Stem;
}
);
layerId = "B51EB05F-9FBB-4087-814F-400611B2D4B0";
shapes = (
{
closed = 1;
nodes = (
(528,0,l),
(547,110,l),
(232,110,l),
(487,335,ls),
(568,407,o),
(609,460,o),
(621,530,cs),
(643,650,o),
(535,730,o),
(395,730,cs),
(255,730,o),
(121,640,o),
(98,510,c),
(248,510,l),
(257,560,o),
(305,620,o),
(375,620,cs),
(445,620,o),
(480,580,o),
(471,530,cs),
(464,490,o),
(446,449,o),
(365,380,cs),
(36,100,l),
(18,0,l)
);
}
);
width = 630;
}
);
unicode = 50;
},
{
glyphname = three;
kernLeft = "3";
kernRight = "3";
lastChange = "2026-01-31 14:07:26 +0000";
layers = (
{
hints = (
{
horizontal = 1;
origin = (0,34);
target = (0,41);
type = Stem;
},
{
horizontal = 1;
origin = (0,26);
target = (0,27);
type = Stem;
},
{
horizontal = 1;
origin = (0,12);
target = (0,19);
type = Stem;
},
{
origin = (0,38);
target = (0,37);
type = Stem;
},
{
origin = (0,27);
target = (0,5);
type = Stem;
},
{
origin = (0,31);
target = (0,2);
type = Stem;
},
{
origin = (0,15);
target = (0,16);
type = Stem;
},
{
origin = (0,22);
target = (0,9);
type = Stem;
}
);
layerId = "05246BF3-0764-4143-87C4-5D2B296D3790";
shapes = (
{
closed = 1;
nodes = (
(417,-10,o),
(537,75,o),
(560,205,cs),
(575,291,o),
(537,353,o),
(456,380,c),
(458,391,l),
(531,415,o),
(581,466,o),
(594,540,cs),
(615,660,o),
(527,730,o),
(397,730,cs),
(267,730,o),
(154,655,o),
(133,535,c),
(223,535,l),
(235,605,o),
(293,650,o),
(383,650,cs),
(473,650,o),
(516,610,o),
(504,540,cs),
(492,470,o),
(434,425,o),
(344,425,cs),
(274,425,l),
(260,345,l),
(330,345,ls),
(440,345,o),
(484,285,o),
(470,205,cs),
(456,125,o),
(391,70,o),
(281,70,cs),
(171,70,o),
(126,125,o),
(140,205,c),
(50,205,l),
(27,75,o),
(117,-10,o),
(267,-10,cs)
);
}
);
width = 630;
},
{
hints = (
{
horizontal = 1;
origin = (0,41);
target = (0,34);
type = Stem;
},
{
horizontal = 1;
origin = (0,27);
target = (0,26);
type = Stem;
},
{
horizontal = 1;
origin = (0,12);
target = (0,19);
type = Stem;
},
{
origin = (0,38);
target = (0,37);
type = Stem;
},
{
origin = (0,31);
target = (0,2);
type = Stem;
},
{
origin = (0,15);
target = (0,16);
type = Stem;
},
{
origin = (0,22);
target = (0,9);
type = Stem;
}
);
layerId = "B51EB05F-9FBB-4087-814F-400611B2D4B0";
shapes = (
{
closed = 1;
nodes = (
(446,-10,o),
(584,65,o),
(609,205,cs),
(626,301,o),
(566,353,o),
(485,380,c),
(487,391,l),
(560,415,o),
(627,446,o),
(644,540,cs),
(665,660,o),
(556,730,o),
(416,730,cs),
(286,730,o),
(143,655,o),
(119,515,c),
(269,515,l),
(281,585,o),
(327,620,o),
(397,620,cs),
(467,620,o),
(502,590,o),
(493,540,cs),
(484,490,o),
(455,440,o),
(365,440,cs),
(265,440,l),
(246,330,l),
(346,330,ls),
(456,330,o),
(471,275,o),
(459,205,cs),
(448,145,o),
(405,100,o),
(305,100,cs),
(205,100,o),
(177,140,o),
(192,220,c),
(42,220,l),
(17,80,o),
(126,-10,o),
(286,-10,cs)
);
}
);
width = 670;
}
);
unicode = 51;
},
{
glyphname = four;
kernLeft = "4";
kernRight = "4";
lastChange = "2026-01-31 14:07:33 +0000";
layers = (
{
hints = (
{
horizontal = 1;
origin = (0,10);
target = up;
type = BottomGhost;
},
{
horizontal = 1;
origin = (0,7);
target = (0,8);
type = Stem;
},
{
horizontal = 1;
origin = (0,6);
target = down;
type = TopGhost;
},
{
horizontal = 1;
place = (556,74);
type = Stem;
},
{
origin = (0,10);
target = (0,0);
type = Stem;
}
);
layerId = "05246BF3-0764-4143-87C4-5D2B296D3790";
shapes = (
{
closed = 1;
nodes = (
(445,0,l),
(471,150,l),
(571,150,l),
(586,230,l),
(486,230,l),
(572,720,l),
(462,720,l),
(46,230,l),
(31,150,l),
(386,150,l),
(360,0,l)
);
},
{
closed = 1;
nodes = (
(469,616,l),
(401,230,l),
(141,230,l)
);
}
);
width = 651;
},
{
hints = (
{
horizontal = 1;
origin = (0,10);
target = up;
type = BottomGhost;
},
{
horizontal = 1;
origin = (0,8);
target = (0,7);
type = Stem;
},
{
horizontal = 1;
origin = (0,6);
target = down;
type = TopGhost;
},
{
origin = (0,10);
target = (0,0);
type = Stem;
}
);
layerId = "B51EB05F-9FBB-4087-814F-400611B2D4B0";
shapes = (
{
closed = 1;
nodes = (
(494,0,l),
(519,140,l),
(599,140,l),
(616,240,l),
(536,240,l),
(621,720,l),
(441,720,l),
(36,240,l),
(19,140,l),
(379,140,l),
(354,0,l)
);
},
{
closed = 1;
nodes = (
(455,573,l),
(396,240,l),
(176,240,l)
);
}
);
width = 671;
}
);
unicode = 52;
},
{
glyphname = five;
kernLeft = "5";
kernRight = "5";
lastChange = "2026-01-31 14:07:40 +0000";
layers = (
{
hints = (
{
horizontal = 1;
origin = (0,24);
target = (0,31);
type = Stem;
},
{
horizontal = 1;
origin = (0,5);
target = (0,18);
type = Stem;
},
{
horizontal = 1;
origin = (0,13);
target = (0,10);
type = Stem;
},
{
horizontal = 1;
origin = (0,9);
target = (0,14);
type = Stem;
},
{
origin = (0,28);
target = (0,27);
type = Stem;
},
{
origin = (0,21);
target = (0,2);
type = Stem;
}
);
layerId = "05246BF3-0764-4143-87C4-5D2B296D3790";
shapes = (
{
closed = 1;
nodes = (
(422,-10,o),
(551,100,o),
(574,230,cs),
(599,370,o),
(507,470,o),
(367,470,cs),
(283,470,o),
(220,431,o),
(195,391,c),
(185,391,l),
(254,640,l),
(608,640,l),
(622,720,l),
(196,720,l),
(85,320,l),
(165,320,l),
(202,360,o),
(263,390,o),
(343,390,cs),
(443,390,o),
(500,320,o),
(484,230,cs),
(468,140,o),
(386,70,o),
(286,70,cs),
(176,70,o),
(137,130,o),
(134,170,c),
(44,170,l),
(38,80,o),
(112,-10,o),
(272,-10,cs)
);
}
);
width = 639;
},
{
hints = (
{
horizontal = 1;
origin = (0,31);
target = (0,24);
type = Stem;
},
{
horizontal = 1;
origin = (0,18);
target = (0,5);
type = Stem;
},
{
horizontal = 1;
origin = (0,13);
target = (0,10);
type = Stem;
},
{
horizontal = 1;
origin = (0,14);
target = (0,9);
type = Stem;
},
{
origin = (0,28);
target = (0,27);
type = Stem;
},
{
origin = (0,21);
target = (0,2);
type = Stem;
}
);
layerId = "B51EB05F-9FBB-4087-814F-400611B2D4B0";
shapes = (
{
closed = 1;
nodes = (
(442,-10,o),
(580,90,o),
(604,230,cs),
(631,380,o),
(527,470,o),
(387,470,cs),
(313,470,o),
(252,431,o),
(235,391,c),
(227,391,l),
(286,610,l),
(632,610,l),
(652,720,l),
(186,720,l),
(72,300,l),
(202,300,l),
(229,340,o),
(267,360,o),
(347,360,cs),
(427,360,o),
(467,300,o),
(454,230,cs),
(442,160,o),
(381,100,o),
(301,100,cs),
(221,100,o),
(177,130,o),
(187,190,c),
(37,190,l),
(18,80,o),
(122,-10,o),
(282,-10,cs)
);
}
);
width = 660;
}
);
unicode = 53;
},
{
glyphname = six;
kernLeft = "6";
kernRight = "6";
lastChange = "2026-01-31 14:07:45 +0000";
layers = (
{
hints = (
{
horizontal = 1;
origin = (1,11);
target = (0,25);
type = Stem;
},
{
horizontal = 1;
origin = (0,5);
target = (1,5);
type = Stem;
},
{
horizontal = 1;
origin = (0,19);
target = (0,12);
type = Stem;
},
{
origin = (0,22);
target = (0,9);
type = Stem;
},
{
origin = (1,8);
target = (0,2);
type = Stem;
},
{
origin = (0,15);
target = (0,16);
type = Stem;
},
{
origin = (0,22);
target = (1,2);
type = Stem;
}
);
layerId = "05246BF3-0764-4143-87C4-5D2B296D3790";
shapes = (
{
closed = 1;
nodes = (
(448,-10,o),
(562,100,o),
(585,230,cs),
(608,360,o),
(533,470,o),
(373,470,cs),
(284,470,o),
(205,411,o),
(173,341,c),
(162,341,l),
(190,532,o),
(267,650,o),
(404,650,cs),
(514,650,o),
(539,590,o),
(540,540,c),
(630,540,l),
(638,640,o),
(578,730,o),
(418,730,cs),
(258,730,o),
(124,620,o),
(76,350,cs),
(27,70,o),
(138,-10,o),
(288,-10,cs)
);
},
{
closed = 1;
nodes = (
(202,70,o),
(148,130,o),
(165,230,cs),
(183,330,o),
(259,390,o),
(359,390,cs),
(459,390,o),
(513,330,o),
(495,230,cs),
(478,130,o),
(402,70,o),
(302,70,cs)
);
}
);
width = 650;
},
{
hints = (
{
horizontal = 1;
origin = (0,25);
target = (1,11);
type = Stem;
},
{
horizontal = 1;
origin = (1,5);
target = (0,5);
type = Stem;
},
{
horizontal = 1;
origin = (0,19);
target = (0,12);
type = Stem;
},
{
origin = (0,22);
target = (0,9);
type = Stem;
},
{
origin = (1,8);
target = (0,2);
type = Stem;
},
{
origin = (0,15);
target = (0,16);
type = Stem;
},
{
origin = (0,22);
target = (1,2);
type = Stem;
}
);
layerId = "B51EB05F-9FBB-4087-814F-400611B2D4B0";
shapes = (
{
closed = 1;
nodes = (
(482,-10,o),
(601,100,o),
(624,230,cs),
(651,380,o),
(547,470,o),
(407,470,cs),
(328,470,o),
(263,431,o),
(219,351,c),
(208,351,l),
(239,529,o),
(304,620,o),
(413,620,cs),
(513,620,o),
(526,580,o),
(515,520,c),
(665,520,l),
(687,640,o),
(602,730,o),
(432,730,cs),
(272,730,o),
(115,630,o),
(65,350,cs),
(14,60,o),
(132,-10,o),
(302,-10,cs)
);
},
{
closed = 1;
nodes = (
(251,100,o),
(198,140,o),
(214,230,cs),
(230,320,o),
(297,360,o),
(367,360,cs),
(437,360,o),
(490,320,o),
(474,230,cs),
(458,140,o),
(391,100,o),
(321,100,cs)
);
}
);
width = 680;
}
);
unicode = 54;
},
{
glyphname = seven;
kernLeft = "7";
kernRight = "7";
lastChange = "2026-01-31 14:07:50 +0000";
layers = (
{
hints = (
{
horizontal = 1;
origin = (0,6);
target = up;
type = BottomGhost;
},
{
horizontal = 1;
origin = (0,3);
target = (0,4);
type = Stem;
},
{
origin = (0,5);
target = (0,1);
type = Stem;
}
);
layerId = "05246BF3-0764-4143-87C4-5D2B296D3790";
shapes = (
{
closed = 1;
nodes = (
(179,0,l),
(587,640,l),
(601,720,l),
(126,720,l),
(112,640,l),
(497,640,l),
(84,0,l)
);
}
);
width = 565;
},
{
hints = (
{
horizontal = 1;
origin = (0,6);
target = up;
type = BottomGhost;
},
{
horizontal = 1;
origin = (0,3);
target = (0,4);
type = Stem;
}
);
layerId = "B51EB05F-9FBB-4087-814F-400611B2D4B0";
shapes = (
{
closed = 1;
nodes = (
(198,0,l),
(621,610,l),
(640,720,l),
(115,720,l),
(96,610,l),
(466,610,l),
(38,0,l)
);
}
);
width = 595;
}
);
unicode = 55;
},
{
glyphname = eight;
kernLeft = "8";
kernRight = "8";
lastChange = "2026-01-31 14:07:57 +0000";
layers = (
{
hints = (
{
horizontal = 1;
origin = (1,11);
target = (0,25);
type = Stem;
},
{
horizontal = 1;
origin = (2,11);
target = (1,5);
type = Stem;
},
{
horizontal = 1;
origin = (0,12);
target = (2,5);
type = Stem;
},
{
origin = (0,22);
target = (1,2);
type = Stem;
},
{
origin = (1,8);
target = (0,2);
type = Stem;
},
{
origin = (0,15);
target = (2,2);
type = Stem;
},
{
origin = (2,8);
target = (0,9);
type = Stem;
}
);
layerId = "05246BF3-0764-4143-87C4-5D2B296D3790";
shapes = (
{
closed = 1;
nodes = (
(427,-10,o),
(557,75,o),
(580,205,cs),
(595,291,o),
(547,353,o),
(466,380,c),
(468,391,l),
(541,415,o),
(596,466,o),
(609,540,cs),
(630,660,o),
(537,730,o),
(407,730,cs),
(277,730,o),
(160,660,o),
(139,540,cs),
(126,466,o),
(163,415,o),
(228,391,c),
(226,381,l),
(135,353,o),
(67,301,o),
(50,205,cs),
(27,75,o),
(127,-10,o),
(277,-10,cs)
);
},
{
closed = 1;
nodes = (
(171,70,o),
(128,135,o),
(140,205,cs),
(152,275,o),
(220,345,o),
(340,345,cs),
(460,345,o),
(502,275,o),
(490,205,cs),
(478,135,o),
(411,70,o),
(291,70,cs)
);
},
{
closed = 1;
nodes = (
(264,425,o),
(217,470,o),
(229,540,cs),
(241,610,o),
(303,650,o),
(393,650,cs),
(483,650,o),
(531,610,o),
(519,540,cs),
(507,470,o),
(444,425,o),
(354,425,cs)
);
}
);
width = 650;
},
{
hints = (
{
horizontal = 1;
origin = (0,25);
target = (1,11);
type = Stem;
},
{
horizontal = 1;
origin = (1,5);
target = (2,11);
type = Stem;
},
{
horizontal = 1;
origin = (0,12);
target = (2,5);
type = Stem;
},
{
origin = (0,22);
target = (1,2);
type = Stem;
},
{
origin = (1,8);
target = (0,2);
type = Stem;
},
{
origin = (0,15);
target = (2,2);
type = Stem;
},
{
origin = (2,8);
target = (0,9);
type = Stem;
}
);
layerId = "B51EB05F-9FBB-4087-814F-400611B2D4B0";
shapes = (
{
closed = 1;
nodes = (
(436,-10,o),
(586,75,o),
(611,215,cs),
(625,295,o),
(578,356,o),
(499,380,c),
(501,390,l),
(571,411,o),
(629,460,o),
(641,530,cs),
(664,660,o),
(556,730,o),
(416,730,cs),
(276,730,o),
(144,660,o),
(121,530,cs),
(109,460,o),
(149,411,o),
(213,390,c),
(211,380,l),
(124,356,o),
(55,295,o),
(41,215,cs),
(16,75,o),
(136,-10,o),
(286,-10,cs)
);
},
{
closed = 1;
nodes = (
(225,100,o),
(178,145,o),
(191,215,cs),
(203,285,o),
(266,330,o),
(346,330,cs),
(426,330,o),
(473,285,o),
(461,215,cs),
(448,145,o),
(385,100,o),
(305,100,cs)
);
},
{
closed = 1;
nodes = (
(295,440,o),
(262,480,o),
(271,530,cs),
(280,580,o),
(327,620,o),
(397,620,cs),
(467,620,o),
(500,580,o),
(491,530,cs),
(482,480,o),
(435,440,o),
(365,440,cs)
);
}
);
width = 670;
}
);
unicode = 56;
},
{
glyphname = nine;
kernLeft = "9";
kernRight = "9";
lastChange = "2026-01-31 14:08:03 +0000";
layers = (
{
hints = (
{
horizontal = 1;
origin = (0,18);
target = (0,25);
type = Stem;
},
{
horizontal = 1;
origin = (1,11);
target = (0,11);
type = Stem;
},
{
horizontal = 1;
origin = (0,5);
target = (1,5);
type = Stem;
},
{
origin = (0,8);
target = (1,2);
type = Stem;
},
{
origin = (0,15);
target = (0,2);
type = Stem;
},
{
origin = (0,22);
target = (0,21);
type = Stem;
},
{
origin = (1,8);
target = (0,2);
type = Stem;
}
);
layerId = "05246BF3-0764-4143-87C4-5D2B296D3790";
shapes = (
{
closed = 1;
nodes = (
(428,-10,o),
(562,100,o),
(610,370,cs),
(659,650,o),
(548,730,o),
(398,730,cs),
(238,730,o),
(124,620,o),
(101,490,cs),
(78,360,o),
(154,250,o),
(314,250,cs),
(403,250,o),
(481,309,o),
(514,379,c),
(525,379,l),
(497,188,o),
(419,70,o),
(282,70,cs),
(172,70,o),
(148,130,o),
(147,180,c),
(57,180,l),
(49,80,o),
(108,-10,o),
(268,-10,cs)
);
},
{
closed = 1;
nodes = (
(228,330,o),
(174,390,o),
(191,490,cs),
(209,590,o),
(284,650,o),
(384,650,cs),
(484,650,o),
(539,590,o),
(521,490,cs),
(504,390,o),
(428,330,o),
(328,330,cs)
);
}
);
width = 651;
},
{
hints = (
{
horizontal = 1;
origin = (0,25);
target = (0,18);
type = Stem;
},
{
horizontal = 1;
origin = (0,11);
target = (1,11);
type = Stem;
},
{
horizontal = 1;
origin = (0,5);
target = (1,5);
type = Stem;
},
{
origin = (0,8);
target = (1,2);
type = Stem;
},
{
origin = (0,15);
target = (0,2);
type = Stem;
},
{
origin = (0,22);
target = (0,21);
type = Stem;
},
{
origin = (1,8);
target = (0,2);
type = Stem;
}
);
layerId = "B51EB05F-9FBB-4087-814F-400611B2D4B0";
shapes = (
{
closed = 1;
nodes = (
(442,-10,o),
(600,90,o),
(649,370,cs),
(700,660,o),
(582,730,o),
(412,730,cs),
(232,730,o),
(113,620,o),
(90,490,cs),
(64,340,o),
(168,250,o),
(308,250,cs),
(387,250,o),
(452,289,o),
(496,369,c),
(507,369,l),
(479,191,o),
(410,100,o),
(301,100,cs),
(201,100,o),
(188,140,o),
(199,200,c),
(49,200,l),
(28,80,o),
(112,-10,o),
(282,-10,cs)
);
},
{
closed = 1;
nodes = (
(277,360,o),
(224,400,o),
(240,490,cs),
(256,580,o),
(323,620,o),
(393,620,cs),
(463,620,o),
(516,580,o),
(500,490,cs),
(484,400,o),
(417,360,o),
(347,360,cs)
);
}
);
width = 680;
}
);
unicode = 57;
},
{
glyphname = fraction;
lastChange = "2026-01-31 14:08:18 +0000";
layers = (
{
hints = (
{
horizontal = 1;
origin = (0,3);
target = up;
type = BottomGhost;
},
{
horizontal = 1;
origin = (0,2);
target = down;
type = TopGhost;
}
);
layerId = "05246BF3-0764-4143-87C4-5D2B296D3790";
shapes = (
{
closed = 1;
nodes = (
(74,0,l),
(656,720,l),
(566,720,l),
(-16,0,l)
);
}
);
width = 605;
},
{
hints = (
{
horizontal = 1;
origin = (0,3);
target = up;
type = BottomGhost;
},
{
horizontal = 1;
origin = (0,2);
target = down;
type = TopGhost;
}
);
layerId = "B51EB05F-9FBB-4087-814F-400611B2D4B0";
shapes = (
{
closed = 1;
nodes = (
(123,0,l),
(705,720,l),
(565,720,l),
(-17,0,l)
);
}
);
width = 655;
}
);
unicode = 8260;
},
{
glyphname = onesuperior;
kernLeft = onesuperior;
kernRight = onesuperior;
lastChange = "2026-01-31 14:08:43 +0000";
layers = (
{
hints = (
{
origin = (0,6);
target = (0,0);
type = Stem;
}
);
layerId = "05246BF3-0764-4143-87C4-5D2B296D3790";
shapes = (
{
closed = 1;
nodes = (
(227,410,l),
(287,750,l),
(217,750,l),
(106,690,l),
(96,630,l),
(206,690,l),
(157,410,l)
);
}
);
width = 271;
},
{
hints = (
{
origin = (0,6);
target = (0,0);
type = Stem;
}
);
layerId = "B51EB05F-9FBB-4087-814F-400611B2D4B0";
shapes = (
{
closed = 1;
nodes = (
(250,410,l),
(310,750,l),
(216,750,l),
(105,690,l),
(91,610,l),
(202,670,l),
(156,410,l)
);
}
);
width = 289;
}
);
unicode = 185;
},
{
glyphname = twosuperior;
kernLeft = twosuperior;
kernRight = twosuperior;
lastChange = "2026-01-31 14:08:48 +0000";
layers = (
{
hints = (
{
horizontal = 1;
origin = (0,23);
target = (0,24);
type = Stem;
},
{
horizontal = 1;
origin = (0,9);
target = (0,16);
type = Stem;
},
{
origin = (0,24);
target = (0,13);
type = Stem;
},
{
origin = (0,19);
target = (0,6);
type = Stem;
},
{
origin = (0,24);
target = (0,0);
type = Stem;
}
);
layerId = "05246BF3-0764-4143-87C4-5D2B296D3790";
shapes = (
{
closed = 1;
nodes = (
(305,410,l),
(316,470,l),
(168,470,l),
(284,563,ls),
(321,592,o),
(336,621,o),
(342,655,cs),
(351,703,o),
(318,756,o),
(241,756,cs),
(174,756,o),
(115,718,o),
(103,646,c),
(173,646,l),
(177,669,o),
(196,696,o),
(230,696,cs),
(274,696,o),
(273,660,o),
(270,645,cs),
(269,635,o),
(267,618,o),
(226,588,cs),
(72,470,l),
(61,410,l)
);
}
);
width = 319;
},
{
hints = (
{
horizontal = 1;
origin = (0,24);
target = (0,23);
type = Stem;
},
{
horizontal = 1;
origin = (0,12);
target = (0,9);
type = Stem;
},
{
horizontal = 1;
origin = (0,16);
target = (0,9);
type = Stem;
},
{
origin = (0,12);
target = (0,13);
type = Stem;
},
{
origin = (0,19);
target = (0,6);
type = Stem;
},
{
origin = (0,24);
target = (0,0);
type = Stem;
}
);
layerId = "B51EB05F-9FBB-4087-814F-400611B2D4B0";
shapes = (
{
closed = 1;
nodes = (
(324,410,l),
(338,490,l),
(195,490,l),
(298,563,ls),
(336,589,o),
(350,621,o),
(356,655,cs),
(366,713,o),
(332,756,o),
(245,756,cs),
(168,756,o),
(109,718,o),
(96,641,c),
(186,641,l),
(190,664,o),
(209,686,o),
(233,686,cs),
(267,686,o),
(267,660,o),
(264,645,cs),
(263,635,o),
(260,615,o),
(220,588,cs),
(74,490,l),
(60,410,l)
);
}
);
width = 333;
}
);
unicode = 178;
},
{
glyphname = threesuperior;
kernLeft = threesuperior;
kernRight = threesuperior;
lastChange = "2026-01-31 14:08:54 +0000";
layers = (
{
hints = (
{
horizontal = 1;
origin = (0,41);
target = (0,34);
type = Stem;
},
{
horizontal = 1;
origin = (0,28);
target = (0,26);
type = Stem;
},
{
horizontal = 1;
origin = (0,19);
target = (0,12);
type = Stem;
},
{
origin = (0,38);
target = (0,37);
type = Stem;
},
{
origin = (0,31);
target = (0,2);
type = Stem;
},
{
origin = (0,27);
target = (0,6);
type = Stem;
},
{
origin = (0,15);
target = (0,16);
type = Stem;
},
{
origin = (0,22);
target = (0,9);
type = Stem;
}
);
layerId = "05246BF3-0764-4143-87C4-5D2B296D3790";
shapes = (
{
closed = 1;
nodes = (
(259,400,o),
(329,445,o),
(340,507,cs),
(347,547,o),
(326,577,o),
(278,589,c),
(279,595,l),
(323,606,o),
(350,630,o),
(356,665,cs),
(366,722,o),
(312,756,o),
(251,756,cs),
(190,756,o),
(121,725,o),
(109,658,c),
(179,658,l),
(184,681,o),
(203,696,o),
(240,696,cs),
(273,696,o),
(289,683,o),
(285,660,cs),
(281,637,o),
(259,617,o),
(226,617,cs),
(193,617,l),
(184,567,l),
(217,567,ls),
(269,567,o),
(273,525,o),
(270,507,cs),
(265,479,o),
(241,460,o),
(199,460,cs),
(157,460,o),
(138,474,o),
(144,507,c),
(74,507,l),
(61,435,o),
(117,400,o),
(188,400,cs)
);
}
);
width = 336;
},
{
hints = (
{
horizontal = 1;
origin = (0,41);
target = (0,34);
type = Stem;
},
{
horizontal = 1;
origin = (0,28);
target = (0,26);
type = Stem;
},
{
horizontal = 1;
origin = (0,19);
target = (0,12);
type = Stem;
},
{
horizontal = 1;
origin = (0,28);
target = (0,5);
type = Stem;
},
{
horizontal = 1;
origin = (0,6);
target = (0,26);
type = Stem;
},
{
horizontal = 1;
origin = (0,16);
target = (0,12);
type = Stem;
},
{
origin = (0,38);
target = (0,37);
type = Stem;
},
{
origin = (0,31);
target = (0,2);
type = Stem;
},
{
origin = (0,28);
target = (0,6);
type = Stem;
},
{
origin = (0,22);
target = (0,9);
type = Stem;
},
{
origin = (0,15);
target = (0,16);
type = Stem;
}
);
layerId = "B51EB05F-9FBB-4087-814F-400611B2D4B0";
shapes = (
{
closed = 1;
nodes = (
(277,400,o),
(352,442,o),
(365,512,cs),
(374,562,o),
(327,589,o),
(287,589,c),
(288,595,l),
(328,595,o),
(372,620,o),
(380,665,cs),
(390,725,o),
(331,756,o),
(260,756,cs),
(189,756,o),
(114,717,o),
(102,650,c),
(202,650,l),
(207,678,o),
(224,686,o),
(247,686,cs),
(270,686,o),
(282,676,o),
(279,660,cs),
(276,642,o),
(264,622,o),
(236,622,cs),
(193,622,l),
(183,562,l),
(226,562,ls),
(263,562,o),
(268,530,o),
(265,512,cs),
(262,494,o),
(247,475,o),
(210,475,cs),
(173,475,o),
(167,502,o),
(171,525,c),
(71,525,l),
(58,453,o),
(117,400,o),
(197,400,cs)
);
}
);
width = 356;
}
);
unicode = 179;
},
{
glyphname = foursuperior;
lastChange = "2026-01-31 14:09:00 +0000";
layers = (
{
layerId = "05246BF3-0764-4143-87C4-5D2B296D3790";
shapes = (
{
closed = 1;
nodes = (
(274,410,l),
(286,476,l),
(329,476,l),
(337,526,l),
(294,526,l),
(334,750,l),
(254,750,l),
(67,526,l),
(59,476,l),
(216,476,l),
(204,410,l)
);
},
{
closed = 1;
nodes = (
(249,666,l),
(224,526,l),
(132,526,l)
);
}
);
width = 331;
},
{
layerId = "B51EB05F-9FBB-4087-814F-400611B2D4B0";
shapes = (
{
closed = 1;
nodes = (
(303,410,l),
(314,471,l),
(357,471,l),
(368,536,l),
(325,536,l),
(363,750,l),
(253,750,l),
(68,536,l),
(57,471,l),
(234,471,l),
(223,410,l)
);
},
{
closed = 1;
nodes = (
(269,670,l),
(245,536,l),
(153,536,l)
);
}
);
width = 356;
}
);
unicode = 8308;
},
{
glyphname = .notdef;
lastChange = "2026-01-30 23:24:16 +0000";
layers = (
{
hints = (
{
horizontal = 1;
origin = (8,6);
place = (660,-16);
type = Stem;
},
{
horizontal = 1;
origin = (0,2);
place = (720,-16);
type = Stem;
},
{
horizontal = 1;
origin = (8,6);
place = (660,8);
type = Stem;
},
{
place = (-6,-16);
type = Stem;
},
{
place = (364,-16);
type = Stem;
}
);
layerId = "05246BF3-0764-4143-87C4-5D2B296D3790";
shapes = (
{
closed = 1;
nodes = (
(314,0,l),
(441,720,l),
(161,720,l),
(34,0,l)
);
},
{
closed = 1;
nodes = (
(126,70,l),
(146,70,l),
(150,90,l),
(170,90,l),
(173,110,l),
(193,110,l),
(197,130,l),
(137,130,l),
(140,150,l),
(260,150,l),
(257,130,l),
(217,130,l),
(213,110,l),
(193,110,l),
(190,90,l),
(170,90,l),
(166,70,l),
(246,70,l),
(243,50,l),
(123,50,l)
);
},
{
closed = 1;
nodes = (
(168,190,l),
(148,190,l),
(156,240,l),
(176,240,l),
(180,260,l),
(260,260,l),
(256,240,l),
(276,240,l),
(268,190,l),
(248,190,l),
(244,170,l),
(164,170,l)
);
},
{
closed = 1;
nodes = (
(248,190,l),
(256,240,l),
(176,240,l),
(168,190,l)
);
},
{
closed = 1;
nodes = (
(170,320,l),
(190,320,l),
(194,340,l),
(174,340,l),
(181,380,l),
(201,380,l),
(194,340,l),
(294,340,l),
(290,320,l),
(190,320,l),
(183,280,l),
(163,280,l)
);
},
{
closed = 1;
nodes = (
(195,460,l),
(215,460,l),
(219,480,l),
(299,480,l),
(295,460,l),
(315,460,l),
(305,400,l),
(185,400,l)
);
},
{
closed = 1;
nodes = (
(288,420,l),
(295,460,l),
(215,460,l),
(208,420,l)
);
},
{
closed = 1;
nodes = (
(226,520,l),
(206,520,l),
(216,580,l),
(236,580,l),
(226,520,l),
(256,520,l),
(263,560,l),
(283,560,l),
(276,520,l),
(306,520,l),
(316,580,l),
(336,580,l),
(326,520,l),
(306,520,l),
(302,500,l),
(222,500,l)
);
},
{
closed = 1;
nodes = (
(243,620,l),
(223,620,l),
(232,670,l),
(252,670,l),
(243,620,l),
(273,620,l),
(280,660,l),
(300,660,l),
(293,620,l),
(343,620,l),
(340,600,l),
(290,600,l),
(293,620,l),
(273,620,l),
(270,600,l),
(240,600,l)
);
}
);
width = 521;
},
{
hints = (
{
horizontal = 1;
place = (0,30);
type = Stem;
},
{
horizontal = 1;
place = (720,30);
type = Stem;
},
{
horizontal = 1;
place = (666,54);
type = Stem;
},
{
place = (40,30);
type = Stem;
},
{
place = (410,30);
type = Stem;
}
);
layerId = "B51EB05F-9FBB-4087-814F-400611B2D4B0";
shapes = (
{
closed = 1;
nodes = (
(360,0,l),
(360,720,l),
(80,720,l),
(80,0,l)
);
},
{
closed = 1;
nodes = (
(160,70,l),
(180,70,l),
(180,90,l),
(200,90,l),
(200,110,l),
(220,110,l),
(220,130,l),
(160,130,l),
(160,150,l),
(280,150,l),
(280,130,l),
(240,130,l),
(240,110,l),
(220,110,l),
(220,90,l),
(200,90,l),
(200,70,l),
(280,70,l),
(280,50,l),
(160,50,l)
);
},
{
closed = 1;
nodes = (
(180,190,l),
(160,190,l),
(160,240,l),
(180,240,l),
(180,260,l),
(260,260,l),
(260,240,l),
(280,240,l),
(280,190,l),
(260,190,l),
(260,170,l),
(180,170,l)
);
},
{
closed = 1;
nodes = (
(260,190,l),
(260,240,l),
(180,240,l),
(180,190,l)
);
},
{
closed = 1;
nodes = (
(160,320,l),
(180,320,l),
(180,340,l),
(160,340,l),
(160,380,l),
(180,380,l),
(180,340,l),
(280,340,l),
(280,320,l),
(180,320,l),
(180,280,l),
(160,280,l)
);
},
{
closed = 1;
nodes = (
(160,460,l),
(180,460,l),
(180,480,l),
(260,480,l),
(260,460,l),
(280,460,l),
(280,400,l),
(160,400,l)
);
},
{
closed = 1;
nodes = (
(260,420,l),
(260,460,l),
(180,460,l),
(180,420,l)
);
},
{
closed = 1;
nodes = (
(180,520,l),
(160,520,l),
(160,580,l),
(180,580,l),
(180,520,l),
(210,520,l),
(210,560,l),
(230,560,l),
(230,520,l),
(260,520,l),
(260,580,l),
(280,580,l),
(280,520,l),
(260,520,l),
(260,500,l),
(180,500,l)
);
},
{
closed = 1;
nodes = (
(180,620,l),
(160,620,l),
(160,670,l),
(180,670,l),
(180,620,l),
(210,620,l),
(210,660,l),
(230,660,l),
(230,620,l),
(280,620,l),
(280,600,l),
(230,600,l),
(230,620,l),
(210,620,l),
(210,600,l),
(180,600,l)
);
}
);
width = 440;
}
);
},
{
glyphname = period;
kernLeft = period;
kernRight = period;
lastChange = "2026-01-31 14:10:37 +0000";
layers = (
{
hints = (
{
horizontal = 1;
origin = (0,5);
target = (0,11);
type = Stem;
},
{
origin = (0,8);
target = (0,2);
type = Stem;
}
);
layerId = "05246BF3-0764-4143-87C4-5D2B296D3790";
shapes = (
{
closed = 1;
nodes = (
(114,-10,o),
(148,19,o),
(154,55,cs),
(161,91,o),
(137,120,o),
(101,120,cs),
(65,120,o),
(31,91,o),
(24,55,cs),
(18,19,o),
(42,-10,o),
(78,-10,cs)
);
}
);
width = 250;
},
{
hints = (
{
horizontal = 1;
origin = (0,11);
target = (0,5);
type = Stem;
},
{
origin = (0,8);
target = (0,2);
type = Stem;
}
);
layerId = "B51EB05F-9FBB-4087-814F-400611B2D4B0";
shapes = (
{
closed = 1;
nodes = (
(142,-15,o),
(188,24,o),
(196,70,cs),
(204,116,o),
(172,155,o),
(126,155,cs),
(80,155,o),
(34,116,o),
(26,70,cs),
(18,24,o),
(50,-15,o),
(96,-15,cs)
);
}
);
width = 290;
}
);
unicode = 46;
},
{
glyphname = comma;
kernLeft = period;
kernRight = period;
lastChange = "2026-01-31 14:10:43 +0000";
layers = (
{
hints = (
{
origin = (0,3);
target = (0,1);
type = Stem;
}
);
layerId = "05246BF3-0764-4143-87C4-5D2B296D3790";
shapes = (
{
closed = 1;
nodes = (
(40,-165,l),
(157,100,l),
(62,100,l),
(-35,-165,l)
);
}
);
width = 245;
},
{
hints = (
{
horizontal = 1;
origin = (0,3);
target = (0,2);
type = Stem;
},
{
origin = (0,3);
target = (0,1);
type = Stem;
}
);
layerId = "B51EB05F-9FBB-4087-814F-400611B2D4B0";
shapes = (
{
closed = 1;
nodes = (
(94,-140,l),
(202,135,l),
(47,135,l),
(-31,-140,l)
);
}
);
width = 285;
}
);
unicode = 44;
},
{
glyphname = colon;
kernLeft = colon;
kernRight = colon;
lastChange = "2026-01-31 14:10:48 +0000";
layers = (
{
hints = (
{
horizontal = 1;
origin = (1,5);
target = (1,11);
type = Stem;
},
{
horizontal = 1;
origin = (0,5);
target = (0,11);
type = Stem;
},
{
origin = (1,8);
target = (1,2);
type = Stem;
}
);
layerId = "05246BF3-0764-4143-87C4-5D2B296D3790";
shapes = (
{
closed = 1;
nodes = (
(195,390,o),
(229,419,o),
(235,455,cs),
(241,491,o),
(217,520,o),
(181,520,cs),
(145,520,o),
(111,491,o),
(105,455,cs),
(99,419,o),
(123,390,o),
(159,390,cs)
);
},
{
closed = 1;
nodes = (
(124,-10,o),
(158,18,o),
(164,55,cs),
(171,91,o),
(147,120,o),
(111,120,cs),
(74,120,o),
(41,91,o),
(34,55,cs),
(28,18,o),
(51,-10,o),
(88,-10,cs)
);
}
);
width = 271;
},
{
hints = (
{
horizontal = 1;
origin = (1,11);
target = (1,5);
type = Stem;
},
{
horizontal = 1;
origin = (0,5);
target = (0,11);
type = Stem;
},
{
origin = (1,8);
target = (1,2);
type = Stem;
}
);
layerId = "B51EB05F-9FBB-4087-814F-400611B2D4B0";
shapes = (
{
closed = 1;
nodes = (
(209,360,o),
(254,398,o),
(262,445,cs),
(270,492,o),
(239,530,o),
(192,530,cs),
(145,530,o),
(100,492,o),
(92,445,cs),
(84,398,o),
(115,360,o),
(162,360,cs)
);
},
{
closed = 1;
nodes = (
(143,-15,o),
(188,22,o),
(196,70,cs),
(204,117,o),
(173,155,o),
(126,155,cs),
(78,155,o),
(34,117,o),
(26,70,cs),
(18,22,o),
(48,-15,o),
(96,-15,cs)
);
}
);
width = 290;
}
);
unicode = 58;
},
{
glyphname = semicolon;
kernLeft = colon;
kernRight = colon;
lastChange = "2026-01-31 14:10:54 +0000";
layers = (
{
hints = (
{
horizontal = 1;
origin = (1,5);
target = (1,11);
type = Stem;
},
{
origin = (1,8);
target = (1,2);
type = Stem;
}
);
layerId = "05246BF3-0764-4143-87C4-5D2B296D3790";
shapes = (
{
closed = 1;
nodes = (
(40,-165,l),
(157,100,l),
(62,100,l),
(-35,-165,l)
);
},
{
closed = 1;
nodes = (
(195,390,o),
(228,418,o),
(234,455,cs),
(241,492,o),
(218,520,o),
(181,520,cs),
(144,520,o),
(111,492,o),
(104,455,cs),
(98,418,o),
(121,390,o),
(158,390,cs)
);
}
);
width = 260;
},
{
hints = (
{
horizontal = 1;
origin = (0,3);
target = (0,2);
type = Stem;
},
{
horizontal = 1;
origin = (1,5);
target = (1,11);
type = Stem;
},
{
origin = (1,8);
target = (1,2);
type = Stem;
}
);
layerId = "B51EB05F-9FBB-4087-814F-400611B2D4B0";
shapes = (
{
closed = 1;
nodes = (
(94,-140,l),
(202,135,l),
(47,135,l),
(-31,-140,l)
);
},
{
closed = 1;
nodes = (
(205,360,o),
(250,398,o),
(258,445,cs),
(266,492,o),
(235,530,o),
(188,530,cs),
(141,530,o),
(96,492,o),
(88,445,cs),
(80,398,o),
(111,360,o),
(158,360,cs)
);
}
);
width = 286;
}
);
unicode = 59;
},
{
glyphname = ellipsis;
kernLeft = period;
kernRight = period;
lastChange = "2026-01-31 14:10:59 +0000";
layers = (
{
hints = (
{
horizontal = 1;
origin = (1,5);
target = (1,11);
type = Stem;
},
{
origin = (1,8);
target = (1,2);
type = Stem;
},
{
origin = (2,8);
target = (2,2);
type = Stem;
},
{
origin = (0,8);
target = (0,2);
type = Stem;
}
);
layerId = "05246BF3-0764-4143-87C4-5D2B296D3790";
shapes = (
{
closed = 1;
nodes = (
(544,-10,o),
(578,19,o),
(584,55,cs),
(591,91,o),
(567,120,o),
(531,120,cs),
(495,120,o),
(461,91,o),
(454,55,cs),
(448,19,o),
(472,-10,o),
(508,-10,cs)
);
},
{
closed = 1;
nodes = (
(104,-10,o),
(138,19,o),
(144,55,cs),
(151,91,o),
(127,120,o),
(91,120,cs),
(55,120,o),
(21,91,o),
(14,55,cs),
(8,19,o),
(32,-10,o),
(68,-10,cs)
);
},
{
closed = 1;
nodes = (
(324,-10,o),
(358,19,o),
(364,55,cs),
(371,91,o),
(347,120,o),
(311,120,cs),
(275,120,o),
(241,91,o),
(234,55,cs),
(228,19,o),
(252,-10,o),
(288,-10,cs)
);
}
);
width = 670;
},
{
hints = (
{
horizontal = 1;
origin = (1,11);
target = (1,5);
type = Stem;
},
{
origin = (1,8);
target = (1,2);
type = Stem;
},
{
origin = (2,8);
target = (2,2);
type = Stem;
},
{
origin = (0,8);
target = (0,2);
type = Stem;
}
);
layerId = "B51EB05F-9FBB-4087-814F-400611B2D4B0";
shapes = (
{
closed = 1;
nodes = (
(552,-10,o),
(598,29,o),
(606,75,cs),
(614,121,o),
(582,160,o),
(536,160,cs),
(490,160,o),
(444,121,o),
(436,75,cs),
(428,29,o),
(460,-10,o),
(506,-10,cs)
);
},
{
closed = 1;
nodes = (
(112,-10,o),
(158,29,o),
(166,75,cs),
(174,121,o),
(142,160,o),
(96,160,cs),
(50,160,o),
(4,121,o),
(-4,75,cs),
(-12,29,o),
(20,-10,o),
(66,-10,cs)
);
},
{
closed = 1;
nodes = (
(332,-10,o),
(378,29,o),
(386,75,cs),
(394,121,o),
(362,160,o),
(316,160,cs),
(270,160,o),
(224,121,o),
(216,75,cs),
(208,29,o),
(240,-10,o),
(286,-10,cs)
);
}
);
width = 670;
}
);
unicode = 8230;
},
{
glyphname = exclam;
kernLeft = exclam;
lastChange = "2026-01-31 14:11:05 +0000";
layers = (
{
hints = (
{
horizontal = 1;
origin = (1,5);
target = (1,11);
type = Stem;
},
{
horizontal = 1;
origin = (0,2);
target = down;
type = TopGhost;
},
{
place = (45,43);
type = Stem;
},
{
origin = (1,8);
target = (1,2);
type = Stem;
}
);
layerId = "05246BF3-0764-4143-87C4-5D2B296D3790";
shapes = (
{
closed = 1;
nodes = (
(169,225,l),
(267,720,l),
(167,720,l),
(89,225,l)
);
},
{
closed = 1;
nodes = (
(124,-10,o),
(158,19,o),
(164,55,cs),
(171,91,o),
(147,120,o),
(111,120,cs),
(75,120,o),
(41,91,o),
(34,55,cs),
(28,19,o),
(52,-10,o),
(88,-10,cs)
);
}
);
width = 270;
},
{
hints = (
{
horizontal = 1;
origin = (1,11);
target = (1,5);
type = Stem;
},
{
horizontal = 1;
origin = (0,2);
target = down;
type = TopGhost;
},
{
place = (76,135);
type = Stem;
},
{
origin = (1,8);
target = (1,2);
type = Stem;
}
);
layerId = "B51EB05F-9FBB-4087-814F-400611B2D4B0";
shapes = (
{
closed = 1;
nodes = (
(187,215,l),
(291,720,l),
(141,720,l),
(67,215,l)
);
},
{
closed = 1;
nodes = (
(134,-15,o),
(178,22,o),
(186,70,cs),
(194,118,o),
(164,155,o),
(116,155,cs),
(68,155,o),
(24,118,o),
(16,70,cs),
(8,22,o),
(38,-15,o),
(86,-15,cs)
);
}
);
width = 270;
}
);
unicode = 33;
},
{
glyphname = exclamdown;
kernRight = exclamdown;
lastChange = "2026-01-31 14:11:11 +0000";
layers = (
{
hints = (
{
horizontal = 1;
origin = (1,5);
target = (1,11);
type = Stem;
},
{
origin = (1,8);
target = (1,2);
type = Stem;
},
{
place = (44,9);
type = Stem;
}
);
layerId = "05246BF3-0764-4143-87C4-5D2B296D3790";
shapes = (
{
closed = 1;
nodes = (
(104,-200,l),
(181,295,l),
(101,295,l),
(4,-200,l)
);
},
{
closed = 1;
nodes = (
(196,400,o),
(230,429,o),
(236,465,cs),
(243,501,o),
(219,530,o),
(183,530,cs),
(147,530,o),
(113,501,o),
(106,465,cs),
(100,429,o),
(124,400,o),
(160,400,cs)
);
}
);
width = 270;
},
{
hints = (
{
horizontal = 1;
origin = (1,5);
target = (1,11);
type = Stem;
},
{
origin = (1,8);
target = (1,2);
type = Stem;
},
{
place = (109,135);
type = Stem;
}
);
layerId = "B51EB05F-9FBB-4087-814F-400611B2D4B0";
shapes = (
{
closed = 1;
nodes = (
(128,-200,l),
(202,305,l),
(82,305,l),
(-22,-200,l)
);
},
{
closed = 1;
nodes = (
(201,365,o),
(244,402,o),
(253,450,cs),
(261,498,o),
(231,535,o),
(183,535,cs),
(135,535,o),
(91,498,o),
(83,450,cs),
(74,402,o),
(105,365,o),
(153,365,cs)
);
}
);
width = 270;
}
);
unicode = 161;
},
{
glyphname = question;
kernLeft = question;
kernRight = question;
lastChange = "2026-01-31 14:11:17 +0000";
layers = (
{
hints = (
{
horizontal = 1;
origin = (1,5);
target = (1,11);
type = Stem;
},
{
horizontal = 1;
origin = (0,10);
target = (0,17);
type = Stem;
},
{
origin = (0,13);
target = (0,14);
type = Stem;
},
{
origin = (0,27);
target = (0,0);
type = Stem;
},
{
origin = (0,20);
target = (0,7);
type = Stem;
},
{
origin = (1,8);
target = (1,2);
type = Stem;
}
);
layerId = "05246BF3-0764-4143-87C4-5D2B296D3790";
shapes = (
{
closed = 1;
nodes = (
(306,225,l),
(310,245,ls),
(321,305,o),
(366,327,o),
(412,357,cs),
(502,417,o),
(528,478,o),
(539,540,cs),
(558,650,o),
(480,730,o),
(350,730,cs),
(220,730,o),
(118,650,o),
(99,540,c),
(189,540,l),
(200,600,o),
(256,650,o),
(336,650,cs),
(416,650,o),
(460,600,o),
(449,540,cs),
(441,496,o),
(434,454,o),
(355,404,cs),
(276,354,o),
(232,315,o),
(220,245,cs),
(216,225,l)
);
},
{
closed = 1;
nodes = (
(257,-10,o),
(290,18,o),
(296,55,cs),
(303,92,o),
(280,120,o),
(243,120,cs),
(206,120,o),
(173,92,o),
(166,55,cs),
(160,18,o),
(183,-10,o),
(220,-10,cs)
);
}
);
width = 540;
},
{
hints = (
{
horizontal = 1;
origin = (1,11);
target = (1,5);
type = Stem;
},
{
horizontal = 1;
origin = (0,10);
target = (0,17);
type = Stem;
},
{
origin = (0,27);
target = (0,0);
type = Stem;
},
{
origin = (0,13);
target = (0,14);
type = Stem;
},
{
origin = (0,20);
target = (0,7);
type = Stem;
},
{
origin = (1,8);
target = (1,2);
type = Stem;
}
);
layerId = "B51EB05F-9FBB-4087-814F-400611B2D4B0";
shapes = (
{
closed = 1;
nodes = (
(330,215,l),
(335,245,ls),
(346,310,o),
(376,316,o),
(437,360,cs),
(517,418,o),
(546,468,o),
(556,525,cs),
(579,655,o),
(475,730,o),
(350,730,cs),
(215,730,o),
(99,655,o),
(76,525,c),
(226,525,l),
(235,575,o),
(261,620,o),
(331,620,cs),
(401,620,o),
(416,580,o),
(406,525,cs),
(402,501,o),
(400,463,o),
(320,405,cs),
(233,342,o),
(198,320,o),
(185,245,cs),
(180,215,l)
);
},
{
closed = 1;
nodes = (
(263,-10,o),
(307,27,o),
(315,75,cs),
(323,123,o),
(293,160,o),
(245,160,cs),
(197,160,o),
(153,123,o),
(145,75,cs),
(137,27,o),
(167,-10,o),
(215,-10,cs)
);
}
);
width = 540;
}
);
unicode = 63;
},
{
glyphname = questiondown;
kernLeft = questiondown;
kernRight = questiondown;
lastChange = "2026-01-31 14:11:17 +0000";
layers = (
{
hints = (
{
horizontal = 1;
origin = (0,6);
target = (0,27);
type = Stem;
},
{
horizontal = 1;
origin = (1,5);
target = (1,11);
type = Stem;
},
{
origin = (0,24);
target = (0,9);
type = Stem;
},
{
origin = (1,8);
target = (1,2);
type = Stem;
},
{
origin = (0,3);
target = (0,2);
type = Stem;
},
{
origin = (0,18);
target = (0,15);
type = Stem;
}
);
layerId = "05246BF3-0764-4143-87C4-5D2B296D3790";
shapes = (
{
closed = 1;
nodes = (
(319,-210,o),
(421,-130,o),
(441,-20,c),
(351,-20,l),
(340,-80,o),
(283,-130,o),
(203,-130,cs),
(123,-130,o),
(80,-80,o),
(91,-20,cs),
(98,24,o),
(106,66,o),
(184,116,cs),
(263,166,o),
(307,205,o),
(320,275,cs),
(323,295,l),
(233,295,l),
(230,275,ls),
(219,215,o),
(173,193,o),
(128,163,cs),
(37,103,o),
(11,42,o),
(1,-20,cs),
(-19,-130,o),
(59,-210,o),
(189,-210,cs)
);
},
{
closed = 1;
nodes = (
(334,400,o),
(366,428,o),
(373,465,cs),
(380,502,o),
(356,530,o),
(319,530,cs),
(282,530,o),
(250,502,o),
(243,465,cs),
(236,428,o),
(260,400,o),
(297,400,cs)
);
}
);
width = 540;
},
{
hints = (
{
horizontal = 1;
origin = (0,27);
target = (0,6);
type = Stem;
},
{
horizontal = 1;
origin = (1,5);
target = (1,11);
type = Stem;
},
{
origin = (1,8);
target = (1,2);
type = Stem;
},
{
origin = (0,18);
target = (0,15);
type = Stem;
},
{
origin = (0,24);
target = (0,9);
type = Stem;
},
{
origin = (0,3);
target = (0,2);
type = Stem;
}
);
layerId = "B51EB05F-9FBB-4087-814F-400611B2D4B0";
shapes = (
{
closed = 1;
nodes = (
(325,-200,o),
(441,-125,o),
(464,5,c),
(314,5,l),
(305,-45,o),
(279,-90,o),
(209,-90,cs),
(139,-90,o),
(124,-50,o),
(134,5,cs),
(138,29,o),
(140,67,o),
(220,125,cs),
(307,188,o),
(342,210,o),
(356,285,cs),
(361,315,l),
(211,315,l),
(206,285,ls),
(194,220,o),
(164,214,o),
(103,170,cs),
(23,112,o),
(-6,62,o),
(-16,5,cs),
(-39,-125,o),
(65,-200,o),
(190,-200,cs)
);
},
{
closed = 1;
nodes = (
(344,370,o),
(387,407,o),
(395,455,cs),
(404,503,o),
(373,540,o),
(325,540,cs),
(277,540,o),
(234,503,o),
(225,455,cs),
(217,407,o),
(248,370,o),
(296,370,cs)
);
}
);
width = 540;
}
);
unicode = 191;
},
{
glyphname = periodcentered;
lastChange = "2026-01-31 14:11:26 +0000";
layers = (
{
anchors = (
{
name = _center;
pos = (165,260);
}
);
hints = (
{
horizontal = 1;
origin = (0,5);
target = (0,11);
type = Stem;
},
{
origin = (0,8);
target = (0,2);
type = Stem;
}
);
layerId = "05246BF3-0764-4143-87C4-5D2B296D3790";
shapes = (
{
closed = 1;
nodes = (
(189,195,o),
(224,225,o),
(230,260,cs),
(237,295,o),
(212,325,o),
(177,325,cs),
(142,325,o),
(107,295,o),
(100,260,cs),
(94,225,o),
(119,195,o),
(154,195,cs)
);
}
);
width = 330;
},
{
anchors = (
{
name = _center;
pos = (174,260);
}
);
hints = (
{
horizontal = 1;
origin = (0,11);
target = (0,5);
type = Stem;
},
{
origin = (0,8);
target = (0,2);
type = Stem;
}
);
layerId = "B51EB05F-9FBB-4087-814F-400611B2D4B0";
shapes = (
{
closed = 1;
nodes = (
(205,175,o),
(251,214,o),
(259,260,cs),
(267,306,o),
(235,345,o),
(189,345,cs),
(143,345,o),
(97,306,o),
(89,260,cs),
(81,214,o),
(113,175,o),
(159,175,cs)
);
}
);
width = 350;
}
);
unicode = 183;
},
{
glyphname = bullet;
lastChange = "2026-01-31 14:11:26 +0000";
layers = (
{
layerId = "05246BF3-0764-4143-87C4-5D2B296D3790";
shapes = (
{
closed = 1;
nodes = (
(292,120,o),
(366,183,o),
(380,260,cs),
(393,337,o),
(341,400,o),
(264,400,cs),
(187,400,o),
(113,337,o),
(100,260,cs),
(86,183,o),
(138,120,o),
(215,120,cs)
);
}
);
width = 480;
},
{
hints = (
{
origin = (0,8);
target = (0,2);
type = Stem;
}
);
layerId = "B51EB05F-9FBB-4087-814F-400611B2D4B0";
shapes = (
{
closed = 1;
nodes = (
(323,90,o),
(412,166,o),
(429,260,cs),
(446,354,o),
(383,430,o),
(289,430,cs),
(195,430,o),
(106,354,o),
(89,260,cs),
(72,166,o),
(135,90,o),
(229,90,cs)
);
}
);
width = 520;
}
);
unicode = 8226;
},
{
glyphname = asterisk;
kernLeft = quotesingle;
kernRight = quotesingle;
lastChange = "2026-01-31 14:11:30 +0000";
layers = (
{
hints = (
{
horizontal = 1;
origin = (0,9);
target = down;
type = TopGhost;
},
{
origin = (0,17);
target = (0,0);
type = Stem;
}
);
layerId = "05246BF3-0764-4143-87C4-5D2B296D3790";
shapes = (
{
closed = 1;
nodes = (
(281,390,l),
(301,502,l),
(388,446,l),
(428,500,l),
(342,555,l),
(448,611,l),
(426,664,l),
(319,608,l),
(339,720,l),
(279,720,l),
(259,608,l),
(172,664,l),
(132,610,l),
(218,555,l),
(112,499,l),
(134,446,l),
(241,502,l),
(221,390,l)
);
}
);
width = 456;
},
{
hints = (
{
horizontal = 1;
origin = (0,9);
target = down;
type = TopGhost;
},
{
origin = (0,17);
target = (0,0);
type = Stem;
}
);
layerId = "B51EB05F-9FBB-4087-814F-400611B2D4B0";
shapes = (
{
closed = 1;
nodes = (
(282,390,l),
(298,478,l),
(366,434,l),
(424,512,l),
(356,555,l),
(439,599,l),
(407,676,l),
(325,633,l),
(340,720,l),
(250,720,l),
(235,632,l),
(166,676,l),
(109,598,l),
(176,555,l),
(93,511,l),
(125,434,l),
(207,477,l),
(192,390,l)
);
}
);
width = 430;
}
);
unicode = 42;
},
